<?xml version="1.0" standalone="no"?>
<!DOCTYPE svg PUBLIC "-//W3C//DTD SVG 1.1//EN" "http://www.w3.org/Graphics/SVG/1.1/DTD/svg11.dtd" >
<svg xmlns="http://www.w3.org/2000/svg" xmlns:xlink="http://www.w3.org/1999/xlink" version="1.1">
<metadata>
Created by FontForge 20170731 at Thu Jul  8 02:42:41 2021
 By Aleksey,,,
</metadata>
<defs>
<font id="iconsax" horiz-adv-x="1024" >
  <font-face 
    font-family="iconsax"
    font-weight="400"
    font-stretch="normal"
    units-per-em="1024"
    panose-1="0 0 0 0 0 0 0 0 0 0"
    ascent="960"
    descent="-64"
    x-height="864"
    cap-height="875"
    bbox="0 -64 1024 960.261"
    underline-thickness="0"
    underline-position="0"
    unicode-range="U+0001-FFFE"
  />
<missing-glyph 
 />
    <glyph glyph-name="uniFB50" unicode="&#x671;" arabic-form="isolated" 
d="M0 0v0v0v0z" />
    <glyph glyph-name="uniFB51" unicode="&#x671;" arabic-form="final" 
d="M0 0v0v0v0z" />
    <glyph glyph-name="uniFB52" unicode="&#x67b;" arabic-form="isolated" 
d="M0 0v0v0v0z" />
    <glyph glyph-name="uniFB53" unicode="&#x67b;" arabic-form="final" 
d="M0 0v0v0v0z" />
    <glyph glyph-name="uniFB54" unicode="&#x67b;" arabic-form="initial" 
d="M0 0v0v0v0z" />
    <glyph glyph-name="uniFB55" unicode="&#x67b;" arabic-form="medial" 
d="M0 0v0v0v0z" />
    <glyph glyph-name="uniFB56" unicode="&#x67e;" arabic-form="isolated" 
d="M0 0v0v0v0z" />
    <glyph glyph-name="uniFB57" unicode="&#x67e;" arabic-form="final" 
d="M0 0v0v0v0z" />
    <glyph glyph-name="uniFB58" unicode="&#x67e;" arabic-form="initial" 
d="M0 0v0v0v0z" />
    <glyph glyph-name="uniFB59" unicode="&#x67e;" arabic-form="medial" 
d="M0 0v0v0v0z" />
    <glyph glyph-name="uniFB5A" unicode="&#x680;" arabic-form="isolated" 
d="M0 0v0v0v0z" />
    <glyph glyph-name="uniFB5B" unicode="&#x680;" arabic-form="final" 
d="M0 0v0v0v0z" />
    <glyph glyph-name="uniFB5C" unicode="&#x680;" arabic-form="initial" 
d="M0 0v0v0v0z" />
    <glyph glyph-name="uniFB5D" unicode="&#x680;" arabic-form="medial" 
d="M0 0v0v0v0z" />
    <glyph glyph-name="uniFB5E" unicode="&#x67a;" arabic-form="isolated" 
d="M0 0v0v0v0z" />
    <glyph glyph-name="uniFB5F" unicode="&#x67a;" arabic-form="final" 
d="M0 0v0v0v0z" />
    <glyph glyph-name="uniFB60" unicode="&#x67a;" arabic-form="initial" 
d="M0 0v0v0v0z" />
    <glyph glyph-name="uniFB61" unicode="&#x67a;" arabic-form="medial" 
d="M0 0v0v0v0z" />
    <glyph glyph-name="uniFB62" unicode="&#x67f;" arabic-form="isolated" 
d="M0 0v0v0v0z" />
    <glyph glyph-name="uniFB63" unicode="&#x67f;" arabic-form="final" 
d="M0 0v0v0v0z" />
    <glyph glyph-name="uniFB64" unicode="&#x67f;" arabic-form="initial" 
d="M0 0v0v0v0z" />
    <glyph glyph-name="uniFB65" unicode="&#x67f;" arabic-form="medial" 
d="M0 0v0v0v0z" />
    <glyph glyph-name="uniFB66" unicode="&#x679;" arabic-form="isolated" 
d="M0 0v0v0v0z" />
    <glyph glyph-name="uniFB67" unicode="&#x679;" arabic-form="final" 
d="M0 0v0v0v0z" />
    <glyph glyph-name="uniFB68" unicode="&#x679;" arabic-form="initial" 
d="M0 0v0v0v0z" />
    <glyph glyph-name="uniFB69" unicode="&#x679;" arabic-form="medial" 
d="M0 0v0v0v0z" />
    <glyph glyph-name="uniFB6A" unicode="&#x6a4;" arabic-form="isolated" 
d="M0 0v0v0v0z" />
    <glyph glyph-name="uniFB6B" unicode="&#x6a4;" arabic-form="final" 
d="M0 0v0v0v0z" />
    <glyph glyph-name="uniFB6C" unicode="&#x6a4;" arabic-form="initial" 
d="M0 0v0v0v0z" />
    <glyph glyph-name="uniFB6D" unicode="&#x6a4;" arabic-form="medial" 
d="M0 0v0v0v0z" />
    <glyph glyph-name="uniFB6E" unicode="&#x6a6;" arabic-form="isolated" 
d="M0 0v0v0v0z" />
    <glyph glyph-name="uniFB6F" unicode="&#x6a6;" arabic-form="final" 
d="M0 0v0v0v0z" />
    <glyph glyph-name="uniFB70" unicode="&#x6a6;" arabic-form="initial" 
d="M0 0v0v0v0z" />
    <glyph glyph-name="uniFB71" unicode="&#x6a6;" arabic-form="medial" 
d="M0 0v0v0v0z" />
    <glyph glyph-name="uniFB72" unicode="&#x684;" arabic-form="isolated" 
d="M0 0v0v0v0z" />
    <glyph glyph-name="uniFB73" unicode="&#x684;" arabic-form="final" 
d="M0 0v0v0v0z" />
    <glyph glyph-name="uniFB74" unicode="&#x684;" arabic-form="initial" 
d="M0 0v0v0v0z" />
    <glyph glyph-name="uniFB75" unicode="&#x684;" arabic-form="medial" 
d="M0 0v0v0v0z" />
    <glyph glyph-name="uniFB76" unicode="&#x683;" arabic-form="isolated" 
d="M0 0v0v0v0z" />
    <glyph glyph-name="uniFB77" unicode="&#x683;" arabic-form="final" 
d="M0 0v0v0v0z" />
    <glyph glyph-name="uniFB78" unicode="&#x683;" arabic-form="initial" 
d="M0 0v0v0v0z" />
    <glyph glyph-name="uniFB79" unicode="&#x683;" arabic-form="medial" 
d="M0 0v0v0v0z" />
    <glyph glyph-name="uniFB7A" unicode="&#x686;" arabic-form="isolated" 
d="M0 0v0v0v0z" />
    <glyph glyph-name="uniFB7B" unicode="&#x686;" arabic-form="final" 
d="M0 0v0v0v0z" />
    <glyph glyph-name="uniFB7C" unicode="&#x686;" arabic-form="initial" 
d="M0 0v0v0v0z" />
    <glyph glyph-name="uniFB7D" unicode="&#x686;" arabic-form="medial" 
d="M0 0v0v0v0z" />
    <glyph glyph-name="uniFB7E" unicode="&#x687;" arabic-form="isolated" 
d="M0 0v0v0v0z" />
    <glyph glyph-name="uniFB7F" unicode="&#x687;" arabic-form="final" 
d="M0 0v0v0v0z" />
    <glyph glyph-name="uniFB80" unicode="&#x687;" arabic-form="initial" 
d="M0 0v0v0v0z" />
    <glyph glyph-name="uniFB81" unicode="&#x687;" arabic-form="medial" 
d="M0 0v0v0v0z" />
    <glyph glyph-name="uniFB82" unicode="&#x68d;" arabic-form="isolated" 
d="M0 0v0v0v0z" />
    <glyph glyph-name="uniFB83" unicode="&#x68d;" arabic-form="final" 
d="M0 0v0v0v0z" />
    <glyph glyph-name="uniFB84" unicode="&#x68c;" arabic-form="isolated" 
d="M0 0v0v0v0z" />
    <glyph glyph-name="uniFB85" unicode="&#x68c;" arabic-form="final" 
d="M0 0v0v0v0z" />
    <glyph glyph-name="uniFB86" unicode="&#x68e;" arabic-form="isolated" 
d="M0 0v0v0v0z" />
    <glyph glyph-name="uniFB87" unicode="&#x68e;" arabic-form="final" 
d="M0 0v0v0v0z" />
    <glyph glyph-name="uniFB88" unicode="&#x688;" arabic-form="isolated" 
d="M0 0v0v0v0z" />
    <glyph glyph-name="uniFB89" unicode="&#x688;" arabic-form="final" 
d="M0 0v0v0v0z" />
    <glyph glyph-name="uniFB8A" unicode="&#x698;" arabic-form="isolated" 
d="M0 0v0v0v0z" />
    <glyph glyph-name="uniFB8B" unicode="&#x698;" arabic-form="final" 
d="M0 0v0v0v0z" />
    <glyph glyph-name="uniFB8C" unicode="&#x691;" arabic-form="isolated" 
d="M0 0v0v0v0z" />
    <glyph glyph-name="uniFB8D" unicode="&#x691;" arabic-form="final" 
d="M0 0v0v0v0z" />
    <glyph glyph-name="uniFB8E" unicode="&#x6a9;" arabic-form="isolated" 
d="M0 0v0v0v0z" />
    <glyph glyph-name="uniFB8F" unicode="&#x6a9;" arabic-form="final" 
d="M0 0v0v0v0z" />
    <glyph glyph-name="uniFB90" unicode="&#x6a9;" arabic-form="initial" 
d="M0 0v0v0v0z" />
    <glyph glyph-name="uniFB91" unicode="&#x6a9;" arabic-form="medial" 
d="M0 0v0v0v0z" />
    <glyph glyph-name="uniFB92" unicode="&#x6af;" arabic-form="isolated" 
d="M0 0v0v0v0z" />
    <glyph glyph-name="uniFB93" unicode="&#x6af;" arabic-form="final" 
d="M0 0v0v0v0z" />
    <glyph glyph-name="uniFB94" unicode="&#x6af;" arabic-form="initial" 
d="M0 0v0v0v0z" />
    <glyph glyph-name="uniFB95" unicode="&#x6af;" arabic-form="medial" 
d="M0 0v0v0v0z" />
    <glyph glyph-name="uniFB96" unicode="&#x6b3;" arabic-form="isolated" 
d="M0 0v0v0v0z" />
    <glyph glyph-name="uniFB97" unicode="&#x6b3;" arabic-form="final" 
d="M0 0v0v0v0z" />
    <glyph glyph-name="uniFB98" unicode="&#x6b3;" arabic-form="initial" 
d="M0 0v0v0v0z" />
    <glyph glyph-name="uniFB99" unicode="&#x6b3;" arabic-form="medial" 
d="M0 0v0v0v0z" />
    <glyph glyph-name="uniFB9A" unicode="&#x6b1;" arabic-form="isolated" 
d="M0 0v0v0v0z" />
    <glyph glyph-name="uniFB9B" unicode="&#x6b1;" arabic-form="final" 
d="M0 0v0v0v0z" />
    <glyph glyph-name="uniFB9C" unicode="&#x6b1;" arabic-form="initial" 
d="M0 0v0v0v0z" />
    <glyph glyph-name="uniFB9D" unicode="&#x6b1;" arabic-form="medial" 
d="M0 0v0v0v0z" />
    <glyph glyph-name="uniFB9E" unicode="&#x6ba;" arabic-form="isolated" 
d="M0 0v0v0v0z" />
    <glyph glyph-name="uniFB9F" unicode="&#x6ba;" arabic-form="final" 
d="M0 0v0v0v0z" />
    <glyph glyph-name="uniFBA0" unicode="&#x6bb;" arabic-form="isolated" 
d="M0 0v0v0v0z" />
    <glyph glyph-name="uniFBA1" unicode="&#x6bb;" arabic-form="final" 
d="M0 0v0v0v0z" />
    <glyph glyph-name="uniFBA2" unicode="&#x6bb;" arabic-form="initial" 
d="M0 0v0v0v0z" />
    <glyph glyph-name="uniFBA3" unicode="&#x6bb;" arabic-form="medial" 
d="M0 0v0v0v0z" />
    <glyph glyph-name="uniFBA4" unicode="&#x6c0;" arabic-form="isolated" 
d="M0 0v0v0v0z" />
    <glyph glyph-name="uniFBA5" unicode="&#x6c0;" arabic-form="final" 
d="M0 0v0v0v0z" />
    <glyph glyph-name="uniFBA6" unicode="&#x6c1;" arabic-form="isolated" 
d="M0 0v0v0v0z" />
    <glyph glyph-name="uniFBA7" unicode="&#x6c1;" arabic-form="final" 
d="M0 0v0v0v0z" />
    <glyph glyph-name="uniFBA8" unicode="&#x6c1;" arabic-form="initial" 
d="M0 0v0v0v0z" />
    <glyph glyph-name="uniFBA9" unicode="&#x6c1;" arabic-form="medial" 
d="M0 0v0v0v0z" />
    <glyph glyph-name="uniFBAA" unicode="&#x6be;" arabic-form="isolated" 
d="M0 0v0v0v0z" />
    <glyph glyph-name="uniFBAB" unicode="&#x6be;" arabic-form="final" 
d="M0 0v0v0v0z" />
    <glyph glyph-name="uniFBAC" unicode="&#x6be;" arabic-form="initial" 
d="M0 0v0v0v0z" />
    <glyph glyph-name="uniFBAD" unicode="&#x6be;" arabic-form="medial" 
d="M0 0v0v0v0z" />
    <glyph glyph-name="uniFBAE" unicode="&#x6d2;" arabic-form="isolated" 
d="M0 0v0v0v0z" />
    <glyph glyph-name="uniFBAF" unicode="&#x6d2;" arabic-form="final" 
d="M0 0v0v0v0z" />
    <glyph glyph-name="uniFBB0" unicode="&#x6d3;" arabic-form="isolated" 
d="M0 0v0v0v0z" />
    <glyph glyph-name="uniFBB1" unicode="&#x6d3;" arabic-form="final" 
d="M0 0v0v0v0z" />
    <glyph glyph-name="uniFBD3" unicode="&#x6ad;" arabic-form="isolated" 
d="M0 0v0v0v0z" />
    <glyph glyph-name="uniFBD4" unicode="&#x6ad;" arabic-form="final" 
d="M0 0v0v0v0z" />
    <glyph glyph-name="uniFBD5" unicode="&#x6ad;" arabic-form="initial" 
d="M0 0v0v0v0z" />
    <glyph glyph-name="uniFBD6" unicode="&#x6ad;" arabic-form="medial" 
d="M0 0v0v0v0z" />
    <glyph glyph-name="uniFBD7" unicode="&#x6c7;" arabic-form="isolated" 
d="M0 0v0v0v0z" />
    <glyph glyph-name="uniFBD8" unicode="&#x6c7;" arabic-form="final" 
d="M0 0v0v0v0z" />
    <glyph glyph-name="uniFBD9" unicode="&#x6c6;" arabic-form="isolated" 
d="M0 0v0v0v0z" />
    <glyph glyph-name="uniFBDA" unicode="&#x6c6;" arabic-form="final" 
d="M0 0v0v0v0z" />
    <glyph glyph-name="uniFBDB" unicode="&#x6c8;" arabic-form="isolated" 
d="M0 0v0v0v0z" />
    <glyph glyph-name="uniFBDC" unicode="&#x6c8;" arabic-form="final" 
d="M0 0v0v0v0z" />
    <glyph glyph-name="uniFBDD" unicode="&#x677;" arabic-form="isolated" 
d="M0 0v0v0v0z" />
    <glyph glyph-name="uniFBDE" unicode="&#x6cb;" arabic-form="isolated" 
d="M0 0v0v0v0z" />
    <glyph glyph-name="uniFBDF" unicode="&#x6cb;" arabic-form="final" 
d="M0 0v0v0v0z" />
    <glyph glyph-name="uniFBE0" unicode="&#x6c5;" arabic-form="isolated" 
d="M0 0v0v0v0z" />
    <glyph glyph-name="uniFBE1" unicode="&#x6c5;" arabic-form="final" 
d="M0 0v0v0v0z" />
    <glyph glyph-name="uniFBE2" unicode="&#x6c9;" arabic-form="isolated" 
d="M0 0v0v0v0z" />
    <glyph glyph-name="uniFBE3" unicode="&#x6c9;" arabic-form="final" 
d="M0 0v0v0v0z" />
    <glyph glyph-name="uniFBE4" unicode="&#x6d0;" arabic-form="isolated" 
d="M0 0v0v0v0z" />
    <glyph glyph-name="uniFBE5" unicode="&#x6d0;" arabic-form="final" 
d="M0 0v0v0v0z" />
    <glyph glyph-name="uniFBE6" unicode="&#x6d0;" arabic-form="initial" 
d="M0 0v0v0v0z" />
    <glyph glyph-name="uniFBE7" unicode="&#x6d0;" arabic-form="medial" 
d="M0 0v0v0v0z" />
    <glyph glyph-name="uniFBE8" unicode="&#x649;" arabic-form="initial" 
d="M0 0v0v0v0z" />
    <glyph glyph-name="uniFBE9" unicode="&#x649;" arabic-form="medial" 
d="M0 0v0v0v0z" />
    <glyph glyph-name="uniFBEA" unicode="&#xfbea;" arabic-form="isolated" 
d="M0 0v0v0v0z" />
    <glyph glyph-name="uniFBEB" unicode="&#xfbeb;" arabic-form="final" 
d="M0 0v0v0v0z" />
    <glyph glyph-name="uniFBEC" unicode="&#xfbec;" arabic-form="isolated" 
d="M0 0v0v0v0z" />
    <glyph glyph-name="uniFBED" unicode="&#xfbed;" arabic-form="final" 
d="M0 0v0v0v0z" />
    <glyph glyph-name="uniFBEE" unicode="&#xfbee;" arabic-form="isolated" 
d="M0 0v0v0v0z" />
    <glyph glyph-name="uniFBEF" unicode="&#xfbef;" arabic-form="final" 
d="M0 0v0v0v0z" />
    <glyph glyph-name="uniFBF0" unicode="&#xfbf0;" arabic-form="isolated" 
d="M0 0v0v0v0z" />
    <glyph glyph-name="uniFBF1" unicode="&#xfbf1;" arabic-form="final" 
d="M0 0v0v0v0z" />
    <glyph glyph-name="uniFBF2" unicode="&#xfbf2;" arabic-form="isolated" 
d="M0 0v0v0v0z" />
    <glyph glyph-name="uniFBF3" unicode="&#xfbf3;" arabic-form="final" 
d="M0 0v0v0v0z" />
    <glyph glyph-name="uniFBF4" unicode="&#xfbf4;" arabic-form="isolated" 
d="M0 0v0v0v0z" />
    <glyph glyph-name="uniFBF5" unicode="&#xfbf5;" arabic-form="final" 
d="M0 0v0v0v0z" />
    <glyph glyph-name="uniFBF6" unicode="&#xfbf6;" arabic-form="isolated" 
d="M0 0v0v0v0z" />
    <glyph glyph-name="uniFBF7" unicode="&#xfbf7;" arabic-form="final" 
d="M0 0v0v0v0z" />
    <glyph glyph-name="uniFBF8" unicode="&#xfbf8;" arabic-form="initial" 
d="M0 0v0v0v0z" />
    <glyph glyph-name="uniFBF9" unicode="&#xfbf9;" arabic-form="isolated" 
d="M0 0v0v0v0z" />
    <glyph glyph-name="uniFBFA" unicode="&#xfbfa;" arabic-form="final" 
d="M0 0v0v0v0z" />
    <glyph glyph-name="uniFBFB" unicode="&#xfbfb;" arabic-form="initial" 
d="M0 0v0v0v0z" />
    <glyph glyph-name="uniFBFC" unicode="&#x6cc;" arabic-form="isolated" 
d="M0 0v0v0v0z" />
    <glyph glyph-name="uniFBFD" unicode="&#x6cc;" arabic-form="final" 
d="M0 0v0v0v0z" />
    <glyph glyph-name="uniFBFE" unicode="&#x6cc;" arabic-form="initial" 
d="M0 0v0v0v0z" />
    <glyph glyph-name="uniFBFF" unicode="&#x6cc;" arabic-form="medial" 
d="M0 0v0v0v0z" />
    <glyph glyph-name="uniFC00" unicode="&#xfc00;" arabic-form="isolated" 
d="M0 0v0v0v0z" />
    <glyph glyph-name="uniFC01" unicode="&#xfc01;" arabic-form="isolated" 
d="M0 0v0v0v0z" />
    <glyph glyph-name="uniFC02" unicode="&#xfc02;" arabic-form="isolated" 
d="M0 0v0v0v0z" />
    <glyph glyph-name="uniFC03" unicode="&#xfc03;" arabic-form="isolated" 
d="M0 0v0v0v0z" />
    <glyph glyph-name="uniFC04" unicode="&#xfc04;" arabic-form="isolated" 
d="M0 0v0v0v0z" />
    <glyph glyph-name="uniFC05" unicode="&#xfc05;" arabic-form="isolated" 
d="M0 0v0v0v0z" />
    <glyph glyph-name="uniFC06" unicode="&#xfc06;" arabic-form="isolated" 
d="M0 0v0v0v0z" />
    <glyph glyph-name="uniFC07" unicode="&#xfc07;" arabic-form="isolated" 
d="M0 0v0v0v0z" />
    <glyph glyph-name="uniFC08" unicode="&#xfc08;" arabic-form="isolated" 
d="M0 0v0v0v0z" />
    <glyph glyph-name="uniFC09" unicode="&#xfc09;" arabic-form="isolated" 
d="M0 0v0v0v0z" />
    <glyph glyph-name="uniFC0A" unicode="&#xfc0a;" arabic-form="isolated" 
d="M0 0v0v0v0z" />
    <glyph glyph-name="uniFC0B" unicode="&#xfc0b;" arabic-form="isolated" 
d="M0 0v0v0v0z" />
    <glyph glyph-name="uniFC0C" unicode="&#xfc0c;" arabic-form="isolated" 
d="M0 0v0v0v0z" />
    <glyph glyph-name="uniFC0D" unicode="&#xfc0d;" arabic-form="isolated" 
d="M0 0v0v0v0z" />
    <glyph glyph-name="uniFC0E" unicode="&#xfc0e;" arabic-form="isolated" 
d="M0 0v0v0v0z" />
    <glyph glyph-name="uniFC0F" unicode="&#xfc0f;" arabic-form="isolated" 
d="M0 0v0v0v0z" />
    <glyph glyph-name="uniFC10" unicode="&#xfc10;" arabic-form="isolated" 
d="M0 0v0v0v0z" />
    <glyph glyph-name="uniFC11" unicode="&#xfc11;" arabic-form="isolated" 
d="M0 0v0v0v0z" />
    <glyph glyph-name="uniFC12" unicode="&#xfc12;" arabic-form="isolated" 
d="M0 0v0v0v0z" />
    <glyph glyph-name="uniFC13" unicode="&#xfc13;" arabic-form="isolated" 
d="M0 0v0v0v0z" />
    <glyph glyph-name="uniFC14" unicode="&#xfc14;" arabic-form="isolated" 
d="M0 0v0v0v0z" />
    <glyph glyph-name="uniFC15" unicode="&#xfc15;" arabic-form="isolated" 
d="M0 0v0v0v0z" />
    <glyph glyph-name="uniFC16" unicode="&#xfc16;" arabic-form="isolated" 
d="M0 0v0v0v0z" />
    <glyph glyph-name="uniFC17" unicode="&#xfc17;" arabic-form="isolated" 
d="M0 0v0v0v0z" />
    <glyph glyph-name="uniFC18" unicode="&#xfc18;" arabic-form="isolated" 
d="M0 0v0v0v0z" />
    <glyph glyph-name="uniFC19" unicode="&#xfc19;" arabic-form="isolated" 
d="M0 0v0v0v0z" />
    <glyph glyph-name="uniFC1A" unicode="&#xfc1a;" arabic-form="isolated" 
d="M0 0v0v0v0z" />
    <glyph glyph-name="uniFC1B" unicode="&#xfc1b;" arabic-form="isolated" 
d="M0 0v0v0v0z" />
    <glyph glyph-name="uniFC1C" unicode="&#xfc1c;" arabic-form="isolated" 
d="M0 0v0v0v0z" />
    <glyph glyph-name="uniFC1D" unicode="&#xfc1d;" arabic-form="isolated" 
d="M0 0v0v0v0z" />
    <glyph glyph-name="uniFC1E" unicode="&#xfc1e;" arabic-form="isolated" 
d="M0 0v0v0v0z" />
    <glyph glyph-name="uniFC1F" unicode="&#xfc1f;" arabic-form="isolated" 
d="M0 0v0v0v0z" />
    <glyph glyph-name="uniFC20" unicode="&#xfc20;" arabic-form="isolated" 
d="M0 0v0v0v0z" />
    <glyph glyph-name="uniFC21" unicode="&#xfc21;" arabic-form="isolated" 
d="M0 0v0v0v0z" />
    <glyph glyph-name="uniFC22" unicode="&#xfc22;" arabic-form="isolated" 
d="M0 0v0v0v0z" />
    <glyph glyph-name="uniFC23" unicode="&#xfc23;" arabic-form="isolated" 
d="M0 0v0v0v0z" />
    <glyph glyph-name="uniFC24" unicode="&#xfc24;" arabic-form="isolated" 
d="M0 0v0v0v0z" />
    <glyph glyph-name="uniFC25" unicode="&#xfc25;" arabic-form="isolated" 
d="M0 0v0v0v0z" />
    <glyph glyph-name="uniFC26" unicode="&#xfc26;" arabic-form="isolated" 
d="M0 0v0v0v0z" />
    <glyph glyph-name="uniFC27" unicode="&#xfc27;" arabic-form="isolated" 
d="M0 0v0v0v0z" />
    <glyph glyph-name="uniFC28" unicode="&#xfc28;" arabic-form="isolated" 
d="M0 0v0v0v0z" />
    <glyph glyph-name="uniFC29" unicode="&#xfc29;" arabic-form="isolated" 
d="M0 0v0v0v0z" />
    <glyph glyph-name="uniFC2A" unicode="&#xfc2a;" arabic-form="isolated" 
d="M0 0v0v0v0z" />
    <glyph glyph-name="uniFC2B" unicode="&#xfc2b;" arabic-form="isolated" 
d="M0 0v0v0v0z" />
    <glyph glyph-name="uniFC2C" unicode="&#xfc2c;" arabic-form="isolated" 
d="M0 0v0v0v0z" />
    <glyph glyph-name="uniFC2D" unicode="&#xfc2d;" arabic-form="isolated" 
d="M0 0v0v0v0z" />
    <glyph glyph-name="uniFC2E" unicode="&#xfc2e;" arabic-form="isolated" 
d="M0 0v0v0v0z" />
    <glyph glyph-name="uniFC2F" unicode="&#xfc2f;" arabic-form="isolated" 
d="M0 0v0v0v0z" />
    <glyph glyph-name="uniFC30" unicode="&#xfc30;" arabic-form="isolated" 
d="M0 0v0v0v0z" />
    <glyph glyph-name="uniFC31" unicode="&#xfc31;" arabic-form="isolated" 
d="M0 0v0v0v0z" />
    <glyph glyph-name="uniFC32" unicode="&#xfc32;" arabic-form="isolated" 
d="M0 0v0v0v0z" />
    <glyph glyph-name="uniFC33" unicode="&#xfc33;" arabic-form="isolated" 
d="M0 0v0v0v0z" />
    <glyph glyph-name="uniFC34" unicode="&#xfc34;" arabic-form="isolated" 
d="M0 0v0v0v0z" />
    <glyph glyph-name="uniFC35" unicode="&#xfc35;" arabic-form="isolated" 
d="M0 0v0v0v0z" />
    <glyph glyph-name="uniFC36" unicode="&#xfc36;" arabic-form="isolated" 
d="M0 0v0v0v0z" />
    <glyph glyph-name="uniFC37" unicode="&#xfc37;" arabic-form="isolated" 
d="M0 0v0v0v0z" />
    <glyph glyph-name="uniFC38" unicode="&#xfc38;" arabic-form="isolated" 
d="M0 0v0v0v0z" />
    <glyph glyph-name="uniFC39" unicode="&#xfc39;" arabic-form="isolated" 
d="M0 0v0v0v0z" />
    <glyph glyph-name="uniFC3A" unicode="&#xfc3a;" arabic-form="isolated" 
d="M0 0v0v0v0z" />
    <glyph glyph-name="uniFC3B" unicode="&#xfc3b;" arabic-form="isolated" 
d="M0 0v0v0v0z" />
    <glyph glyph-name="uniFC3C" unicode="&#xfc3c;" arabic-form="isolated" 
d="M0 0v0v0v0z" />
    <glyph glyph-name="uniFC3D" unicode="&#xfc3d;" arabic-form="isolated" 
d="M0 0v0v0v0z" />
    <glyph glyph-name="uniFC3E" unicode="&#xfc3e;" arabic-form="isolated" 
d="M0 0v0v0v0z" />
    <glyph glyph-name="uniFC3F" unicode="&#xfc3f;" arabic-form="isolated" 
d="M0 0v0v0v0z" />
    <glyph glyph-name="uniFC40" unicode="&#xfc40;" arabic-form="isolated" 
d="M0 0v0v0v0z" />
    <glyph glyph-name="uniFC41" unicode="&#xfc41;" arabic-form="isolated" 
d="M0 0v0v0v0z" />
    <glyph glyph-name="uniFC42" unicode="&#xfc42;" arabic-form="isolated" 
d="M0 0v0v0v0z" />
    <glyph glyph-name="uniFC43" unicode="&#xfc43;" arabic-form="isolated" 
d="M0 0v0v0v0z" />
    <glyph glyph-name="uniFC44" unicode="&#xfc44;" arabic-form="isolated" 
d="M0 0v0v0v0z" />
    <glyph glyph-name="uniFC45" unicode="&#xfc45;" arabic-form="isolated" 
d="M0 0v0v0v0z" />
    <glyph glyph-name="uniFC46" unicode="&#xfc46;" arabic-form="isolated" 
d="M0 0v0v0v0z" />
    <glyph glyph-name="uniFC47" unicode="&#xfc47;" arabic-form="isolated" 
d="M0 0v0v0v0z" />
    <glyph glyph-name="uniFC48" unicode="&#xfc48;" arabic-form="isolated" 
d="M0 0v0v0v0z" />
    <glyph glyph-name="uniFC49" unicode="&#xfc49;" arabic-form="isolated" 
d="M0 0v0v0v0z" />
    <glyph glyph-name="uniFC4A" unicode="&#xfc4a;" arabic-form="isolated" 
d="M0 0v0v0v0z" />
    <glyph glyph-name="uniFC4B" unicode="&#xfc4b;" arabic-form="isolated" 
d="M0 0v0v0v0z" />
    <glyph glyph-name="uniFC4C" unicode="&#xfc4c;" arabic-form="isolated" 
d="M0 0v0v0v0z" />
    <glyph glyph-name="uniFC4D" unicode="&#xfc4d;" arabic-form="isolated" 
d="M0 0v0v0v0z" />
    <glyph glyph-name="uniFC4E" unicode="&#xfc4e;" arabic-form="isolated" 
d="M0 0v0v0v0z" />
    <glyph glyph-name="uniFC4F" unicode="&#xfc4f;" arabic-form="isolated" 
d="M0 0v0v0v0z" />
    <glyph glyph-name="uniFC50" unicode="&#xfc50;" arabic-form="isolated" 
d="M0 0v0v0v0z" />
    <glyph glyph-name="uniFC51" unicode="&#xfc51;" arabic-form="isolated" 
d="M0 0v0v0v0z" />
    <glyph glyph-name="uniFC52" unicode="&#xfc52;" arabic-form="isolated" 
d="M0 0v0v0v0z" />
    <glyph glyph-name="uniFC53" unicode="&#xfc53;" arabic-form="isolated" 
d="M0 0v0v0v0z" />
    <glyph glyph-name="uniFC54" unicode="&#xfc54;" arabic-form="isolated" 
d="M0 0v0v0v0z" />
    <glyph glyph-name="uniFC55" unicode="&#xfc55;" arabic-form="isolated" 
d="M0 0v0v0v0z" />
    <glyph glyph-name="uniFC56" unicode="&#xfc56;" arabic-form="isolated" 
d="M0 0v0v0v0z" />
    <glyph glyph-name="uniFC57" unicode="&#xfc57;" arabic-form="isolated" 
d="M0 0v0v0v0z" />
    <glyph glyph-name="uniFC58" unicode="&#xfc58;" arabic-form="isolated" 
d="M0 0v0v0v0z" />
    <glyph glyph-name="uniFC59" unicode="&#xfc59;" arabic-form="isolated" 
d="M0 0v0v0v0z" />
    <glyph glyph-name="uniFC5A" unicode="&#xfc5a;" arabic-form="isolated" 
d="M0 0v0v0v0z" />
    <glyph glyph-name="uniFC5B" unicode="&#xfc5b;" arabic-form="isolated" 
d="M0 0v0v0v0z" />
    <glyph glyph-name="uniFC5C" unicode="&#xfc5c;" arabic-form="isolated" 
d="M0 0v0v0v0z" />
    <glyph glyph-name="uniFC5D" unicode="&#xfc5d;" arabic-form="isolated" 
d="M0 0v0v0v0z" />
    <glyph glyph-name="uniFC5E" unicode="&#xfc5e;" arabic-form="isolated" 
d="M0 0v0v0v0z" />
    <glyph glyph-name="uniFC5F" unicode="&#xfc5f;" arabic-form="isolated" 
d="M0 0v0v0v0z" />
    <glyph glyph-name="uniFC60" unicode="&#xfc60;" arabic-form="isolated" 
d="M0 0v0v0v0z" />
    <glyph glyph-name="uniFC61" unicode="&#xfc61;" arabic-form="isolated" 
d="M0 0v0v0v0z" />
    <glyph glyph-name="uniFC62" unicode="&#xfc62;" arabic-form="isolated" 
d="M0 0v0v0v0z" />
    <glyph glyph-name="uniFC63" unicode="&#xfc63;" arabic-form="isolated" 
d="M0 0v0v0v0z" />
    <glyph glyph-name="uniFC64" unicode="&#xfc64;" arabic-form="final" 
d="M0 0v0v0v0z" />
    <glyph glyph-name="uniFC65" unicode="&#xfc65;" arabic-form="final" 
d="M0 0v0v0v0z" />
    <glyph glyph-name="uniFC66" unicode="&#xfc66;" arabic-form="final" 
d="M0 0v0v0v0z" />
    <glyph glyph-name="uniFC67" unicode="&#xfc67;" arabic-form="final" 
d="M0 0v0v0v0z" />
    <glyph glyph-name="uniFC68" unicode="&#xfc68;" arabic-form="final" 
d="M0 0v0v0v0z" />
    <glyph glyph-name="uniFC69" unicode="&#xfc69;" arabic-form="final" 
d="M0 0v0v0v0z" />
    <glyph glyph-name="uniFC6A" unicode="&#xfc6a;" arabic-form="final" 
d="M0 0v0v0v0z" />
    <glyph glyph-name="uniFC6B" unicode="&#xfc6b;" arabic-form="final" 
d="M0 0v0v0v0z" />
    <glyph glyph-name="uniFC6C" unicode="&#xfc6c;" arabic-form="final" 
d="M0 0v0v0v0z" />
    <glyph glyph-name="uniFC6D" unicode="&#xfc6d;" arabic-form="final" 
d="M0 0v0v0v0z" />
    <glyph glyph-name="uniFC6E" unicode="&#xfc6e;" arabic-form="final" 
d="M512 608q-39 0 -68 -21t-29 -63q0 -20 8.5 -35t22.5 -24q-19 -12 -30 -30t-11 -39q0 -40 28.5 -63t78.5 -23q49 0 78 23t29 63q0 21 -11 39t-31 30q15 10 23 24.5t8 34.5q0 42 -28.5 63t-67.5 21v0zM512 487q-17 0 -27.5 9t-10.5 25t10.5 25t27.5 9t27.5 -9t10.5 -25
t-10.5 -25t-27.5 -9zM512 363q-21 0 -35 10t-14 29q0 20 14 30t35 10t35 -10.5t14 -29.5t-14 -29t-35 -10z" />
    <glyph glyph-name="uniFC6F" unicode="&#xfc6f;" arabic-form="final" 
d="M0 0v0v0v0z" />
    <glyph glyph-name="uniFC70" unicode="&#xfc70;" arabic-form="final" 
d="M0 0v0v0v0z" />
    <glyph glyph-name="uniFC71" unicode="&#xfc71;" arabic-form="final" 
d="M0 0v0v0v0z" />
    <glyph glyph-name="uniFC72" unicode="&#xfc72;" arabic-form="final" 
d="M0 0v0v0v0z" />
    <glyph glyph-name="uniFC73" unicode="&#xfc73;" arabic-form="final" 
d="M0 0v0v0v0z" />
    <glyph glyph-name="uniFC74" unicode="&#xfc74;" arabic-form="final" 
d="M0 0v0v0v0z" />
    <glyph glyph-name="uniFC75" unicode="&#xfc75;" arabic-form="final" 
d="M0 0v0v0v0z" />
    <glyph glyph-name="uniFC76" unicode="&#xfc76;" arabic-form="final" 
d="M0 0v0v0v0z" />
    <glyph glyph-name="uniFC77" unicode="&#xfc77;" arabic-form="final" 
d="M0 0v0v0v0z" />
    <glyph glyph-name="uniFC78" unicode="&#xfc78;" arabic-form="final" 
d="M0 0v0v0v0z" />
    <glyph glyph-name="uniFC79" unicode="&#xfc79;" arabic-form="final" 
d="M0 0v0v0v0z" />
    <glyph glyph-name="uniFC7A" unicode="&#xfc7a;" arabic-form="final" 
d="M0 0v0v0v0z" />
    <glyph glyph-name="uniFC7B" unicode="&#xfc7b;" arabic-form="final" 
d="M0 0v0v0v0z" />
    <glyph glyph-name="uniFC7C" unicode="&#xfc7c;" arabic-form="final" 
d="M0 0v0v0v0z" />
    <glyph glyph-name="uniFC7D" unicode="&#xfc7d;" arabic-form="final" 
d="M0 0v0v0v0z" />
    <glyph glyph-name="uniFC7E" unicode="&#xfc7e;" arabic-form="final" 
d="M0 0v0v0v0z" />
    <glyph glyph-name="uniFC7F" unicode="&#xfc7f;" arabic-form="final" 
d="M0 0v0v0v0z" />
    <glyph glyph-name="uniFC80" unicode="&#xfc80;" arabic-form="final" 
d="M0 0v0v0v0z" />
    <glyph glyph-name="uniFC81" unicode="&#xfc81;" arabic-form="final" 
d="M0 0v0v0v0z" />
    <glyph glyph-name="uniFC82" unicode="&#xfc82;" arabic-form="final" 
d="M0 0v0v0v0z" />
    <glyph glyph-name="uniFC83" unicode="&#xfc83;" arabic-form="final" 
d="M0 0v0v0v0z" />
    <glyph glyph-name="uniFC84" unicode="&#xfc84;" arabic-form="final" 
d="M0 0v0v0v0z" />
    <glyph glyph-name="uniFC85" unicode="&#xfc85;" arabic-form="final" 
d="M0 0v0v0v0z" />
    <glyph glyph-name="uniFC86" unicode="&#xfc86;" arabic-form="final" 
d="M0 0v0v0v0z" />
    <glyph glyph-name="uniFC87" unicode="&#xfc87;" arabic-form="final" 
d="M0 0v0v0v0z" />
    <glyph glyph-name="uniFC88" unicode="&#xfc88;" arabic-form="final" 
d="M0 0v0v0v0z" />
    <glyph glyph-name="uniFC89" unicode="&#xfc89;" arabic-form="final" 
d="M0 0v0v0v0z" />
    <glyph glyph-name="uniFC8A" unicode="&#xfc8a;" arabic-form="final" 
d="M0 0v0v0v0z" />
    <glyph glyph-name="uniFC8B" unicode="&#xfc8b;" arabic-form="final" 
d="M0 0v0v0v0z" />
    <glyph glyph-name="uniFC8C" unicode="&#xfc8c;" arabic-form="final" 
d="M0 0v0v0v0z" />
    <glyph glyph-name="uniFC8D" unicode="&#xfc8d;" arabic-form="final" 
d="M0 0v0v0v0z" />
    <glyph glyph-name="uniFC8E" unicode="&#xfc8e;" arabic-form="final" 
d="M0 0v0v0v0z" />
    <glyph glyph-name="uniFC8F" unicode="&#xfc8f;" arabic-form="final" 
d="M0 0v0v0v0z" />
    <glyph glyph-name="uniFC90" unicode="&#xfc90;" arabic-form="final" 
d="M0 0v0v0v0z" />
    <glyph glyph-name="uniFC91" unicode="&#xfc91;" arabic-form="final" 
d="M0 0v0v0v0z" />
    <glyph glyph-name="uniFC92" unicode="&#xfc92;" arabic-form="final" 
d="M0 0v0v0v0z" />
    <glyph glyph-name="uniFC93" unicode="&#xfc93;" arabic-form="final" 
d="M0 0v0v0v0z" />
    <glyph glyph-name="uniFC94" unicode="&#xfc94;" arabic-form="final" 
d="M0 0v0v0v0z" />
    <glyph glyph-name="uniFC95" unicode="&#xfc95;" arabic-form="final" 
d="M0 0v0v0v0z" />
    <glyph glyph-name="uniFC96" unicode="&#xfc96;" arabic-form="final" 
d="M0 0v0v0v0z" />
    <glyph glyph-name="uniFC97" unicode="&#xfc97;" arabic-form="initial" 
d="M0 0v0v0v0z" />
    <glyph glyph-name="uniFC98" unicode="&#xfc98;" arabic-form="initial" 
d="M0 0v0v0v0z" />
    <glyph glyph-name="uniFC99" unicode="&#xfc99;" arabic-form="initial" 
d="M0 0v0v0v0z" />
    <glyph glyph-name="uniFC9A" unicode="&#xfc9a;" arabic-form="initial" 
d="M0 0v0v0v0z" />
    <glyph glyph-name="uniFC9B" unicode="&#xfc9b;" arabic-form="initial" 
d="M0 0v0v0v0z" />
    <glyph glyph-name="uniFC9C" unicode="&#xfc9c;" arabic-form="initial" 
d="M0 0v0v0v0z" />
    <glyph glyph-name="uniFC9D" unicode="&#xfc9d;" arabic-form="initial" 
d="M0 0v0v0v0z" />
    <glyph glyph-name="uniFC9E" unicode="&#xfc9e;" arabic-form="initial" 
d="M0 0v0v0v0z" />
    <glyph glyph-name="uniFC9F" unicode="&#xfc9f;" arabic-form="initial" 
d="M0 0v0v0v0z" />
    <glyph glyph-name="uniFCA0" unicode="&#xfca0;" arabic-form="initial" 
d="M0 0v0v0v0z" />
    <glyph glyph-name="uniFCA1" unicode="&#xfca1;" arabic-form="initial" 
d="M0 0v0v0v0z" />
    <glyph glyph-name="uniFCA2" unicode="&#xfca2;" arabic-form="initial" 
d="M0 0v0v0v0z" />
    <glyph glyph-name="uniFCA3" unicode="&#xfca3;" arabic-form="initial" 
d="M0 0v0v0v0z" />
    <glyph glyph-name="uniFCA4" unicode="&#xfca4;" arabic-form="initial" 
d="M0 0v0v0v0z" />
    <glyph glyph-name="uniFCA5" unicode="&#xfca5;" arabic-form="initial" 
d="M0 0v0v0v0z" />
    <glyph glyph-name="uniFCA6" unicode="&#xfca6;" arabic-form="initial" 
d="M0 0v0v0v0z" />
    <glyph glyph-name="uniFCA7" unicode="&#xfca7;" arabic-form="initial" 
d="M0 0v0v0v0z" />
    <glyph glyph-name="uniFCA8" unicode="&#xfca8;" arabic-form="initial" 
d="M0 0v0v0v0z" />
    <glyph glyph-name="uniFCA9" unicode="&#xfca9;" arabic-form="initial" 
d="M0 0v0v0v0z" />
    <glyph glyph-name="uniFCAA" unicode="&#xfcaa;" arabic-form="initial" 
d="M0 0v0v0v0z" />
    <glyph glyph-name="uniFCAB" unicode="&#xfcab;" arabic-form="initial" 
d="M0 0v0v0v0z" />
    <glyph glyph-name="uniFCAC" unicode="&#xfcac;" arabic-form="initial" 
d="M0 0v0v0v0z" />
    <glyph glyph-name="uniFCAD" unicode="&#xfcad;" arabic-form="initial" 
d="M0 0v0v0v0z" />
    <glyph glyph-name="uniFCAE" unicode="&#xfcae;" arabic-form="initial" 
d="M0 0v0v0v0z" />
    <glyph glyph-name="uniFCAF" unicode="&#xfcaf;" arabic-form="initial" 
d="M0 0v0v0v0z" />
    <glyph glyph-name="uniFCB0" unicode="&#xfcb0;" arabic-form="initial" 
d="M0 0v0v0v0z" />
    <glyph glyph-name="uniFCB1" unicode="&#xfcb1;" arabic-form="initial" 
d="M0 0v0v0v0z" />
    <glyph glyph-name="uniFCB2" unicode="&#xfcb2;" arabic-form="initial" 
d="M0 0v0v0v0z" />
    <glyph glyph-name="uniFCB3" unicode="&#xfcb3;" arabic-form="initial" 
d="M0 0v0v0v0z" />
    <glyph glyph-name="uniFCB4" unicode="&#xfcb4;" arabic-form="initial" 
d="M0 0v0v0v0z" />
    <glyph glyph-name="uniFCB5" unicode="&#xfcb5;" arabic-form="initial" 
d="M0 0v0v0v0z" />
    <glyph glyph-name="uniFCB6" unicode="&#xfcb6;" arabic-form="initial" 
d="M0 0v0v0v0z" />
    <glyph glyph-name="uniFCB7" unicode="&#xfcb7;" arabic-form="initial" 
d="M0 0v0v0v0z" />
    <glyph glyph-name="uniFCB8" unicode="&#xfcb8;" arabic-form="initial" 
d="M0 0v0v0v0z" />
    <glyph glyph-name="uniFCB9" unicode="&#xfcb9;" arabic-form="initial" 
d="M0 0v0v0v0z" />
    <glyph glyph-name="uniFCBA" unicode="&#xfcba;" arabic-form="initial" 
d="M0 0v0v0v0z" />
    <glyph glyph-name="uniFCBB" unicode="&#xfcbb;" arabic-form="initial" 
d="M0 0v0v0v0z" />
    <glyph glyph-name="uniFCBC" unicode="&#xfcbc;" arabic-form="initial" 
d="M0 0v0v0v0z" />
    <glyph glyph-name="uniFCBD" unicode="&#xfcbd;" arabic-form="initial" 
d="M0 0v0v0v0z" />
    <glyph glyph-name="uniFCBE" unicode="&#xfcbe;" arabic-form="initial" 
d="M0 0v0v0v0z" />
    <glyph glyph-name="uniFCBF" unicode="&#xfcbf;" arabic-form="initial" 
d="M0 0v0v0v0z" />
    <glyph glyph-name="uniFCC0" unicode="&#xfcc0;" arabic-form="initial" 
d="M0 0v0v0v0z" />
    <glyph glyph-name="uniFCC1" unicode="&#xfcc1;" arabic-form="initial" 
d="M0 0v0v0v0z" />
    <glyph glyph-name="uniFCC2" unicode="&#xfcc2;" arabic-form="initial" 
d="M0 0v0v0v0z" />
    <glyph glyph-name="uniFCC3" unicode="&#xfcc3;" arabic-form="initial" 
d="M0 0v0v0v0z" />
    <glyph glyph-name="uniFCC4" unicode="&#xfcc4;" arabic-form="initial" 
d="M0 0v0v0v0z" />
    <glyph glyph-name="uniFCC5" unicode="&#xfcc5;" arabic-form="initial" 
d="M0 0v0v0v0z" />
    <glyph glyph-name="uniFCC6" unicode="&#xfcc6;" arabic-form="initial" 
d="M0 0v0v0v0z" />
    <glyph glyph-name="uniFCC7" unicode="&#xfcc7;" arabic-form="initial" 
d="M0 0v0v0v0z" />
    <glyph glyph-name="uniFCC8" unicode="&#xfcc8;" arabic-form="initial" 
d="M0 0v0v0v0z" />
    <glyph glyph-name="uniFCC9" unicode="&#xfcc9;" arabic-form="initial" 
d="M0 0v0v0v0z" />
    <glyph glyph-name="uniFCCA" unicode="&#xfcca;" arabic-form="initial" 
d="M0 0v0v0v0z" />
    <glyph glyph-name="uniFCCB" unicode="&#xfccb;" arabic-form="initial" 
d="M0 0v0v0v0z" />
    <glyph glyph-name="uniFCCC" unicode="&#xfccc;" arabic-form="initial" 
d="M0 0v0v0v0z" />
    <glyph glyph-name="uniFCCD" unicode="&#xfccd;" arabic-form="initial" 
d="M0 0v0v0v0z" />
    <glyph glyph-name="uniFCCE" unicode="&#xfcce;" arabic-form="initial" 
d="M0 0v0v0v0z" />
    <glyph glyph-name="uniFCCF" unicode="&#xfccf;" arabic-form="initial" 
d="M0 0v0v0v0z" />
    <glyph glyph-name="uniFCD0" unicode="&#xfcd0;" arabic-form="initial" 
d="M0 0v0v0v0z" />
    <glyph glyph-name="uniFCD1" unicode="&#xfcd1;" arabic-form="initial" 
d="M0 0v0v0v0z" />
    <glyph glyph-name="uniFCD2" unicode="&#xfcd2;" arabic-form="initial" 
d="M0 0v0v0v0z" />
    <glyph glyph-name="uniFCD3" unicode="&#xfcd3;" arabic-form="initial" 
d="M0 0v0v0v0z" />
    <glyph glyph-name="uniFCD4" unicode="&#xfcd4;" arabic-form="initial" 
d="M0 0v0v0v0z" />
    <glyph glyph-name="uniFCD5" unicode="&#xfcd5;" arabic-form="initial" 
d="M533 747v-555q0 -35 25 -60t61 -25h64z" />
    <glyph glyph-name="uniFCD6" unicode="&#xfcd6;" arabic-form="initial" 
d="M0 0v0v0v0z" />
    <glyph glyph-name="uniFCD7" unicode="&#xfcd7;" arabic-form="initial" 
d="M0 0v0v0v0z" />
    <glyph glyph-name="uniFCD8" unicode="&#xfcd8;" arabic-form="initial" 
d="M0 0v0v0v0z" />
    <glyph glyph-name="uniFCD9" unicode="&#xfcd9;" arabic-form="initial" 
d="M0 0v0v0v0z" />
    <glyph glyph-name="uniFCDA" unicode="&#xfcda;" arabic-form="initial" 
d="M0 0v0v0v0z" />
    <glyph glyph-name="uniFCDB" unicode="&#xfcdb;" arabic-form="initial" 
d="M0 0v0v0v0z" />
    <glyph glyph-name="uniFCDC" unicode="&#xfcdc;" arabic-form="initial" 
d="M0 0v0v0v0z" />
    <glyph glyph-name="uniFCDD" unicode="&#xfcdd;" arabic-form="initial" 
d="M0 0v0v0v0z" />
    <glyph glyph-name="uniFCDE" unicode="&#xfcde;" arabic-form="initial" 
d="M0 0v0v0v0z" />
    <glyph glyph-name="uniFCDF" unicode="&#xfcdf;" arabic-form="medial" 
d="M0 0v0v0v0z" />
    <glyph glyph-name="uniFCE0" unicode="&#xfce0;" arabic-form="medial" 
d="M0 0v0v0v0z" />
    <glyph glyph-name="uniFCE1" unicode="&#xfce1;" arabic-form="medial" 
d="M0 0v0v0v0z" />
    <glyph glyph-name="uniFCE2" unicode="&#xfce2;" arabic-form="medial" 
d="M0 0v0v0v0z" />
    <glyph glyph-name="uniFCE3" unicode="&#xfce3;" arabic-form="medial" 
d="M0 0v0v0v0z" />
    <glyph glyph-name="uniFCE4" unicode="&#xfce4;" arabic-form="medial" 
d="M0 0v0v0v0z" />
    <glyph glyph-name="uniFCE5" unicode="&#xfce5;" arabic-form="medial" 
d="M0 0v0v0v0z" />
    <glyph glyph-name="uniFCE6" unicode="&#xfce6;" arabic-form="medial" 
d="M0 0v0v0v0z" />
    <glyph glyph-name="uniFCE7" unicode="&#xfce7;" arabic-form="medial" 
d="M0 0v0v0v0z" />
    <glyph glyph-name="uniFCE8" unicode="&#xfce8;" arabic-form="medial" 
d="M0 0v0v0v0z" />
    <glyph glyph-name="uniFCE9" unicode="&#xfce9;" arabic-form="medial" 
d="M0 0v0v0v0z" />
    <glyph glyph-name="uniFCEA" unicode="&#xfcea;" arabic-form="medial" 
d="M0 0v0v0v0z" />
    <glyph glyph-name="uniFCEB" unicode="&#xfceb;" arabic-form="medial" 
d="M0 0v0v0v0z" />
    <glyph glyph-name="uniFCEC" unicode="&#xfcec;" arabic-form="medial" 
d="M0 0v0v0v0z" />
    <glyph glyph-name="uniFCED" unicode="&#xfced;" arabic-form="medial" 
d="M0 0v0v0v0z" />
    <glyph glyph-name="uniFCEE" unicode="&#xfcee;" arabic-form="medial" 
d="M0 0v0v0v0z" />
    <glyph glyph-name="uniFCEF" unicode="&#xfcef;" arabic-form="medial" 
d="M0 0v0v0v0z" />
    <glyph glyph-name="uniFCF0" unicode="&#xfcf0;" arabic-form="medial" 
d="M0 0v0v0v0z" />
    <glyph glyph-name="uniFCF1" unicode="&#xfcf1;" arabic-form="medial" 
d="M0 0v0v0v0z" />
    <glyph glyph-name="uniFCF2" unicode="&#xfcf2;" arabic-form="medial" 
d="M0 0v0v0v0z" />
    <glyph glyph-name="uniFCF3" unicode="&#xfcf3;" arabic-form="medial" 
d="M0 0v0v0v0z" />
    <glyph glyph-name="uniFCF4" unicode="&#xfcf4;" arabic-form="medial" 
d="M0 0v0v0v0z" />
    <glyph glyph-name="uniFCF5" unicode="&#xfcf5;" arabic-form="isolated" 
d="M0 0v0v0v0z" />
    <glyph glyph-name="uniFCF6" unicode="&#xfcf6;" arabic-form="isolated" 
d="M0 0v0v0v0z" />
    <glyph glyph-name="uniFCF7" unicode="&#xfcf7;" arabic-form="isolated" 
d="M0 0v0v0v0z" />
    <glyph glyph-name="uniFCF8" unicode="&#xfcf8;" arabic-form="isolated" 
d="M0 0v0v0v0z" />
    <glyph glyph-name="uniFCF9" unicode="&#xfcf9;" arabic-form="isolated" 
d="M0 0v0v0v0z" />
    <glyph glyph-name="uniFCFA" unicode="&#xfcfa;" arabic-form="isolated" 
d="M0 0v0v0v0z" />
    <glyph glyph-name="uniFCFB" unicode="&#xfcfb;" arabic-form="isolated" 
d="M0 0v0v0v0z" />
    <glyph glyph-name="uniFCFC" unicode="&#xfcfc;" arabic-form="isolated" 
d="M0 0v0v0v0z" />
    <glyph glyph-name="uniFCFD" unicode="&#xfcfd;" arabic-form="isolated" 
d="M0 0v0v0v0z" />
    <glyph glyph-name="uniFCFE" unicode="&#xfcfe;" arabic-form="isolated" 
d="M0 0v0v0v0z" />
    <glyph glyph-name="uniFCFF" unicode="&#xfcff;" arabic-form="isolated" 
d="M0 0v0v0v0z" />
    <glyph glyph-name="uniFD00" unicode="&#xfd00;" arabic-form="isolated" 
d="M0 0v0v0v0z" />
    <glyph glyph-name="uniFD01" unicode="&#xfd01;" arabic-form="isolated" 
d="M0 0v0v0v0z" />
    <glyph glyph-name="uniFD02" unicode="&#xfd02;" arabic-form="isolated" 
d="M0 0v0v0v0z" />
    <glyph glyph-name="uniFD03" unicode="&#xfd03;" arabic-form="isolated" 
d="M0 0v0v0v0z" />
    <glyph glyph-name="uniFD04" unicode="&#xfd04;" arabic-form="isolated" 
d="M0 0v0v0v0z" />
    <glyph glyph-name="uniFD05" unicode="&#xfd05;" arabic-form="isolated" 
d="M0 0v0v0v0z" />
    <glyph glyph-name="uniFD06" unicode="&#xfd06;" arabic-form="isolated" 
d="M0 0v0v0v0z" />
    <glyph glyph-name="uniFD07" unicode="&#xfd07;" arabic-form="isolated" 
d="M0 0v0v0v0z" />
    <glyph glyph-name="uniFD08" unicode="&#xfd08;" arabic-form="isolated" 
d="M0 0v0v0v0z" />
    <glyph glyph-name="uniFD09" unicode="&#xfd09;" arabic-form="isolated" 
d="M0 0v0v0v0z" />
    <glyph glyph-name="uniFD0A" unicode="&#xfd0a;" arabic-form="isolated" 
d="M0 0v0v0v0z" />
    <glyph glyph-name="uniFD0B" unicode="&#xfd0b;" arabic-form="isolated" 
d="M0 0v0v0v0z" />
    <glyph glyph-name="uniFD0C" unicode="&#xfd0c;" arabic-form="isolated" 
d="M0 0v0v0v0z" />
    <glyph glyph-name="uniFD0D" unicode="&#xfd0d;" arabic-form="isolated" 
d="M0 0v0v0v0z" />
    <glyph glyph-name="uniFD0E" unicode="&#xfd0e;" arabic-form="isolated" 
d="M0 0v0v0v0z" />
    <glyph glyph-name="uniFD0F" unicode="&#xfd0f;" arabic-form="isolated" 
d="M0 0v0v0v0z" />
    <glyph glyph-name="uniFD10" unicode="&#xfd10;" arabic-form="isolated" 
d="M0 0v0v0v0z" />
    <glyph glyph-name="uniFD11" unicode="&#xfd11;" arabic-form="final" 
d="M0 0v0v0v0z" />
    <glyph glyph-name="uniFD12" unicode="&#xfd12;" arabic-form="final" 
d="M0 0v0v0v0z" />
    <glyph glyph-name="uniFD13" unicode="&#xfd13;" arabic-form="final" 
d="M0 0v0v0v0z" />
    <glyph glyph-name="uniFD14" unicode="&#xfd14;" arabic-form="final" 
d="M0 0v0v0v0z" />
    <glyph glyph-name="uniFD15" unicode="&#xfd15;" arabic-form="final" 
d="M0 0v0v0v0z" />
    <glyph glyph-name="uniFD16" unicode="&#xfd16;" arabic-form="final" 
d="M0 0v0v0v0z" />
    <glyph glyph-name="uniFD17" unicode="&#xfd17;" arabic-form="final" 
d="M0 0v0v0v0z" />
    <glyph glyph-name="uniFD18" unicode="&#xfd18;" arabic-form="final" 
d="M0 0v0v0v0z" />
    <glyph glyph-name="uniFD19" unicode="&#xfd19;" arabic-form="final" 
d="M0 0v0v0v0z" />
    <glyph glyph-name="uniFD1A" unicode="&#xfd1a;" arabic-form="final" 
d="M0 0v0v0v0z" />
    <glyph glyph-name="uniFD1B" unicode="&#xfd1b;" arabic-form="final" 
d="M0 0v0v0v0z" />
    <glyph glyph-name="uniFD1C" unicode="&#xfd1c;" arabic-form="final" 
d="M0 0v0v0v0z" />
    <glyph glyph-name="uniFD1D" unicode="&#xfd1d;" arabic-form="final" 
d="M0 0v0v0v0z" />
    <glyph glyph-name="uniFD1E" unicode="&#xfd1e;" arabic-form="final" 
d="M0 0v0v0v0z" />
    <glyph glyph-name="uniFD1F" unicode="&#xfd1f;" arabic-form="final" 
d="M0 0v0v0v0z" />
    <glyph glyph-name="uniFD20" unicode="&#xfd20;" arabic-form="final" 
d="M0 0v0v0v0z" />
    <glyph glyph-name="uniFD21" unicode="&#xfd21;" arabic-form="final" 
d="M0 0v0v0v0z" />
    <glyph glyph-name="uniFD22" unicode="&#xfd22;" arabic-form="final" 
d="M0 0v0v0v0z" />
    <glyph glyph-name="uniFD23" unicode="&#xfd23;" arabic-form="final" 
d="M0 0v0v0v0z" />
    <glyph glyph-name="uniFD24" unicode="&#xfd24;" arabic-form="final" 
d="M0 0v0v0v0z" />
    <glyph glyph-name="uniFD25" unicode="&#xfd25;" arabic-form="final" 
d="M0 0v0v0v0z" />
    <glyph glyph-name="uniFD26" unicode="&#xfd26;" arabic-form="final" 
d="M0 0v0v0v0z" />
    <glyph glyph-name="uniFD27" unicode="&#xfd27;" arabic-form="final" 
d="M0 0v0v0v0z" />
    <glyph glyph-name="uniFD28" unicode="&#xfd28;" arabic-form="final" 
d="M0 0v0v0v0z" />
    <glyph glyph-name="uniFD29" unicode="&#xfd29;" arabic-form="final" 
d="M0 0v0v0v0z" />
    <glyph glyph-name="uniFD2A" unicode="&#xfd2a;" arabic-form="final" 
d="M0 0v0v0v0z" />
    <glyph glyph-name="uniFD2B" unicode="&#xfd2b;" arabic-form="final" 
d="M0 0v0v0v0z" />
    <glyph glyph-name="uniFD2C" unicode="&#xfd2c;" arabic-form="final" 
d="M0 0v0v0v0z" />
    <glyph glyph-name="uniFD2D" unicode="&#xfd2d;" arabic-form="initial" 
d="M0 0v0v0v0z" />
    <glyph glyph-name="uniFD2E" unicode="&#xfd2e;" arabic-form="initial" 
d="M0 0v0v0v0z" />
    <glyph glyph-name="uniFD2F" unicode="&#xfd2f;" arabic-form="initial" 
d="M0 0v0v0v0z" />
    <glyph glyph-name="uniFD30" unicode="&#xfd30;" arabic-form="initial" 
d="M0 0v0v0v0z" />
    <glyph glyph-name="uniFD31" unicode="&#xfd31;" arabic-form="initial" 
d="M0 0v0v0v0z" />
    <glyph glyph-name="uniFD32" unicode="&#xfd32;" arabic-form="initial" 
d="M0 0v0v0v0z" />
    <glyph glyph-name="uniFD33" unicode="&#xfd33;" arabic-form="initial" 
d="M0 0v0v0v0z" />
    <glyph glyph-name="uniFD34" unicode="&#xfd34;" arabic-form="medial" 
d="M0 0v0v0v0z" />
    <glyph glyph-name="uniFD35" unicode="&#xfd35;" arabic-form="medial" 
d="M0 0v0v0v0z" />
    <glyph glyph-name="uniFD36" unicode="&#xfd36;" arabic-form="medial" 
d="M0 0v0v0v0z" />
    <glyph glyph-name="uniFD37" unicode="&#xfd37;" arabic-form="medial" 
d="M0 0v0v0v0z" />
    <glyph glyph-name="uniFD38" unicode="&#xfd38;" arabic-form="medial" 
d="M0 0v0v0v0z" />
    <glyph glyph-name="uniFD39" unicode="&#xfd39;" arabic-form="medial" 
d="M0 0v0v0v0z" />
    <glyph glyph-name="uniFD3A" unicode="&#xfd3a;" arabic-form="medial" 
d="M0 0v0v0v0z" />
    <glyph glyph-name="uniFD3B" unicode="&#xfd3b;" arabic-form="medial" 
d="M0 0v0v0v0z" />
    <glyph glyph-name="uniFD3C" unicode="&#xfd3c;" arabic-form="final" 
d="M0 0v0v0v0z" />
    <glyph glyph-name="uniFD3D" unicode="&#xfd3d;" arabic-form="isolated" 
d="M0 0v0v0v0z" />
    <glyph glyph-name="uniFD50" unicode="&#xfd50;" arabic-form="initial" 
d="M0 0v0v0v0z" />
    <glyph glyph-name="uniFD51" unicode="&#xfd51;" arabic-form="final" 
d="M0 0v0v0v0z" />
    <glyph glyph-name="uniFD52" unicode="&#xfd52;" arabic-form="initial" 
d="M0 0v0v0v0z" />
    <glyph glyph-name="uniFD53" unicode="&#xfd53;" arabic-form="initial" 
d="M0 0v0v0v0z" />
    <glyph glyph-name="uniFD54" unicode="&#xfd54;" arabic-form="initial" 
d="M0 0v0v0v0z" />
    <glyph glyph-name="uniFD55" unicode="&#xfd55;" arabic-form="initial" 
d="M0 0v0v0v0z" />
    <glyph glyph-name="uniFD56" unicode="&#xfd56;" arabic-form="initial" 
d="M0 0v0v0v0z" />
    <glyph glyph-name="uniFD57" unicode="&#xfd57;" arabic-form="initial" 
d="M0 0v0v0v0z" />
    <glyph glyph-name="uniFD58" unicode="&#xfd58;" arabic-form="final" 
d="M0 0v0v0v0z" />
    <glyph glyph-name="uniFD59" unicode="&#xfd59;" arabic-form="initial" 
d="M0 0v0v0v0z" />
    <glyph glyph-name="uniFD5A" unicode="&#xfd5a;" arabic-form="final" 
d="M0 0v0v0v0z" />
    <glyph glyph-name="uniFD5B" unicode="&#xfd5b;" arabic-form="final" 
d="M0 0v0v0v0z" />
    <glyph glyph-name="uniFD5C" unicode="&#xfd5c;" arabic-form="initial" 
d="M0 0v0v0v0z" />
    <glyph glyph-name="uniFD5D" unicode="&#xfd5d;" arabic-form="initial" 
d="M0 0v0v0v0z" />
    <glyph glyph-name="uniFD5E" unicode="&#xfd5e;" arabic-form="final" 
d="M0 0v0v0v0z" />
    <glyph glyph-name="uniFD5F" unicode="&#xfd5f;" arabic-form="final" 
d="M0 0v0v0v0z" />
    <glyph glyph-name="uniFD60" unicode="&#xfd60;" arabic-form="initial" 
d="M0 0v0v0v0z" />
    <glyph glyph-name="uniFD61" unicode="&#xfd61;" arabic-form="initial" 
d="M0 0v0v0v0z" />
    <glyph glyph-name="uniFD62" unicode="&#xfd62;" arabic-form="final" 
d="M0 0v0v0v0z" />
    <glyph glyph-name="uniFD63" unicode="&#xfd63;" arabic-form="initial" 
d="M0 0v0v0v0z" />
    <glyph glyph-name="uniFD64" unicode="&#xfd64;" arabic-form="final" 
d="M0 0v0v0v0z" />
    <glyph glyph-name="uniFD65" unicode="&#xfd65;" arabic-form="initial" 
d="M0 0v0v0v0z" />
    <glyph glyph-name="uniFD66" unicode="&#xfd66;" arabic-form="final" 
d="M0 0v0v0v0z" />
    <glyph glyph-name="uniFD67" unicode="&#xfd67;" arabic-form="final" 
d="M0 0v0v0v0z" />
    <glyph glyph-name="uniFD68" unicode="&#xfd68;" arabic-form="initial" 
d="M0 0v0v0v0z" />
    <glyph glyph-name="uniFD69" unicode="&#xfd69;" arabic-form="final" 
d="M0 0v0v0v0z" />
    <glyph glyph-name="uniFD6A" unicode="&#xfd6a;" arabic-form="final" 
d="M0 0v0v0v0z" />
    <glyph glyph-name="uniFD6B" unicode="&#xfd6b;" arabic-form="initial" 
d="M0 0v0v0v0z" />
    <glyph glyph-name="uniFD6C" unicode="&#xfd6c;" arabic-form="final" 
d="M0 0v0v0v0z" />
    <glyph glyph-name="uniFD6D" unicode="&#xfd6d;" arabic-form="initial" 
d="M0 0v0v0v0z" />
    <glyph glyph-name="uniFD6E" unicode="&#xfd6e;" arabic-form="final" 
d="M0 0v0v0v0z" />
    <glyph glyph-name="uniFD6F" unicode="&#xfd6f;" arabic-form="final" 
d="M0 0v0v0v0z" />
    <glyph glyph-name="uniFD70" unicode="&#xfd70;" arabic-form="initial" 
d="M0 0v0v0v0z" />
    <glyph glyph-name="uniFD71" unicode="&#xfd71;" arabic-form="final" 
d="M0 0v0v0v0z" />
    <glyph glyph-name="uniFD72" unicode="&#xfd72;" arabic-form="initial" 
d="M0 0v0v0v0z" />
    <glyph glyph-name="uniFD73" unicode="&#xfd73;" arabic-form="initial" 
d="M0 0v0v0v0z" />
    <glyph glyph-name="uniFD74" unicode="&#xfd74;" arabic-form="final" 
d="M0 0v0v0v0z" />
    <glyph glyph-name="uniFD75" unicode="&#xfd75;" arabic-form="final" 
d="M0 0v0v0v0z" />
    <glyph glyph-name="uniFD76" unicode="&#xfd76;" arabic-form="final" 
d="M0 0v0v0v0z" />
    <glyph glyph-name="uniFD77" unicode="&#xfd77;" arabic-form="initial" 
d="M0 0v0v0v0z" />
    <glyph glyph-name="uniFD78" unicode="&#xfd78;" arabic-form="final" 
d="M0 0v0v0v0z" />
    <glyph glyph-name="uniFD79" unicode="&#xfd79;" arabic-form="final" 
d="M0 0v0v0v0z" />
    <glyph glyph-name="uniFD7A" unicode="&#xfd7a;" arabic-form="final" 
d="M0 0v0v0v0z" />
    <glyph glyph-name="uniFD7B" unicode="&#xfd7b;" arabic-form="final" 
d="M0 0v0v0v0z" />
    <glyph glyph-name="uniFD7C" unicode="&#xfd7c;" arabic-form="final" 
d="M0 0v0v0v0z" />
    <glyph glyph-name="uniFD7D" unicode="&#xfd7d;" arabic-form="initial" 
d="M0 0v0v0v0z" />
    <glyph glyph-name="uniFD7E" unicode="&#xfd7e;" arabic-form="final" 
d="M0 0v0v0v0z" />
    <glyph glyph-name="uniFD7F" unicode="&#xfd7f;" arabic-form="final" 
d="M0 0v0v0v0z" />
    <glyph glyph-name="uniFD80" unicode="&#xfd80;" arabic-form="final" 
d="M0 0v0v0v0z" />
    <glyph glyph-name="uniFD81" unicode="&#xfd81;" arabic-form="final" 
d="M0 0v0v0v0z" />
    <glyph glyph-name="uniFD82" unicode="&#xfd82;" arabic-form="final" 
d="M0 0v0v0v0z" />
    <glyph glyph-name="uniFD83" unicode="&#xfd83;" arabic-form="initial" 
d="M0 0v0v0v0z" />
    <glyph glyph-name="uniFD84" unicode="&#xfd84;" arabic-form="final" 
d="M0 0v0v0v0z" />
    <glyph glyph-name="uniFD85" unicode="&#xfd85;" arabic-form="final" 
d="M0 0v0v0v0z" />
    <glyph glyph-name="uniFD86" unicode="&#xfd86;" arabic-form="initial" 
d="M0 0v0v0v0z" />
    <glyph glyph-name="uniFD87" unicode="&#xfd87;" arabic-form="final" 
d="M0 0v0v0v0z" />
    <glyph glyph-name="uniFD88" unicode="&#xfd88;" arabic-form="initial" 
d="M0 0v0v0v0z" />
    <glyph glyph-name="uniFD89" unicode="&#xfd89;" arabic-form="initial" 
d="M0 0v0v0v0z" />
    <glyph glyph-name="uniFD8A" unicode="&#xfd8a;" arabic-form="initial" 
d="M0 0v0v0v0z" />
    <glyph glyph-name="uniFD8B" unicode="&#xfd8b;" arabic-form="final" 
d="M0 0v0v0v0z" />
    <glyph glyph-name="uniFD8C" unicode="&#xfd8c;" arabic-form="initial" 
d="M0 0v0v0v0z" />
    <glyph glyph-name="uniFD8D" unicode="&#xfd8d;" arabic-form="initial" 
d="M0 0v0v0v0z" />
    <glyph glyph-name="uniFD8E" unicode="&#xfd8e;" arabic-form="initial" 
d="M0 0v0v0v0z" />
    <glyph glyph-name="uniFD8F" unicode="&#xfd8f;" arabic-form="initial" 
d="M0 0v0v0v0z" />
    <glyph glyph-name="uniFD92" unicode="&#xfd92;" arabic-form="initial" 
d="M0 0v0v0v0z" />
    <glyph glyph-name="uniFD93" unicode="&#xfd93;" arabic-form="initial" 
d="M0 0v0v0v0z" />
    <glyph glyph-name="uniFD94" unicode="&#xfd94;" arabic-form="initial" 
d="M0 0v0v0v0z" />
    <glyph glyph-name="uniFD95" unicode="&#xfd95;" arabic-form="initial" 
d="M0 0v0v0v0z" />
    <glyph glyph-name="uniFD96" unicode="&#xfd96;" arabic-form="final" 
d="M0 0v0v0v0z" />
    <glyph glyph-name="uniFD97" unicode="&#xfd97;" arabic-form="final" 
d="M0 0v0v0v0z" />
    <glyph glyph-name="uniFD98" unicode="&#xfd98;" arabic-form="initial" 
d="M0 0v0v0v0z" />
    <glyph glyph-name="uniFD99" unicode="&#xfd99;" arabic-form="final" 
d="M0 0v0v0v0z" />
    <glyph glyph-name="uniFD9A" unicode="&#xfd9a;" arabic-form="final" 
d="M0 0v0v0v0z" />
    <glyph glyph-name="uniFD9B" unicode="&#xfd9b;" arabic-form="final" 
d="M0 0v0v0v0z" />
    <glyph glyph-name="uniFD9C" unicode="&#xfd9c;" arabic-form="final" 
d="M0 0v0v0v0z" />
    <glyph glyph-name="uniFD9D" unicode="&#xfd9d;" arabic-form="initial" 
d="M0 0v0v0v0z" />
    <glyph glyph-name="uniFD9E" unicode="&#xfd9e;" arabic-form="final" 
d="M0 0v0v0v0z" />
    <glyph glyph-name="uniFD9F" unicode="&#xfd9f;" arabic-form="final" 
d="M0 0v0v0v0z" />
    <glyph glyph-name="uniFDA0" unicode="&#xfda0;" arabic-form="final" 
d="M0 0v0v0v0z" />
    <glyph glyph-name="uniFDA1" unicode="&#xfda1;" arabic-form="final" 
d="M0 0v0v0v0z" />
    <glyph glyph-name="uniFDA2" unicode="&#xfda2;" arabic-form="final" 
d="M0 0v0v0v0z" />
    <glyph glyph-name="uniFDA3" unicode="&#xfda3;" arabic-form="final" 
d="M0 0v0v0v0z" />
    <glyph glyph-name="uniFDA4" unicode="&#xfda4;" arabic-form="final" 
d="M0 0v0v0v0z" />
    <glyph glyph-name="uniFDA5" unicode="&#xfda5;" arabic-form="final" 
d="M0 0v0v0v0z" />
    <glyph glyph-name="uniFDA6" unicode="&#xfda6;" arabic-form="final" 
d="M0 0v0v0v0z" />
    <glyph glyph-name="uniFDA7" unicode="&#xfda7;" arabic-form="final" 
d="M0 0v0v0v0z" />
    <glyph glyph-name="uniFDA8" unicode="&#xfda8;" arabic-form="final" 
d="M0 0v0v0v0z" />
    <glyph glyph-name="uniFDA9" unicode="&#xfda9;" arabic-form="final" 
d="M0 0v0v0v0z" />
    <glyph glyph-name="uniFDAA" unicode="&#xfdaa;" arabic-form="final" 
d="M0 0v0v0v0z" />
    <glyph glyph-name="uniFDAB" unicode="&#xfdab;" arabic-form="final" 
d="M0 0v0v0v0z" />
    <glyph glyph-name="uniFDAC" unicode="&#xfdac;" arabic-form="final" 
d="M0 0v0v0v0z" />
    <glyph glyph-name="uniFDAD" unicode="&#xfdad;" arabic-form="final" 
d="M0 0v0v0v0z" />
    <glyph glyph-name="uniFDAE" unicode="&#xfdae;" arabic-form="final" 
d="M0 0v0v0v0z" />
    <glyph glyph-name="uniFDAF" unicode="&#xfdaf;" arabic-form="final" 
d="M0 0v0v0v0z" />
    <glyph glyph-name="uniFDB0" unicode="&#xfdb0;" arabic-form="final" 
d="M0 0v0v0v0z" />
    <glyph glyph-name="uniFDB1" unicode="&#xfdb1;" arabic-form="final" 
d="M0 0v0v0v0z" />
    <glyph glyph-name="uniFDB2" unicode="&#xfdb2;" arabic-form="final" 
d="M0 0v0v0v0z" />
    <glyph glyph-name="uniFDB3" unicode="&#xfdb3;" arabic-form="final" 
d="M0 0v0v0v0z" />
    <glyph glyph-name="uniFDB4" unicode="&#xfdb4;" arabic-form="initial" 
d="M0 0v0v0v0z" />
    <glyph glyph-name="uniFDB5" unicode="&#xfdb5;" arabic-form="initial" 
d="M0 0v0v0v0z" />
    <glyph glyph-name="uniFDB6" unicode="&#xfdb6;" arabic-form="final" 
d="M0 0v0v0v0z" />
    <glyph glyph-name="uniFDB7" unicode="&#xfdb7;" arabic-form="final" 
d="M0 0v0v0v0z" />
    <glyph glyph-name="uniFDB8" unicode="&#xfdb8;" arabic-form="initial" 
d="M0 0v0v0v0z" />
    <glyph glyph-name="uniFDB9" unicode="&#xfdb9;" arabic-form="final" 
d="M0 0v0v0v0z" />
    <glyph glyph-name="uniFDBA" unicode="&#xfdba;" arabic-form="initial" 
d="M0 0v0v0v0z" />
    <glyph glyph-name="uniFDBB" unicode="&#xfdbb;" arabic-form="final" 
d="M0 0v0v0v0z" />
    <glyph glyph-name="uniFDBC" unicode="&#xfdbc;" arabic-form="final" 
d="M0 0v0v0v0z" />
    <glyph glyph-name="uniFDBD" unicode="&#xfdbd;" arabic-form="final" 
d="M0 0v0v0v0z" />
    <glyph glyph-name="uniFDBE" unicode="&#xfdbe;" arabic-form="final" 
d="M0 0v0v0v0z" />
    <glyph glyph-name="uniFDBF" unicode="&#xfdbf;" arabic-form="final" 
d="M0 0v0v0v0z" />
    <glyph glyph-name="uniFDC0" unicode="&#xfdc0;" arabic-form="final" 
d="M0 0v0v0v0z" />
    <glyph glyph-name="uniFDC1" unicode="&#xfdc1;" arabic-form="final" 
d="M0 0v0v0v0z" />
    <glyph glyph-name="uniFDC2" unicode="&#xfdc2;" arabic-form="final" 
d="M0 0v0v0v0z" />
    <glyph glyph-name="uniFDC3" unicode="&#xfdc3;" arabic-form="initial" 
d="M0 0v0v0v0z" />
    <glyph glyph-name="uniFDC4" unicode="&#xfdc4;" arabic-form="initial" 
d="M0 0v0v0v0z" />
    <glyph glyph-name="uniFDC5" unicode="&#xfdc5;" arabic-form="initial" 
d="M0 0v0v0v0z" />
    <glyph glyph-name="uniFDC6" unicode="&#xfdc6;" arabic-form="final" 
d="M0 0v0v0v0z" />
    <glyph glyph-name="uniFDC7" unicode="&#xfdc7;" arabic-form="final" 
d="M0 0v0v0v0z" />
    <glyph glyph-name="uniFDF0" unicode="&#xfdf0;" arabic-form="isolated" 
d="M0 0v0v0v0z" />
    <glyph glyph-name="uniFDF1" unicode="&#xfdf1;" arabic-form="isolated" 
d="M0 0v0v0v0z" />
    <glyph glyph-name="uniFDF2" unicode="&#xfdf2;" arabic-form="isolated" 
d="M0 0v0v0v0z" />
    <glyph glyph-name="uniFDF3" unicode="&#xfdf3;" arabic-form="isolated" 
d="M0 0v0v0v0z" />
    <glyph glyph-name="uniFDF4" unicode="&#xfdf4;" arabic-form="isolated" 
d="M0 0v0v0v0z" />
    <glyph glyph-name="uniFDF5" unicode="&#xfdf5;" arabic-form="isolated" 
d="M0 0v0v0v0z" />
    <glyph glyph-name="uniFDF6" unicode="&#xfdf6;" arabic-form="isolated" 
d="M0 0v0v0v0z" />
    <glyph glyph-name="uniFDF7" unicode="&#xfdf7;" arabic-form="isolated" 
d="M0 0v0v0v0z" />
    <glyph glyph-name="uniFDF8" unicode="&#xfdf8;" arabic-form="isolated" 
d="M0 0v0v0v0z" />
    <glyph glyph-name="uniFDF9" unicode="&#xfdf9;" arabic-form="isolated" 
d="M0 0v0v0v0z" />
    <glyph glyph-name="uniFDFA" unicode="&#xfdfa;" arabic-form="isolated" 
d="M0 0v0v0v0z" />
    <glyph glyph-name="uniFDFB" unicode="&#xfdfb;" arabic-form="isolated" 
d="M0 0v0v0v0z" />
    <glyph glyph-name="uniFDFC" unicode="&#xfdfc;" arabic-form="isolated" 
d="M0 0v0v0v0z" />
    <glyph glyph-name="uniFE70" unicode="&#xfe70;" arabic-form="isolated" 
d="M0 0v0v0v0z" />
    <glyph glyph-name="uniFE71" unicode="&#xfe71;" arabic-form="medial" 
d="M0 0v0v0v0z" />
    <glyph glyph-name="uniFE72" unicode="&#xfe72;" arabic-form="isolated" 
d="M0 0v0v0v0z" />
    <glyph glyph-name="uniFE74" unicode="&#xfe74;" arabic-form="isolated" 
d="M0 0v0v0v0z" />
    <glyph glyph-name="uniFE76" unicode="&#xfe76;" arabic-form="isolated" 
d="M0 0v0v0v0z" />
    <glyph glyph-name="uniFE77" unicode="&#xfe77;" arabic-form="medial" 
d="M0 0v0v0v0z" />
    <glyph glyph-name="uniFE78" unicode="&#xfe78;" arabic-form="isolated" 
d="M0 0v0v0v0z" />
    <glyph glyph-name="uniFE79" unicode="&#xfe79;" arabic-form="medial" 
d="M0 0v0v0v0z" />
    <glyph glyph-name="uniFE7A" unicode="&#xfe7a;" arabic-form="isolated" 
d="M0 0v0v0v0z" />
    <glyph glyph-name="uniFE7B" unicode="&#xfe7b;" arabic-form="medial" 
d="M0 0v0v0v0z" />
    <glyph glyph-name="uniFE7C" unicode="&#xfe7c;" arabic-form="isolated" 
d="M0 0v0v0v0z" />
    <glyph glyph-name="uniFE7D" unicode="&#xfe7d;" arabic-form="medial" 
d="M0 0v0v0v0z" />
    <glyph glyph-name="uniFE7E" unicode="&#xfe7e;" arabic-form="isolated" 
d="M0 0v0v0v0z" />
    <glyph glyph-name="uniFE7F" unicode="&#xfe7f;" arabic-form="medial" 
d="M0 0v0v0v0z" />
    <glyph glyph-name="uniFE80" unicode="&#x621;" arabic-form="isolated" 
d="M0 0v0v0v0z" />
    <glyph glyph-name="uniFE81" unicode="&#x622;" arabic-form="isolated" 
d="M0 0v0v0v0z" />
    <glyph glyph-name="uniFE82" unicode="&#x622;" arabic-form="final" 
d="M0 0v0v0v0z" />
    <glyph glyph-name="uniFE83" unicode="&#x623;" arabic-form="isolated" 
d="M0 0v0v0v0z" />
    <glyph glyph-name="uniFE84" unicode="&#x623;" arabic-form="final" 
d="M0 0v0v0v0z" />
    <glyph glyph-name="uniFE85" unicode="&#x624;" arabic-form="isolated" 
d="M0 0v0v0v0z" />
    <glyph glyph-name="uniFE86" unicode="&#x624;" arabic-form="final" 
d="M0 0v0v0v0z" />
    <glyph glyph-name="uniFE87" unicode="&#x625;" arabic-form="isolated" 
d="M0 0v0v0v0z" />
    <glyph glyph-name="uniFE88" unicode="&#x625;" arabic-form="final" 
d="M0 0v0v0v0z" />
    <glyph glyph-name="uniFE89" unicode="&#x626;" arabic-form="isolated" 
d="M0 0v0v0v0z" />
    <glyph glyph-name="uniFE8A" unicode="&#x626;" arabic-form="final" 
d="M0 0v0v0v0z" />
    <glyph glyph-name="uniFE8B" unicode="&#x626;" arabic-form="initial" 
d="M0 0v0v0v0z" />
    <glyph glyph-name="uniFE8C" unicode="&#x626;" arabic-form="medial" 
d="M0 0v0v0v0z" />
    <glyph glyph-name="uniFE8D" unicode="&#x627;" arabic-form="isolated" 
d="M0 0v0v0v0z" />
    <glyph glyph-name="uniFE8E" unicode="&#x627;" arabic-form="final" 
d="M0 0v0v0v0z" />
    <glyph glyph-name="uniFE8F" unicode="&#x628;" arabic-form="isolated" 
d="M0 0v0v0v0z" />
    <glyph glyph-name="uniFE90" unicode="&#x628;" arabic-form="final" 
d="M0 0v0v0v0z" />
    <glyph glyph-name="uniFE91" unicode="&#x628;" arabic-form="initial" 
d="M0 0v0v0v0z" />
    <glyph glyph-name="uniFE92" unicode="&#x628;" arabic-form="medial" 
d="M0 0v0v0v0z" />
    <glyph glyph-name="uniFE93" unicode="&#x629;" arabic-form="isolated" 
d="M0 0v0v0v0z" />
    <glyph glyph-name="uniFE94" unicode="&#x629;" arabic-form="final" 
d="M0 0v0v0v0z" />
    <glyph glyph-name="uniFE95" unicode="&#x62a;" arabic-form="isolated" 
d="M0 0v0v0v0z" />
    <glyph glyph-name="uniFE96" unicode="&#x62a;" arabic-form="final" 
d="M0 0v0v0v0z" />
    <glyph glyph-name="uniFE97" unicode="&#x62a;" arabic-form="initial" 
d="M0 0v0v0v0z" />
    <glyph glyph-name="uniFE98" unicode="&#x62a;" arabic-form="medial" 
d="M0 0v0v0v0z" />
    <glyph glyph-name="uniFE99" unicode="&#x62b;" arabic-form="isolated" 
d="M0 0v0v0v0z" />
    <glyph glyph-name="uniFE9A" unicode="&#x62b;" arabic-form="final" 
d="M0 0v0v0v0z" />
    <glyph glyph-name="uniFE9B" unicode="&#x62b;" arabic-form="initial" 
d="M0 0v0v0v0z" />
    <glyph glyph-name="uniFE9C" unicode="&#x62b;" arabic-form="medial" 
d="M0 0v0v0v0z" />
    <glyph glyph-name="uniFE9D" unicode="&#x62c;" arabic-form="isolated" 
d="M0 0v0v0v0z" />
    <glyph glyph-name="uniFE9E" unicode="&#x62c;" arabic-form="final" 
d="M0 0v0v0v0z" />
    <glyph glyph-name="uniFE9F" unicode="&#x62c;" arabic-form="initial" 
d="M0 0v0v0v0z" />
    <glyph glyph-name="uniFEA0" unicode="&#x62c;" arabic-form="medial" 
d="M0 0v0v0v0z" />
    <glyph glyph-name="uniFEA1" unicode="&#x62d;" arabic-form="isolated" 
d="M0 0v0v0v0z" />
    <glyph glyph-name="uniFEA2" unicode="&#x62d;" arabic-form="final" 
d="M0 0v0v0v0z" />
    <glyph glyph-name="uniFEA3" unicode="&#x62d;" arabic-form="initial" 
d="M0 0v0v0v0z" />
    <glyph glyph-name="uniFEA4" unicode="&#x62d;" arabic-form="medial" 
d="M0 0v0v0v0z" />
    <glyph glyph-name="uniFEA5" unicode="&#x62e;" arabic-form="isolated" 
d="M0 0v0v0v0z" />
    <glyph glyph-name="uniFEA6" unicode="&#x62e;" arabic-form="final" 
d="M0 0v0v0v0z" />
    <glyph glyph-name="uniFEA7" unicode="&#x62e;" arabic-form="initial" 
d="M0 0v0v0v0z" />
    <glyph glyph-name="uniFEA8" unicode="&#x62e;" arabic-form="medial" 
d="M0 0v0v0v0z" />
    <glyph glyph-name="uniFEA9" unicode="&#x62f;" arabic-form="isolated" 
d="M0 0v0v0v0z" />
    <glyph glyph-name="uniFEAA" unicode="&#x62f;" arabic-form="final" 
d="M0 0v0v0v0z" />
    <glyph glyph-name="uniFEAB" unicode="&#x630;" arabic-form="isolated" 
d="M0 0v0v0v0z" />
    <glyph glyph-name="uniFEAC" unicode="&#x630;" arabic-form="final" 
d="M0 0v0v0v0z" />
    <glyph glyph-name="uniFEAD" unicode="&#x631;" arabic-form="isolated" 
d="M0 0v0v0v0z" />
    <glyph glyph-name="uniFEAE" unicode="&#x631;" arabic-form="final" 
d="M0 0v0v0v0z" />
    <glyph glyph-name="uniFEAF" unicode="&#x632;" arabic-form="isolated" 
d="M0 0v0v0v0z" />
    <glyph glyph-name="uniFEB0" unicode="&#x632;" arabic-form="final" 
d="M0 0v0v0v0z" />
    <glyph glyph-name="uniFEB1" unicode="&#x633;" arabic-form="isolated" 
d="M0 0v0v0v0z" />
    <glyph glyph-name="uniFEB2" unicode="&#x633;" arabic-form="final" 
d="M0 0v0v0v0z" />
    <glyph glyph-name="uniFEB3" unicode="&#x633;" arabic-form="initial" 
d="M0 0v0v0v0z" />
    <glyph glyph-name="uniFEB4" unicode="&#x633;" arabic-form="medial" 
d="M0 0v0v0v0z" />
    <glyph glyph-name="uniFEB5" unicode="&#x634;" arabic-form="isolated" 
d="M0 0v0v0v0z" />
    <glyph glyph-name="uniFEB6" unicode="&#x634;" arabic-form="final" 
d="M0 0v0v0v0z" />
    <glyph glyph-name="uniFEB7" unicode="&#x634;" arabic-form="initial" 
d="M0 0v0v0v0z" />
    <glyph glyph-name="uniFEB8" unicode="&#x634;" arabic-form="medial" 
d="M0 0v0v0v0z" />
    <glyph glyph-name="uniFEB9" unicode="&#x635;" arabic-form="isolated" 
d="M0 0v0v0v0z" />
    <glyph glyph-name="uniFEBA" unicode="&#x635;" arabic-form="final" 
d="M0 0v0v0v0z" />
    <glyph glyph-name="uniFEBB" unicode="&#x635;" arabic-form="initial" 
d="M0 0v0v0v0z" />
    <glyph glyph-name="uniFEBC" unicode="&#x635;" arabic-form="medial" 
d="M0 0v0v0v0z" />
    <glyph glyph-name="uniFEBD" unicode="&#x636;" arabic-form="isolated" 
d="M0 0v0v0v0z" />
    <glyph glyph-name="uniFEBE" unicode="&#x636;" arabic-form="final" 
d="M0 0v0v0v0z" />
    <glyph glyph-name="uniFEBF" unicode="&#x636;" arabic-form="initial" 
d="M0 0v0v0v0z" />
    <glyph glyph-name="uniFEC0" unicode="&#x636;" arabic-form="medial" 
d="M0 0v0v0v0z" />
    <glyph glyph-name="uniFEC1" unicode="&#x637;" arabic-form="isolated" 
d="M0 0v0v0v0z" />
    <glyph glyph-name="uniFEC2" unicode="&#x637;" arabic-form="final" 
d="M0 0v0v0v0z" />
    <glyph glyph-name="uniFEC3" unicode="&#x637;" arabic-form="initial" 
d="M0 0v0v0v0z" />
    <glyph glyph-name="uniFEC4" unicode="&#x637;" arabic-form="medial" 
d="M0 0v0v0v0z" />
    <glyph glyph-name="uniFEC5" unicode="&#x638;" arabic-form="isolated" 
d="M0 0v0v0v0z" />
    <glyph glyph-name="uniFEC6" unicode="&#x638;" arabic-form="final" 
d="M0 0v0v0v0z" />
    <glyph glyph-name="uniFEC7" unicode="&#x638;" arabic-form="initial" 
d="M0 0v0v0v0z" />
    <glyph glyph-name="uniFEC8" unicode="&#x638;" arabic-form="medial" 
d="M0 0v0v0v0z" />
    <glyph glyph-name="uniFEC9" unicode="&#x639;" arabic-form="isolated" 
d="M0 0v0v0v0z" />
    <glyph glyph-name="uniFECA" unicode="&#x639;" arabic-form="final" 
d="M0 0v0v0v0z" />
    <glyph glyph-name="uniFECB" unicode="&#x639;" arabic-form="initial" 
d="M0 0v0v0v0z" />
    <glyph glyph-name="uniFECC" unicode="&#x639;" arabic-form="medial" 
d="M0 0v0v0v0z" />
    <glyph glyph-name="uniFECD" unicode="&#x63a;" arabic-form="isolated" 
d="M0 0v0v0v0z" />
    <glyph glyph-name="uniFECE" unicode="&#x63a;" arabic-form="final" 
d="M0 0v0v0v0z" />
    <glyph glyph-name="uniFECF" unicode="&#x63a;" arabic-form="initial" 
d="M0 0v0v0v0z" />
    <glyph glyph-name="uniFED0" unicode="&#x63a;" arabic-form="medial" 
d="M0 0v0v0v0z" />
    <glyph glyph-name="uniFED1" unicode="&#x641;" arabic-form="isolated" 
d="M0 0v0v0v0z" />
    <glyph glyph-name="uniFED2" unicode="&#x641;" arabic-form="final" 
d="M0 0v0v0v0z" />
    <glyph glyph-name="uniFED3" unicode="&#x641;" arabic-form="initial" 
d="M0 0v0v0v0z" />
    <glyph glyph-name="uniFED4" unicode="&#x641;" arabic-form="medial" 
d="M0 0v0v0v0z" />
    <glyph glyph-name="uniFED5" unicode="&#x642;" arabic-form="isolated" 
d="M0 0v0v0v0z" />
    <glyph glyph-name="uniFED6" unicode="&#x642;" arabic-form="final" 
d="M0 0v0v0v0z" />
    <glyph glyph-name="uniFED7" unicode="&#x642;" arabic-form="initial" 
d="M0 0v0v0v0z" />
    <glyph glyph-name="uniFED8" unicode="&#x642;" arabic-form="medial" 
d="M0 0v0v0v0z" />
    <glyph glyph-name="uniFED9" unicode="&#x643;" arabic-form="isolated" 
d="M0 0v0v0v0z" />
    <glyph glyph-name="uniFEDA" unicode="&#x643;" arabic-form="final" 
d="M0 0v0v0v0z" />
    <glyph glyph-name="uniFEDB" unicode="&#x643;" arabic-form="initial" 
d="M0 0v0v0v0z" />
    <glyph glyph-name="uniFEDC" unicode="&#x643;" arabic-form="medial" 
d="M0 0v0v0v0z" />
    <glyph glyph-name="uniFEDD" unicode="&#x644;" arabic-form="isolated" 
d="M0 0v0v0v0z" />
    <glyph glyph-name="uniFEDE" unicode="&#x644;" arabic-form="final" 
d="M0 0v0v0v0z" />
    <glyph glyph-name="uniFEDF" unicode="&#x644;" arabic-form="initial" 
d="M0 0v0v0v0z" />
    <glyph glyph-name="uniFEE0" unicode="&#x644;" arabic-form="medial" 
d="M0 0v0v0v0z" />
    <glyph glyph-name="uniFEE1" unicode="&#x645;" arabic-form="isolated" 
d="M0 0v0v0v0z" />
    <glyph glyph-name="uniFEE2" unicode="&#x645;" arabic-form="final" 
d="M0 0v0v0v0z" />
    <glyph glyph-name="uniFEE3" unicode="&#x645;" arabic-form="initial" 
d="M0 0v0v0v0z" />
    <glyph glyph-name="uniFEE4" unicode="&#x645;" arabic-form="medial" 
d="M0 0v0v0v0z" />
    <glyph glyph-name="uniFEE5" unicode="&#x646;" arabic-form="isolated" 
d="M0 0v0v0v0z" />
    <glyph glyph-name="uniFEE6" unicode="&#x646;" arabic-form="final" 
d="M0 0v0v0v0z" />
    <glyph glyph-name="uniFEE7" unicode="&#x646;" arabic-form="initial" 
d="M0 0v0v0v0z" />
    <glyph glyph-name="uniFEE8" unicode="&#x646;" arabic-form="medial" 
d="M0 0v0v0v0z" />
    <glyph glyph-name="uniFEE9" unicode="&#x647;" arabic-form="isolated" 
d="M0 0v0v0v0z" />
    <glyph glyph-name="uniFEEA" unicode="&#x647;" arabic-form="final" 
d="M0 0v0v0v0z" />
    <glyph glyph-name="uniFEEB" unicode="&#x647;" arabic-form="initial" 
d="M0 0v0v0v0z" />
    <glyph glyph-name="uniFEEC" unicode="&#x647;" arabic-form="medial" 
d="M0 0v0v0v0z" />
    <glyph glyph-name="uniFEED" unicode="&#x648;" arabic-form="isolated" 
d="M0 0v0v0v0z" />
    <glyph glyph-name="uniFEEE" unicode="&#x648;" arabic-form="final" 
d="M0 0v0v0v0z" />
    <glyph glyph-name="uniFEEF" unicode="&#x649;" arabic-form="isolated" 
d="M0 0v0v0v0z" />
    <glyph glyph-name="uniFEF0" unicode="&#x649;" arabic-form="final" 
d="M0 0v0v0v0z" />
    <glyph glyph-name="uniFEF1" unicode="&#x64a;" arabic-form="isolated" 
d="M0 0v0v0v0z" />
    <glyph glyph-name="uniFEF2" unicode="&#x64a;" arabic-form="final" 
d="M0 0v0v0v0z" />
    <glyph glyph-name="uniFEF3" unicode="&#x64a;" arabic-form="initial" 
d="M0 0v0v0v0z" />
    <glyph glyph-name="uniFEF4" unicode="&#x64a;" arabic-form="medial" 
d="M0 0v0v0v0z" />
    <glyph glyph-name="uniFEF5" unicode="&#xfef5;" arabic-form="isolated" 
d="M0 0v0v0v0z" />
    <glyph glyph-name="uniFEF6" unicode="&#xfef6;" arabic-form="final" 
d="M0 0v0v0v0z" />
    <glyph glyph-name="uniFEF7" unicode="&#xfef7;" arabic-form="isolated" 
d="M0 0v0v0v0z" />
    <glyph glyph-name="uniFEF8" unicode="&#xfef8;" arabic-form="final" 
d="M0 0v0v0v0z" />
    <glyph glyph-name="uniFEF9" unicode="&#xfef9;" arabic-form="isolated" 
d="M0 0v0v0v0z" />
    <glyph glyph-name="uniFEFA" unicode="&#xfefa;" arabic-form="final" 
d="M0 0v0v0v0z" />
    <glyph glyph-name="uniFEFB" unicode="&#xfefb;" arabic-form="isolated" 
d="M0 0v0v0v0z" />
    <glyph glyph-name="uniFEFC" unicode="&#xfefc;" arabic-form="final" 
d="M0 0v0v0v0z" />
    <glyph glyph-name=".notdef" 
 />
    <glyph glyph-name="glyph1" 
d="M745 -11q-37 0 -75 8.5t-77 25.5q-38 16 -76.5 38.5t-76.5 49.5t-74 58t-70 65t-64.5 70t-57.5 73q-28 39 -50 77t-37 75q-17 39 -25.5 77.5t-8.5 74.5q0 25 4.5 48.5t13.5 45.5q9 23 23 44t34 39q25 24 52.5 36.5t58.5 12.5q12 0 24.5 -3t23.5 -8q12 -6 22.5 -14.5
t18.5 -20.5l99 -139q6 -9 11.5 -18t8.5 -18q4 -10 6.5 -19.5t2.5 -18.5q0 -12 -3.5 -24t-10.5 -23q-5 -9 -12 -18t-17 -19l-29 -30q1 -1 1 -1.5t1 -1.5q4 -7 12 -18.5t23 -28.5q15 -18 30 -34.5t30 -31.5q19 -19 35 -33.5t31 -26.5q18 -16 30 -24t19 -12l-1 -2l31 31
q10 10 19.5 17t19.5 12q17 11 39 12.5t44 -7.5l17 -8.5t19 -11.5l141 -101q12 -8 20.5 -18t14.5 -22q4 -13 6.5 -24t2.5 -23q0 -15 -3.5 -30t-10.5 -30q-6 -14 -14.5 -26.5t-19.5 -24.5q-18 -20 -38 -34.5t-43 -23.5q-22 -9 -46 -14t-49 -5v0zM239 843q-18 0 -34.5 -8
t-32.5 -23q-14 -14 -24.5 -29t-16.5 -31q-7 -17 -10.5 -34.5t-3.5 -36.5q0 -30 7 -62t21 -65q15 -34 35 -69t46 -70q25 -35 54 -69.5t61 -66.5t66.5 -61t69.5 -55q35 -25 70.5 -45.5t70.5 -35.5q55 -23 105 -27.5t92 12.5q17 7 31.5 17.5t27.5 25.5q7 8 13 16.5t11 18.5
q4 8 5.5 16.5t1.5 16.5q0 5 -1 10.5t-3 11.5q-1 1 -3.5 4.5t-8.5 7.5l-142 101q-6 5 -12 8t-11 5q-9 4 -15 4t-13 -5q-7 -3 -12.5 -8t-12.5 -11l-32 -32q-13 -12 -30 -15t-32 2l-12 5q-13 7 -28 18t-32 25q-16 13 -32.5 29t-37.5 36q-16 16 -31.5 33t-31.5 36
q-15 17 -26 32.5t-18 27.5l-5 13q-2 7 -3 11.5t-1 9.5q0 11 4 21t12 18l32 34q7 6 11.5 12t8.5 12q2 4 3 7.5t1 6.5t-1 6.5t-2 7.5q-2 5 -5.5 10.5t-7.5 12.5l-99 140l-7.5 7.5t-8.5 5.5t-10.5 3.5t-10.5 1.5v0zM595 320l-7 -29l12 29q-1 1 -2.5 0.5t-2.5 -0.5v0zM875 672
h-214q-13 0 -22.5 9.5t-9.5 22.5t9.5 22.5t22.5 9.5h214q13 0 22.5 -9.5t9.5 -22.5t-9.5 -22.5t-22.5 -9.5z" />
    <glyph glyph-name="glyph2" horiz-adv-x="0" 
d="M0 0v0v0v0z" />
    <glyph glyph-name="glyph2" horiz-adv-x="0" 
d="M0 0v0v0v0z" />
    <glyph glyph-name="uni0001" 
d="M745 -11q-37 0 -75 8.5t-77 25.5q-38 16 -76.5 38.5t-76.5 49.5t-74 58t-70 64q-34 35 -64.5 71t-57.5 73q-28 38 -50 76.5t-37 75.5q-17 39 -25.5 77.5t-8.5 74.5q0 25 4.5 48.5t13.5 45.5q9 23 23 44t34 39q25 24 52.5 36.5t58.5 12.5q12 0 24.5 -3t23.5 -8
q12 -6 22.5 -14.5t18.5 -20.5l99 -139q6 -9 11.5 -18t8.5 -18q4 -10 6.5 -19.5t2.5 -18.5q0 -12 -3.5 -24t-10.5 -23q-5 -9 -12 -18t-17 -19l-29 -30q1 -1 1 -1.5t1 -1.5q4 -7 12 -18.5t23 -28.5q15 -18 30 -34.5t30 -31.5q19 -18 35 -33t31 -27q18 -16 30 -24t19 -12l-1 -2
l31 31q10 10 19.5 17t19.5 12q17 11 39 12.5t44 -7.5l17 -8.5t19 -11.5l141 -101q12 -8 20.5 -18t14.5 -22q4 -13 6.5 -24t2.5 -23q0 -15 -3.5 -30t-10.5 -30q-6 -14 -14.5 -26.5t-19.5 -24.5q-18 -20 -38 -34.5t-43 -23.5q-22 -9 -46 -14t-49 -5v0zM239 843q-18 0 -34.5 -8
t-32.5 -23q-14 -14 -24.5 -29t-16.5 -31q-7 -17 -10.5 -34.5t-3.5 -36.5q0 -30 7 -62t21 -65q15 -34 35 -69t46 -70q25 -35 54 -69.5t61 -66.5t66.5 -61t69.5 -55q35 -25 70.5 -45.5t70.5 -35.5q55 -23 105 -27.5t92 12.5q17 7 31.5 17.5t27.5 25.5q7 8 13 16.5t11 18.5
q4 8 5.5 16.5t1.5 16.5q0 5 -1 10.5t-3 11.5q-1 2 -3.5 5t-8.5 7l-142 101q-6 5 -12 8t-11 5q-7 3 -12 4.5t-16 -5.5q-7 -3 -12.5 -8t-12.5 -11l-32 -32q-13 -12 -30 -15t-32 2l-12 5q-13 7 -28 18t-32 25q-16 13 -33 29t-37 36q-15 16 -31 33t-32 36q-15 17 -26 32.5
t-18 27.5l-5 13q-2 7 -2.5 12t-0.5 9q0 12 4 22t12 18l32 33q6 7 11 13t8 11q3 4 4 7.5t1 7.5q0 2 -1 5.5t-3 7.5q-2 5 -5.5 11t-7.5 12l-99 140l-7.5 7.5t-8.5 5.5t-10.5 3.5t-10.5 1.5v0zM595 320l-7 -29l12 29q-2 1 -3 0.5t-2 -0.5v0zM853 553q-13 0 -22.5 9t-9.5 23v172
h-172q-14 0 -23 9.5t-9 22.5t9 22.5t23 9.5h204q13 0 22.5 -9.5t9.5 -22.5v-204q0 -14 -9.5 -23t-22.5 -9v0z" />
    <glyph glyph-name="uni0002" 
d="M745 -11q-37 0 -75 8.5t-77 25.5q-38 16 -76.5 38.5t-76.5 49.5t-74 58t-70 65t-64.5 70t-57.5 73q-28 39 -50 77t-37 75q-17 39 -25.5 77.5t-8.5 74.5q0 25 4.5 48.5t13.5 45.5q9 23 23 44t34 39q25 24 52.5 36.5t58.5 12.5q12 0 24.5 -3t23.5 -8q12 -6 22.5 -14.5
t18.5 -20.5l99 -139q6 -9 11.5 -18t8.5 -18q4 -10 6.5 -19.5t2.5 -18.5q0 -12 -3.5 -24t-10.5 -23q-5 -9 -12 -18t-17 -19l-29 -30q1 -1 1 -1.5t1 -1.5q4 -7 12 -18.5t23 -28.5q15 -18 30 -34.5t30 -31.5q19 -19 35 -33.5t31 -26.5q18 -16 30 -24t19 -12l-1 -2l31 31
q10 10 19.5 17t19.5 12q17 11 39 12.5t44 -7.5l17 -8.5t19 -11.5l141 -101q12 -8 20.5 -18t14.5 -22q4 -13 6.5 -24t2.5 -23q0 -15 -3.5 -30t-10.5 -30q-6 -14 -14.5 -26.5t-19.5 -24.5q-18 -20 -38 -34.5t-43 -23.5q-22 -9 -46 -14t-49 -5v0zM239 843q-18 0 -34.5 -8
t-32.5 -23q-14 -14 -24.5 -29t-16.5 -31q-7 -17 -10.5 -34.5t-3.5 -36.5q0 -30 7 -62t21 -65q15 -34 35 -69t46 -70q25 -35 54 -69.5t61 -66.5t66.5 -61t69.5 -55q35 -25 70.5 -45.5t70.5 -35.5q55 -23 105 -27.5t92 12.5q17 7 31.5 17.5t27.5 25.5q7 8 13 16.5t11 18.5
q4 8 5.5 16.5t1.5 16.5q0 5 -1 10.5t-3 11.5q-1 1 -3.5 4.5t-8.5 7.5l-142 101q-6 5 -12 8t-11 5q-9 4 -15 4t-13 -5q-7 -3 -12.5 -8t-12.5 -11l-32 -32q-13 -12 -30 -15t-32 2l-12 5q-13 7 -28 18t-32 25q-16 13 -32.5 29t-37.5 36q-16 16 -31.5 33t-31.5 36
q-15 17 -26 32.5t-18 27.5l-5 13q-2 7 -3 11.5t-1 9.5q0 11 4 21t12 18l32 34q7 6 11.5 12t8.5 12q2 4 3 7.5t1 6.5t-1 6.5t-2 7.5q-2 5 -5.5 10.5t-7.5 12.5l-99 140l-7.5 7.5t-8.5 5.5t-10.5 3.5t-10.5 1.5v0zM595 320l-7 -29l12 29q-1 1 -2.5 0.5t-2.5 -0.5v0zM725 588
q-6 0 -11.5 2.5t-10.5 6.5l-86 86q-9 9 -9 22.5t9 22.5q10 9 23 9t23 -9l62 -63l148 148q10 9 23 9t23 -9q9 -9 9 -22.5t-9 -22.5l-171 -171q-5 -4 -11 -6.5t-12 -2.5v0z" />
    <glyph glyph-name="uni0003" 
d="M745 -11q-37 0 -75 8.5t-77 25.5q-38 16 -76.5 38.5t-76.5 49.5t-74 58t-70 65t-64.5 70t-57.5 73q-28 39 -50 77t-37 75q-17 39 -25.5 77.5t-8.5 74.5q0 25 4.5 48.5t13.5 45.5q9 23 23 44t34 39q25 24 52.5 36.5t58.5 12.5q12 0 24.5 -3t23.5 -8q12 -6 22.5 -14.5
t18.5 -20.5l99 -139q6 -9 11.5 -18t8.5 -18q4 -10 6.5 -19.5t2.5 -18.5q0 -12 -3.5 -24t-10.5 -23q-5 -9 -12 -18t-17 -19l-29 -30q1 -1 1 -1.5t1 -1.5q4 -7 12 -18.5t23 -28.5q15 -18 30 -34.5t30 -31.5q19 -19 35 -33.5t31 -26.5q18 -16 30 -24t19 -12l-1 -2l31 31
q10 10 19.5 17t19.5 12q17 11 39 12.5t44 -7.5l17 -8.5t19 -11.5l141 -101q12 -8 20.5 -18t14.5 -22q4 -13 6.5 -24t2.5 -23q0 -15 -3.5 -30t-10.5 -30q-6 -14 -14.5 -26.5t-19.5 -24.5q-18 -20 -38 -34.5t-43 -23.5q-22 -9 -46 -14t-49 -5v0zM239 843q-18 0 -34.5 -8
t-32.5 -23q-14 -14 -24.5 -29t-16.5 -31q-7 -17 -10.5 -34.5t-3.5 -36.5q0 -30 7 -62t21 -65q15 -34 35 -69t46 -70q25 -35 54 -69.5t61 -66.5t66.5 -61t69.5 -55q35 -25 70.5 -45.5t70.5 -35.5q55 -23 105 -27.5t92 12.5q17 7 31.5 17.5t27.5 25.5q7 8 13 16.5t11 18.5
q4 8 5.5 16.5t1.5 16.5q0 5 -1 10.5t-3 11.5q-1 1 -3.5 4.5t-8.5 7.5l-142 101q-6 5 -12 8t-11 5q-9 4 -15 4t-13 -5q-7 -3 -12.5 -8t-12.5 -11l-32 -32q-13 -12 -30 -15t-32 2l-12 5q-13 7 -28 18t-32 25q-16 13 -32.5 29t-37.5 36q-16 16 -31.5 33t-31.5 36
q-15 17 -26 32.5t-18 27.5l-5 13q-2 7 -3 11.5t-1 9.5q0 11 4 21t12 18l32 34q7 6 11.5 12t8.5 12q2 4 3 7.5t1 6.5t-1 6.5t-2 7.5q-2 5 -5.5 10.5t-7.5 12.5l-99 140l-7.5 7.5t-8.5 5.5t-10.5 3.5t-10.5 1.5v0zM595 320l-7 -29l12 29q-1 1 -2.5 0.5t-2.5 -0.5v0zM692 596
q-6 0 -11.5 2.5t-10.5 7.5q-9 9 -9 22.5t9 22.5l151 151q9 9 22.5 9t22.5 -9t9 -22.5t-9 -22.5l-151 -151q-4 -5 -10 -7.5t-13 -2.5v0zM844 596q-7 0 -12.5 2.5t-10.5 7.5l-151 151q-9 9 -9 22.5t9 22.5t22.5 9t22.5 -9l151 -151q9 -9 9 -22.5t-9 -22.5q-5 -5 -10.5 -7.5
t-11.5 -2.5v0z" />
    <glyph glyph-name="uni0004" 
d="M745 -11q-37 0 -75 8.5t-77 25.5q-38 16 -76.5 38.5t-76.5 49.5l-19 14q-10 8 -12 21t6 24q8 10 21 12t24 -6l18 -13q34 -26 69.5 -46t70.5 -35q55 -23 105.5 -28t92.5 13q16 7 30.5 17t27.5 25q8 8 13.5 17t10.5 19q4 8 6 16.5t2 16.5q0 5 -1 10t-4 11q-1 2 -3.5 5.5
t-8.5 7.5l-141 101q-7 4 -13 7.5t-11 5.5q-8 3 -14.5 3t-13.5 -4q-6 -4 -12 -8.5t-12 -11.5l-33 -32q-12 -12 -29.5 -15t-32.5 3l-2.5 1t-3.5 1q0 1 -2.5 1.5t-2.5 1.5q-7 3 -15 8t-17 12q-10 8 -12.5 21t5.5 24t21 13t24 -6q6 -5 12.5 -9t11.5 -6l-1 -3l31 31
q10 10 19.5 17.5t19.5 12.5q17 10 39 12t44 -8q8 -3 17 -8t19 -12l141 -100q12 -8 20.5 -18.5t14.5 -22.5q4 -12 6.5 -23.5t2.5 -22.5q0 -15 -3.5 -30.5t-10.5 -29.5q-6 -15 -14.5 -27.5t-19.5 -23.5q-18 -21 -38 -35.5t-43 -23.5q-22 -9 -46 -14t-49 -5v0zM595 320l-7 -29
l12 29q-1 1 -2.5 0.5t-2.5 -0.5v0zM319 224q-6 0 -12 2.5t-11 7.5q-33 34 -64 70t-58 73q-27 39 -49 77t-38 75q-17 39 -25.5 77.5t-8.5 74.5q0 25 4.5 48.5t13.5 45.5q9 23 23 44t34 39q25 24 52.5 36.5t58.5 12.5q12 0 24.5 -3t23.5 -8q12 -6 22.5 -14.5t18.5 -20.5
l99 -139q6 -9 11.5 -18t8.5 -18q4 -10 6.5 -19.5t2.5 -18.5q0 -12 -3.5 -24t-10.5 -23q-5 -9 -12 -18t-17 -19l-29 -30q1 -1 1 -1.5t1 -1.5q4 -7 12 -18.5t23 -28.5q15 -18 30 -34.5t30 -31.5q9 -9 9 -22.5t-10 -22.5q-9 -9 -22.5 -9t-22.5 9q-15 16 -31 33.5t-32 35.5
q-15 18 -26 33t-17 28q-1 1 -1.5 2l-1.5 3l-3 7q-2 7 -2.5 11.5t-0.5 9.5q0 11 4 21.5t12 18.5l32 33q7 6 11.5 12t7.5 12q3 4 4 7.5t1 6.5t-1 6.5t-2 7.5q-3 6 -6.5 11.5t-7.5 12.5l-99 140l-7.5 7.5t-8.5 5.5t-10.5 3.5t-10.5 1.5q-18 0 -34.5 -8t-32.5 -23
q-14 -14 -24.5 -29t-16.5 -31q-7 -17 -10.5 -34.5t-3.5 -36.5q0 -30 7 -62t21 -65q15 -34 35 -69t46 -70q25 -35 54 -69.5t61 -66.5q10 -9 10 -22.5t-10 -22.5q-4 -5 -10 -7.5t-12 -2.5v0zM85 -11q-6 0 -11.5 2.5t-10.5 7.5q-10 9 -10 22.5t10 22.5l853 853q9 10 22.5 10
t22.5 -10q10 -9 10 -22.5t-10 -22.5l-853 -853q-5 -5 -11 -7.5t-12 -2.5v0z" />
    <glyph glyph-name="uni0005" 
d="M736 -11h-448q-89 0 -143 50.5t-59 140.5l-22 352q-3 40 10.5 77t41.5 66q27 29 63.5 45t76.5 16q10 0 19 5.5t14 15.5l31 61q19 37 60.5 63t82.5 26h98q41 0 82.5 -26t60.5 -63l31 -62q5 -9 13.5 -14.5t19.5 -5.5q40 0 76.5 -16t63.5 -45q28 -29 41.5 -66t10.5 -77
l-22 -353q-6 -90 -59 -140t-143 -50v0zM463 843q-23 0 -49 -16t-37 -38l-31 -61q-13 -26 -37.5 -41t-52.5 -15q-27 0 -51 -10.5t-43 -30.5q-18 -19 -27 -44t-7 -51l22 -353q4 -64 38.5 -97t99.5 -33h448q64 0 99 33t39 97l22 353q2 26 -7 51t-27 44q-19 20 -43 30.5
t-51 10.5q-28 0 -52.5 15t-37.5 40l-32 62q-10 21 -36 37t-49 16h-98v1v0zM576 587h-128q-13 0 -22.5 9.5t-9.5 22.5t9.5 22.5t22.5 9.5h128q13 0 22.5 -9.5t9.5 -22.5t-9.5 -22.5t-22.5 -9.5zM512 160q-71 0 -121 50t-50 121q0 70 50 120t121 50t121 -50t50 -120
q0 -71 -50 -121t-121 -50zM512 437q-44 0 -75.5 -31t-31.5 -75t31.5 -75.5t75.5 -31.5t75.5 31.5t31.5 75.5t-31.5 75t-75.5 31z" />
    <glyph glyph-name="uni0006" 
d="M384 501h-128q-13 0 -22.5 9.5t-9.5 22.5t9.5 22.5t22.5 9.5h128q13 0 22.5 -9.5t9.5 -22.5t-9.5 -22.5t-22.5 -9.5zM736 -11h-448q-13 0 -22.5 9.5t-9.5 22.5t9.5 22.5t22.5 9.5h448q64 0 99 33t39 97l22 353q2 23 -4.5 44.5t-20.5 39.5q-8 11 -6 24t12 21q11 8 24 6
t21 -12q20 -28 30 -60.5t8 -66.5l-22 -353q-6 -90 -59 -140t-143 -50v0zM147 55q-8 0 -15 4t-12 11q-15 22 -23.5 49.5t-10.5 60.5l-22 352q-3 40 10.5 77t41.5 66q27 29 63.5 45t76.5 16q10 0 19 5.5t14 15.5l31 61q19 37 60.5 63t82.5 26h98q41 0 82.5 -26t60.5 -63
l31 -62q5 -9 13.5 -14.5t19.5 -5.5q13 0 22.5 -9.5t9.5 -22.5t-9.5 -22.5t-22.5 -9.5q-28 0 -52.5 15t-37.5 40l-32 62q-10 21 -36 37t-49 16h-98q-24 0 -49.5 -16t-36.5 -37l-31 -61q-13 -26 -37.5 -41t-52.5 -15q-27 0 -51 -10.5t-43 -30.5q-18 -19 -27 -44t-7 -51
l22 -353q1 -23 7 -43t17 -35q7 -11 4.5 -24t-13.5 -20q-4 -3 -9 -4.5t-9 -1.5v0zM512 160q-28 0 -55.5 9.5t-49.5 26.5q-11 9 -12.5 22t6.5 23q9 11 22 12.5t23 -6.5q14 -11 31 -17t35 -6q44 0 75.5 31.5t31.5 75.5q0 15 -4.5 29.5t-12.5 26.5q-7 12 -4 24.5t14 20.5
q11 7 24 4t21 -14q12 -20 19 -43.5t7 -47.5q0 -71 -50 -121t-121 -50v0zM85 -11q-6 0 -12 2.5t-10 7.5q-10 9 -10 22.5t10 22.5l853 853q9 10 22.5 10t22.5 -10q10 -9 10 -22.5t-10 -22.5l-853 -853q-5 -5 -11 -7.5t-12 -2.5v0z" />
    <glyph glyph-name="uni0007" 
d="M277 -11q-13 0 -22.5 9.5t-9.5 22.5v299q0 13 9.5 22.5t22.5 9.5t22.5 -9.5t9.5 -22.5v-299q0 -13 -9.5 -22.5t-22.5 -9.5v0zM277 715q-13 0 -22.5 9.5t-9.5 22.5v128q0 13 9.5 22.5t22.5 9.5t22.5 -9.5t9.5 -22.5v-128q0 -13 -9.5 -22.5t-22.5 -9.5zM747 -11
q-13 0 -22.5 9.5t-9.5 22.5v128q0 13 9.5 22.5t22.5 9.5t22.5 -9.5t9.5 -22.5v-128q0 -13 -9.5 -22.5t-22.5 -9.5zM747 544q-13 0 -22.5 9.5t-9.5 22.5v299q0 13 9.5 22.5t22.5 9.5t22.5 -9.5t9.5 -22.5v-299q0 -13 -9.5 -22.5t-22.5 -9.5zM320 288h-85q-55 0 -86.5 31
t-31.5 86v256q0 55 31.5 86.5t86.5 31.5h85q55 0 86 -31.5t31 -86.5v-256q0 -55 -31 -86t-86 -31zM235 715q-29 0 -41.5 -12.5t-12.5 -41.5v-256q0 -28 12.5 -40.5t41.5 -12.5h85q28 0 40.5 12.5t12.5 40.5v256q0 29 -12.5 41.5t-40.5 12.5h-85zM789 117h-85q-55 0 -86 31.5
t-31 86.5v256q0 55 31 86t86 31h85q55 0 86.5 -31t31.5 -86v-256q0 -55 -31.5 -86.5t-86.5 -31.5zM704 544q-28 0 -40.5 -12.5t-12.5 -40.5v-256q0 -29 12.5 -41.5t40.5 -12.5h85q29 0 41.5 12.5t12.5 41.5v256q0 28 -12.5 40.5t-41.5 12.5h-85z" />
    <glyph glyph-name="uni0008" 
d="M939 181h-299q-13 0 -22.5 9.5t-9.5 22.5t9.5 22.5t22.5 9.5h299q13 0 22.5 -9.5t9.5 -22.5t-9.5 -22.5t-22.5 -9.5v0zM213 181h-128q-13 0 -22.5 9.5t-9.5 22.5t9.5 22.5t22.5 9.5h128q13 0 22.5 -9.5t9.5 -22.5t-9.5 -22.5t-22.5 -9.5zM939 651h-128q-13 0 -22.5 9.5
t-9.5 22.5t9.5 22.5t22.5 9.5h128q13 0 22.5 -9.5t9.5 -22.5t-9.5 -22.5t-22.5 -9.5zM384 651h-299q-13 0 -22.5 9.5t-9.5 22.5t9.5 22.5t22.5 9.5h299q13 0 22.5 -9.5t9.5 -22.5t-9.5 -22.5t-22.5 -9.5zM555 53h-256q-55 0 -86.5 31.5t-31.5 86.5v85q0 55 31.5 86t86.5 31
h256q55 0 86 -31t31 -86v-85q0 -55 -31 -86.5t-86 -31.5zM299 309q-29 0 -41.5 -12.5t-12.5 -40.5v-85q0 -29 12.5 -41.5t41.5 -12.5h256q28 0 40.5 12.5t12.5 41.5v85q0 28 -12.5 40.5t-40.5 12.5h-256v0zM725 523h-256q-55 0 -86 31t-31 86v85q0 55 31 86.5t86 31.5h256
q55 0 86.5 -31.5t31.5 -86.5v-85q0 -55 -31.5 -86t-86.5 -31v0zM469 779q-28 0 -40.5 -12.5t-12.5 -41.5v-85q0 -28 12.5 -40.5t40.5 -12.5h256q29 0 41.5 12.5t12.5 40.5v85q0 29 -12.5 41.5t-41.5 12.5h-256v0z" />
    <glyph glyph-name="uni0009" unicode="&#x9;" 
d="M853 459h-682q-8 0 -14.5 3t-10.5 9q-5 5 -6.5 12t-0.5 14l49 231q12 56 45.5 99.5t128.5 43.5h300q95 0 129 -43.5t46 -99.5l48 -231q1 -7 -0.5 -14t-6.5 -13q-4 -5 -10.5 -8t-14.5 -3v0zM210 523h604l-40 192q-9 42 -28.5 67t-83.5 25h-300q-64 0 -83.5 -25t-28.5 -67
l-40 -192v0zM852 -11h-81q-51 0 -67.5 23.5t-22.5 42.5l-9 26q-8 24 -15 30t-36 6h-218q-29 0 -36.5 -7t-14.5 -29l-9 -26q-6 -20 -22.5 -43t-67.5 -23h-81q-25 0 -48 10.5t-40 28.5t-24.5 41.5t-5.5 47.5l24 260q4 53 31.5 99.5t130.5 46.5h544q103 0 130 -46.5t32 -99.5
l24 -260q2 -24 -5.5 -47.5t-24.5 -41.5t-40 -28.5t-48 -10.5v0zM403 181h218q58 0 79 -23t33 -56l9 -27q5 -16 9 -19t21 -3h80q12 0 22.5 4.5t18.5 13.5q8 8 11.5 18.5t2.5 21.5l-24 260q-4 43 -19 65t-79 22h-545q-65 0 -80 -22t-18 -65l-24 -260q-1 -11 2.5 -21.5
t10.5 -18.5q8 -9 19 -13.5t23 -4.5h80q17 0 21 3t9 19l9 26q8 25 27.5 52.5t83.5 27.5v0zM171 587h-43q-13 0 -22.5 9.5t-9.5 22.5t9.5 22.5t22.5 9.5h43q13 0 22.5 -9.5t9.5 -22.5t-9.5 -22.5t-22.5 -9.5zM896 587h-43q-13 0 -22.5 9.5t-9.5 22.5t9.5 22.5t22.5 9.5h43
q13 0 22.5 -9.5t9.5 -22.5t-9.5 -22.5t-22.5 -9.5zM512 715q-13 0 -22.5 9.5t-9.5 22.5v85q0 13 9.5 22.5t22.5 9.5t22.5 -9.5t9.5 -22.5v-85q0 -13 -9.5 -22.5t-22.5 -9.5zM576 715h-128q-13 0 -22.5 9.5t-9.5 22.5t9.5 22.5t22.5 9.5h128q13 0 22.5 -9.5t9.5 -22.5
t-9.5 -22.5t-22.5 -9.5zM384 288h-128q-13 0 -22.5 9.5t-9.5 22.5t9.5 22.5t22.5 9.5h128q13 0 22.5 -9.5t9.5 -22.5t-9.5 -22.5t-22.5 -9.5zM768 288h-128q-13 0 -22.5 9.5t-9.5 22.5t9.5 22.5t22.5 9.5h128q13 0 22.5 -9.5t9.5 -22.5t-9.5 -22.5t-22.5 -9.5z" />
    <glyph glyph-name="uni000A" unicode="&#xa;" 
d="M939 565h-854q-13 0 -22.5 9.5t-9.5 22.5t9.5 22.5t22.5 9.5h854q13 0 22.5 -9.5t9.5 -22.5t-9.5 -22.5t-22.5 -9.5zM341 224h-85q-13 0 -22.5 9.5t-9.5 22.5t9.5 22.5t22.5 9.5h85q13 0 22.5 -9.5t9.5 -22.5t-9.5 -22.5t-22.5 -9.5v0zM619 224h-171q-13 0 -22.5 9.5
t-9.5 22.5t9.5 22.5t22.5 9.5h171q13 0 22.5 -9.5t9.5 -22.5t-9.5 -22.5t-22.5 -9.5zM749 53h-474q-128 0 -175 47t-47 173v350q0 126 47 173t175 47h474q127 0 174 -47t47 -173v-350q1 -126 -46 -173t-175 -47v0zM275 779q-101 0 -129.5 -28t-28.5 -128v-350
q0 -99 28.5 -127t129.5 -28h474q100 0 128.5 28t28.5 127v350q0 100 -28.5 128t-128.5 28h-474v0z" />
    <glyph glyph-name="uni000B" 
d="M576 565h-491q-13 0 -22.5 9.5t-9.5 22.5t9.5 22.5t22.5 9.5h491q13 0 22.5 -9.5t9.5 -22.5t-9.5 -22.5t-22.5 -9.5zM341 224h-85q-13 0 -22.5 9.5t-9.5 22.5t9.5 22.5t22.5 9.5h85q13 0 22.5 -9.5t9.5 -22.5t-9.5 -22.5t-22.5 -9.5v0zM619 224h-171q-13 0 -22.5 9.5
t-9.5 22.5t9.5 22.5t22.5 9.5h171q13 0 22.5 -9.5t9.5 -22.5t-9.5 -22.5t-22.5 -9.5zM749 53h-474q-128 0 -175 47t-47 173v350q0 126 47 173t175 47h301q13 0 22.5 -9.5t9.5 -22.5t-9.5 -22.5t-22.5 -9.5h-301q-101 0 -129.5 -28t-28.5 -128v-350q0 -99 28.5 -127
t129.5 -28h474q100 0 128.5 28t28.5 127v174q0 13 9.5 22.5t22.5 9.5t22.5 -9.5t9.5 -22.5v-174q1 -126 -46 -173t-175 -47v0zM939 661h-235q-13 0 -22.5 9.5t-9.5 22.5t9.5 22.5t22.5 9.5h235q13 0 22.5 -9.5t9.5 -22.5t-9.5 -22.5t-22.5 -9.5zM821 544q-13 0 -22.5 9.5
t-9.5 22.5v235q0 13 9.5 22.5t22.5 9.5t22.5 -9.5t9.5 -22.5v-235q0 -13 -9.5 -22.5t-22.5 -9.5z" />
    <glyph glyph-name="uni000C" 
d="M512 200h-427q-13 0 -22.5 9.5t-9.5 22.5t9.5 22.5t22.5 9.5h427q13 0 22.5 -9.5t9.5 -22.5t-9.5 -22.5t-22.5 -9.5zM417 -11h-237q-70 0 -98 28t-28 98v175q0 70 28 98t98 28h237q70 0 98.5 -28t28.5 -98v-175q0 -70 -28.5 -98t-98.5 -28v0zM180 352q-43 0 -53 -9.5
t-10 -52.5v-175q0 -43 10 -52.5t53 -9.5h237q43 0 53 9.5t10 52.5v175q0 43 -10 52.5t-53 9.5h-237zM640 -11q-9 0 -16.5 4.5t-11.5 12.5q-4 7 -4 15.5t5 16.5l45 75q6 11 19 14t24 -3q12 -7 15 -20t-3 -24l-12 -19q44 10 82 34t65.5 58.5t42.5 76.5q16 43 16 90
q0 14 9.5 23t22.5 9t22.5 -9t9.5 -23q0 -68 -26 -128q-26 -61 -71 -106t-105 -71q-61 -26 -129 -26v0zM85 544q-13 0 -22.5 9.5t-9.5 22.5q0 68 26 129q26 60 71 105t105 71q61 26 129 26q9 0 16.5 -4.5t11.5 -12.5q4 -7 4 -15.5t-5 -16.5l-44 -75q-7 -11 -20 -14t-24 3
q-12 7 -15 20t3 24l12 19q-44 -10 -82 -34t-65.5 -58.5t-42.5 -76.5q-16 -43 -16 -90q0 -13 -9.5 -22.5t-22.5 -9.5v0zM789 459q-46 0 -87 17q-40 18 -70.5 48.5t-48.5 70.5q-18 41 -18 88q0 46 18 87t48 71t71 48t87 18q47 0 88 -18q40 -18 70.5 -48t48.5 -71
q17 -41 17 -87q0 -47 -17 -88q-18 -40 -48.5 -70.5t-71.5 -48.5q-40 -17 -87 -17zM789 843q-66 0 -113 -47t-47 -113q0 -67 47 -113.5t113 -46.5q67 0 113.5 46.5t46.5 113.5q0 66 -46.5 113t-113.5 47z" />
    <glyph glyph-name="uni000D" unicode="&#xd;" 
d="M491 565h-406q-13 0 -22.5 9.5t-9.5 22.5t9.5 22.5t22.5 9.5h406q13 0 22.5 -9.5t9.5 -22.5t-9.5 -22.5t-22.5 -9.5v0zM341 224h-85q-13 0 -22.5 9.5t-9.5 22.5t9.5 22.5t22.5 9.5h85q13 0 22.5 -9.5t9.5 -22.5t-9.5 -22.5t-22.5 -9.5v0zM619 224h-171q-13 0 -22.5 9.5
t-9.5 22.5t9.5 22.5t22.5 9.5h171q13 0 22.5 -9.5t9.5 -22.5t-9.5 -22.5t-22.5 -9.5zM749 53h-474q-128 0 -175 47t-47 173v350q0 126 47 173t175 47h344q13 0 22.5 -9.5t9.5 -22.5t-9.5 -22.5t-22.5 -9.5h-344q-101 0 -129.5 -28t-28.5 -128v-350q0 -99 28.5 -127
t129.5 -28h474q100 0 128.5 28t28.5 127v174q0 13 9.5 22.5t22.5 9.5t22.5 -9.5t9.5 -22.5v-174q1 -126 -46 -173t-175 -47v0zM662 472q-12 0 -23.5 4.5t-19.5 12.5q-11 11 -15 25t-2 29l9 61q1 11 7.5 23.5t14.5 20.5l158 158q47 47 85.5 34t59.5 -34q20 -20 33.5 -58.5
t-33.5 -85.5l-159 -159q-8 -8 -20.5 -14t-23.5 -8l-61 -8q-2 -1 -4.5 -1h-5.5v0zM863 777q-6 0 -12.5 -4t-14.5 -12l-158 -158q-1 -1 -2.5 -4t-1.5 -5l-8 -57l58 8q1 0 4 1.5t4 2.5l158 158q15 15 16.5 26t-16.5 28q-8 8 -14.5 12t-12.5 4v0zM890 630h-4t-4 1
q-44 13 -76.5 45t-44.5 76q-4 13 2.5 24.5t19.5 15.5q13 3 24.5 -3t15.5 -19q8 -28 28.5 -49t48.5 -29q13 -3 19.5 -14.5t2.5 -24.5q-3 -10 -12 -16.5t-20 -6.5v0z" />
    <glyph glyph-name="uni000E" 
d="M168 250q-6 0 -12 2.5t-11 7.5q-9 9 -9 22.5t9 22.5l510 510q9 9 22.5 9t22.5 -9t9 -22.5t-9 -22.5l-510 -511q-4 -4 -10 -6.5t-12 -2.5v0zM474 148q-7 0 -12.5 2.5t-10.5 6.5q-9 10 -9 23t9 23l51 51q9 9 22.5 9t22.5 -9q10 -9 10 -22.5t-10 -22.5l-51 -52
q-4 -4 -10 -6.5t-12 -2.5v0zM588 263q-6 0 -11.5 2t-10.5 7q-9 9 -9 22.5t9 22.5l102 102q9 10 22.5 10t22.5 -10q9 -9 9 -22.5t-9 -22.5l-102 -102q-4 -4 -10.5 -6.5t-12.5 -2.5v0zM474 -11q-32 0 -64.5 19.5t-70.5 57.5l-209 209q-77 77 -76.5 135.5t77.5 135.5l283 283
q77 77 135.5 77.5t135.5 -76.5l209 -209q77 -77 76.5 -135.5t-77.5 -135.5l-283 -283q-39 -39 -72 -58.5t-64 -19.5v0zM550 843q-16 0 -38 -14.5t-52 -44.5l-284 -284q-30 -30 -44.5 -52t-14.5 -38q0 -17 14 -38t44 -52l209 -209q31 -30 52 -44t38 -14v0v0q17 0 38.5 14.5
t52.5 44.5l283 284q30 30 44.5 52t14.5 38q0 17 -13.5 38t-44.5 52l-209 209q-30 30 -51.5 44t-38.5 14v0zM939 -11h-854q-13 0 -22.5 9.5t-9.5 22.5t9.5 22.5t22.5 9.5h854q13 0 22.5 -9.5t9.5 -22.5t-9.5 -22.5t-22.5 -9.5z" />
    <glyph glyph-name="uni000F" 
d="M619 565h-534q-13 0 -22.5 9.5t-9.5 22.5t9.5 22.5t22.5 9.5h534q13 0 22.5 -9.5t9.5 -22.5t-9.5 -22.5t-22.5 -9.5zM341 224h-85q-13 0 -22.5 9.5t-9.5 22.5t9.5 22.5t22.5 9.5h85q13 0 22.5 -9.5t9.5 -22.5t-9.5 -22.5t-22.5 -9.5v0zM619 224h-171q-13 0 -22.5 9.5
t-9.5 22.5t9.5 22.5t22.5 9.5h171q13 0 22.5 -9.5t9.5 -22.5t-9.5 -22.5t-22.5 -9.5zM749 53h-474q-128 0 -175 47t-47 173v350q0 126 47 173t175 47h344q13 0 22.5 -9.5t9.5 -22.5t-9.5 -22.5t-22.5 -9.5h-344q-101 0 -129.5 -28t-28.5 -128v-350q0 -99 28.5 -127
t129.5 -28h474q100 0 128.5 28t28.5 127v89q0 13 9.5 22.5t22.5 9.5t22.5 -9.5t9.5 -22.5v-89q1 -126 -46 -173t-175 -47v0zM853 523q-3 0 -6 0.5t-6 1.5q-9 4 -14.5 12t-5.5 18v256q0 13 9.5 22.5t22.5 9.5t22.5 -9.5t9.5 -22.5v-179l31 31q9 9 22.5 9t22.5 -9
q10 -10 10 -23t-10 -23l-85 -85q-5 -4 -10.5 -6.5t-12.5 -2.5v0zM853 523q-6 0 -12 2t-10 7l-86 85q-9 10 -9 23t9 23q10 9 23 9t23 -9l85 -86q9 -9 9 -22.5t-9 -22.5q-5 -5 -11 -7t-12 -2v0z" />
    <glyph glyph-name="uni0010" 
d="M934 500h-853q-13 0 -22.5 9.5t-9.5 22.5t9.5 22.5t22.5 9.5h853q14 0 23 -9.5t9 -22.5t-9 -22.5t-23 -9.5zM489 52h-218q-127 0 -174.5 46.5t-47.5 172.5v351q0 101 33.5 156t147.5 62q10 0 20 0.5t21 0.5h474q127 0 174.5 -46.5t47.5 -172.5v-189q0 -13 -9.5 -22.5
t-22.5 -9.5t-22.5 9.5t-9.5 22.5v189q0 99 -28.5 127t-129.5 28h-474q-10 0 -19.5 -0.5t-18.5 -0.5q-69 -4 -94.5 -31t-25.5 -123v-351q0 -99 28.5 -127t129.5 -28h218q13 0 22.5 -9.5t9.5 -22.5t-9.5 -22.5t-22.5 -9.5v0zM764 -12q-42 0 -79 16t-64.5 43.5t-43.5 64.5
t-16 79t16 79q16 36 43.5 63.5t64.5 43.5t79 16t79 -16q36 -16 64 -43.5t43 -63.5q16 -37 16 -79t-16 -79q-15 -37 -43 -64.5t-64 -43.5q-37 -16 -79 -16zM764 329q-58 0 -98.5 -40.5t-40.5 -97.5q0 -58 40.5 -98.5t98.5 -40.5q57 0 97.5 40.5t40.5 98.5q0 57 -40.5 97.5
t-97.5 40.5zM809 111q-6 0 -11.5 2.5t-10.5 6.5l-90 90q-9 10 -9 23t9 23q9 9 22.5 9t22.5 -9l90 -90q9 -10 9 -23t-9 -23q-4 -4 -10.5 -6.5t-12.5 -2.5v0zM718 110q-6 0 -12 2.5t-11 6.5q-9 10 -9 23t9 23l90 90q10 9 23 9t23 -9q9 -10 9 -23t-9 -23l-90 -90
q-5 -4 -11 -6.5t-12 -2.5v0zM422 244h-170q-13 0 -22.5 9.5t-9.5 22.5t9.5 22.5t22.5 9.5h170q14 0 23 -9.5t9 -22.5t-9 -22.5t-23 -9.5z" />
    <glyph glyph-name="uni0011" 
d="M576 565h-491q-13 0 -22.5 9.5t-9.5 22.5t9.5 22.5t22.5 9.5h491q13 0 22.5 -9.5t9.5 -22.5t-9.5 -22.5t-22.5 -9.5zM341 224h-85q-13 0 -22.5 9.5t-9.5 22.5t9.5 22.5t22.5 9.5h85q13 0 22.5 -9.5t9.5 -22.5t-9.5 -22.5t-22.5 -9.5v0zM619 224h-171q-13 0 -22.5 9.5
t-9.5 22.5t9.5 22.5t22.5 9.5h171q13 0 22.5 -9.5t9.5 -22.5t-9.5 -22.5t-22.5 -9.5zM749 53h-474q-128 0 -175 47t-47 173v350q0 126 47 173t175 47h301q13 0 22.5 -9.5t9.5 -22.5t-9.5 -22.5t-22.5 -9.5h-301q-101 0 -129.5 -28t-28.5 -128v-350q0 -99 28.5 -127
t129.5 -28h474q100 0 128.5 28t28.5 127v174q0 13 9.5 22.5t22.5 9.5t22.5 -9.5t9.5 -22.5v-174q1 -126 -46 -173t-175 -47v0zM739 579q-7 0 -12.5 2t-10.5 7q-9 9 -9 22.5t9 22.5l166 166q9 9 22.5 9t22.5 -9t9 -22.5t-9 -22.5l-166 -166q-5 -5 -10.5 -7t-11.5 -2v0z
M904 579q-6 0 -12 2t-10 7l-166 166q-10 9 -10 22.5t10 22.5q9 9 22 9t23 -9l166 -166q9 -9 9 -22.5t-9 -22.5q-5 -5 -10.5 -7t-12.5 -2v0z" />
    <glyph glyph-name="uni0012" 
d="M811 390h-726q-13 0 -22.5 9.5t-9.5 22.5t9.5 22.5t22.5 9.5h726q13 0 22.5 -9.5t9.5 -22.5t-9.5 -22.5t-22.5 -9.5zM649 32h-402q-110 0 -152 41.5t-42 149.5v298q0 86 29.5 135.5t129.5 55.5q8 0 16.5 0.5t18.5 0.5h402q110 0 152 -41.5t42 -150.5v-305
q-2 -104 -43.5 -144t-150.5 -40zM247 649q-9 0 -17 -0.5t-15 -0.5q-58 -4 -78 -26t-20 -101v-298q0 -82 23 -104.5t107 -22.5h402q83 0 106 21.5t24 99.5v304q0 82 -23 105t-107 23h-402v0zM811 184q-6 0 -12 2.5t-10 6.5q-5 4 -7.5 10.5t-2.5 12.5v305q0 82 -23 105
t-107 23h-402q-9 0 -17 -0.5t-15 -0.5q-7 -1 -13 1.5t-11 7.5q-5 4 -7.5 10t-2.5 13q2 104 43.5 144t150.5 40h402q110 0 152 -41.5t42 -149.5v-298q0 -86 -29.5 -135.5t-129.5 -55.5h-0.5h-0.5v0zM247 713h402q110 0 152 -41.5t42 -150.5v-269q37 6 50.5 31t13.5 92v298
q0 82 -23 104.5t-107 22.5h-402q-73 0 -98.5 -16t-29.5 -71v0zM297 168h-73q-14 0 -23 9.5t-9 22.5t9 22.5t23 9.5h73q13 0 22.5 -9.5t9.5 -22.5t-9.5 -22.5t-22.5 -9.5zM535 168h-146q-13 0 -22.5 9.5t-9.5 22.5t9.5 22.5t22.5 9.5h146q14 0 23 -9.5t9 -22.5t-9 -22.5
t-23 -9.5z" />
    <glyph glyph-name="uni0013" 
d="M619 565h-534q-13 0 -22.5 9.5t-9.5 22.5t9.5 22.5t22.5 9.5h534q13 0 22.5 -9.5t9.5 -22.5t-9.5 -22.5t-22.5 -9.5zM341 224h-85q-13 0 -22.5 9.5t-9.5 22.5t9.5 22.5t22.5 9.5h85q13 0 22.5 -9.5t9.5 -22.5t-9.5 -22.5t-22.5 -9.5v0zM619 224h-171q-13 0 -22.5 9.5
t-9.5 22.5t9.5 22.5t22.5 9.5h171q13 0 22.5 -9.5t9.5 -22.5t-9.5 -22.5t-22.5 -9.5zM749 53h-474q-128 0 -175 47t-47 173v350q0 126 47 173t175 47h344q13 0 22.5 -9.5t9.5 -22.5t-9.5 -22.5t-22.5 -9.5h-344q-101 0 -129.5 -28t-28.5 -128v-350q0 -99 28.5 -127
t129.5 -28h474q100 0 128.5 28t28.5 127v89q0 13 9.5 22.5t22.5 9.5t22.5 -9.5t9.5 -22.5v-89q1 -126 -46 -173t-175 -47v0zM853 523q-13 0 -22.5 9.5t-9.5 22.5v256q0 9 5.5 17.5t14.5 11.5q9 4 18.5 2t16.5 -9l85 -85q10 -9 10 -22.5t-10 -22.5q-9 -10 -22.5 -10t-22.5 10
l-31 30v-178q0 -13 -9.5 -22.5t-22.5 -9.5v0zM768 693q-6 0 -12 2.5t-11 7.5q-9 9 -9 22.5t9 22.5l86 85q9 10 22.5 10t22.5 -10q9 -9 9 -22.5t-9 -22.5l-85 -85q-5 -5 -11 -7.5t-12 -2.5v0z" />
    <glyph glyph-name="uni0014" 
d="M650 565h-565q-13 0 -22.5 9.5t-9.5 22.5t9.5 22.5t22.5 9.5h565q13 0 22.5 -9.5t9.5 -22.5t-9.5 -22.5t-22.5 -9.5zM311 224h-55q-13 0 -22.5 9.5t-9.5 22.5t9.5 22.5t22.5 9.5h55q13 0 22.5 -9.5t9.5 -22.5t-9.5 -22.5t-22.5 -9.5zM619 224h-150q-13 0 -22.5 9.5
t-9.5 22.5t9.5 22.5t22.5 9.5h150q13 0 22.5 -9.5t9.5 -22.5t-9.5 -22.5t-22.5 -9.5zM749 53h-408q-14 0 -23 9.5t-9 22.5t9 22.5t23 9.5h408q101 0 129.5 28t28.5 128v393q0 13 9.5 22.5t22.5 9.5t22.5 -9.5t9.5 -22.5v-393q0 -126 -47 -173t-175 -47v0zM158 69
q-3 0 -6 0.5t-6 1.5q-58 23 -75.5 75t-17.5 127v350q0 126 47 173t175 47h474q36 0 63.5 -3t48.5 -10q13 -4 19.5 -15.5t2.5 -23.5q-4 -13 -15.5 -19.5t-23.5 -2.5q-17 5 -40 7t-55 2h-474q-101 0 -129.5 -28t-28.5 -127v-350q0 -77 13.5 -105t39.5 -38q13 -5 18 -17t0 -24
q-4 -10 -12 -15t-18 -5v0zM85 -11q-6 0 -12 2.5t-10 7.5q-10 9 -10 22.5t10 22.5l853 853q9 10 22.5 10t22.5 -10q10 -9 10 -22.5t-10 -22.5l-853 -853q-5 -5 -11 -7.5t-12 -2.5v0z" />
    <glyph glyph-name="uni0015" 
d="M576 565h-491q-13 0 -22.5 9.5t-9.5 22.5t9.5 22.5t22.5 9.5h491q13 0 22.5 -9.5t9.5 -22.5t-9.5 -22.5t-22.5 -9.5zM341 224h-85q-13 0 -22.5 9.5t-9.5 22.5t9.5 22.5t22.5 9.5h85q13 0 22.5 -9.5t9.5 -22.5t-9.5 -22.5t-22.5 -9.5v0zM619 224h-171q-13 0 -22.5 9.5
t-9.5 22.5t9.5 22.5t22.5 9.5h171q13 0 22.5 -9.5t9.5 -22.5t-9.5 -22.5t-22.5 -9.5zM749 53h-474q-128 0 -175 47t-47 173v350q0 126 47 173t175 47h301q13 0 22.5 -9.5t9.5 -22.5t-9.5 -22.5t-22.5 -9.5h-301q-101 0 -129.5 -28t-28.5 -128v-350q0 -99 28.5 -127
t129.5 -28h474q100 0 128.5 28t28.5 127v217q0 13 9.5 22.5t22.5 9.5t22.5 -9.5t9.5 -22.5v-217q1 -126 -46 -173t-175 -47v0zM768 608q-6 0 -12 2.5t-11 6.5l-64 64q-9 10 -9 23t9 23q10 9 23 9t23 -9l41 -42l148 148q9 10 22.5 10t22.5 -10q10 -9 10 -22.5t-10 -22.5
l-170 -171q-5 -4 -11 -6.5t-12 -2.5v0z" />
    <glyph glyph-name="uni0016" 
d="M939 501h-854q-13 0 -22.5 9.5t-9.5 22.5t9.5 22.5t22.5 9.5h854q13 0 22.5 -9.5t9.5 -22.5t-9.5 -22.5t-22.5 -9.5zM493 53h-218q-128 0 -175 47t-47 173v350q0 101 33.5 156.5t147.5 61.5q9 1 19.5 1h21.5h474q127 0 174.5 -46.5t47.5 -172.5v-188q0 -13 -9.5 -22.5
t-22.5 -9.5t-22.5 9.5t-9.5 22.5v188q0 99 -28.5 127t-129.5 28h-474h-19.5t-18.5 -1q-70 -4 -95 -31t-25 -123v-351q0 -99 28.5 -127t129.5 -28h218q13 0 22.5 -9.5t9.5 -22.5t-9.5 -22.5t-22.5 -9.5v0zM427 245h-171q-13 0 -22.5 9.5t-9.5 22.5t9.5 22.5t22.5 9.5h171
q13 0 22.5 -9.5t9.5 -22.5t-9.5 -22.5t-22.5 -9.5zM768 -11q-53 0 -99.5 26.5t-73.5 72.5q-15 23 -22.5 49.5t-7.5 54.5q0 42 16 79t43.5 64.5t64.5 43.5t79 16t79 -16t64.5 -43.5t43.5 -64.5t16 -79q0 -28 -7.5 -54.5t-22.5 -50.5q-27 -45 -73.5 -71.5t-99.5 -26.5v0z
M768 331q-57 0 -98 -41t-41 -98q0 -19 5 -37t15 -34q19 -32 51 -50t68 -18t68 18t51 49q10 17 15 35t5 37q0 57 -41 98t-98 41v0zM744 118q-6 0 -12 2t-11 7l-42 42q-9 10 -9 23t9 23q9 9 22.5 9t22.5 -9l20 -21l69 63q9 9 22.5 8.5t22.5 -9.5q9 -10 8.5 -23.5t-10.5 -22.5
l-91 -84q-4 -4 -10 -6t-11 -2v0z" />
    <glyph glyph-name="uni0017" 
d="M299 501h-86q-77 0 -118.5 41.5t-41.5 118.5v86q0 77 41.5 118.5t118.5 41.5h86q77 0 118.5 -41.5t41.5 -118.5v-86q0 -77 -41.5 -118.5t-118.5 -41.5zM213 843q-50 0 -73 -23t-23 -73v-86q0 -50 23 -73t73 -23h86q50 0 73 23t23 73v86q0 50 -23 73t-73 23h-86zM811 501
h-86q-77 0 -118.5 41.5t-41.5 118.5v86q0 77 41.5 118.5t118.5 41.5h86q77 0 118.5 -41.5t41.5 -118.5v-86q0 -77 -41.5 -118.5t-118.5 -41.5zM725 843q-50 0 -73 -23t-23 -73v-86q0 -50 23 -73t73 -23h86q50 0 73 23t23 73v86q0 50 -23 73t-73 23h-86zM811 -11h-86
q-77 0 -118.5 41.5t-41.5 118.5v86q0 77 41.5 118.5t118.5 41.5h86q77 0 118.5 -41.5t41.5 -118.5v-86q0 -77 -41.5 -118.5t-118.5 -41.5zM725 331q-50 0 -73 -23t-23 -73v-86q0 -50 23 -73t73 -23h86q50 0 73 23t23 73v86q0 50 -23 73t-73 23h-86zM299 -11h-86
q-77 0 -118.5 41.5t-41.5 118.5v86q0 77 41.5 118.5t118.5 41.5h86q77 0 118.5 -41.5t41.5 -118.5v-86q0 -77 -41.5 -118.5t-118.5 -41.5zM213 331q-50 0 -73 -23t-23 -73v-86q0 -50 23 -73t73 -23h86q50 0 73 23t23 73v86q0 50 -23 73t-73 23h-86z" />
    <glyph glyph-name="uni0018" 
d="M811 501h-86q-77 0 -118.5 41.5t-41.5 118.5v86q0 77 41.5 118.5t118.5 41.5h86q77 0 118.5 -41.5t41.5 -118.5v-86q0 -77 -41.5 -118.5t-118.5 -41.5zM725 843q-50 0 -73 -23t-23 -73v-86q0 -50 23 -73t73 -23h86q50 0 73 23t23 73v86q0 50 -23 73t-73 23h-86zM299 -11
h-86q-77 0 -118.5 41.5t-41.5 118.5v86q0 77 41.5 118.5t118.5 41.5h86q77 0 118.5 -41.5t41.5 -118.5v-86q0 -77 -41.5 -118.5t-118.5 -41.5zM213 331q-50 0 -73 -23t-23 -73v-86q0 -50 23 -73t73 -23h86q50 0 73 23t23 73v86q0 50 -23 73t-73 23h-86zM256 501
q-42 0 -79 16t-64.5 43.5t-43.5 64.5t-16 79t16 79t43.5 64.5t64.5 43.5t79 16t79 -16t64.5 -43.5t43.5 -64.5t16 -79t-16 -79t-43.5 -64.5t-64.5 -43.5t-79 -16zM256 843q-57 0 -98 -41t-41 -98t41 -98t98 -41t98 41t41 98t-41 98t-98 41zM768 -11q-42 0 -79 16t-64.5 43.5
t-43.5 64.5t-16 79t16 79t43.5 64.5t64.5 43.5t79 16t79 -16t64.5 -43.5t43.5 -64.5t16 -79t-16 -79t-43.5 -64.5t-64.5 -43.5t-79 -16zM768 331q-57 0 -98 -41t-41 -98t41 -98t98 -41t98 41t41 98t-41 98t-98 41z" />
    <glyph glyph-name="uni0019" 
d="M512 -11q-95 0 -178 36q-84 37 -146 99t-99 146q-36 83 -36 178t36 178q37 84 99 146t146 99q83 36 178 36t178 -36q84 -37 146 -99t99 -146q36 -83 36 -178t-36 -178q-37 -84 -99 -146t-146 -99q-83 -36 -178 -36v0zM512 843q-82 0 -153 -31q-72 -31 -126 -85t-85 -126
q-31 -71 -31 -153t31 -153q31 -72 85 -126t126 -85q71 -31 153 -31t153 31q72 31 126 85t85 126q31 71 31 153t-31 153q-31 72 -85 126t-126 85q-71 31 -153 31v0zM512 331q-49 0 -83 34t-34 83t34 83t83 34t83 -34t34 -83t-34 -83t-83 -34zM512 501q-22 0 -37.5 -15.5
t-15.5 -37.5t15.5 -37.5t37.5 -15.5t37.5 15.5t15.5 37.5t-15.5 37.5t-37.5 15.5v0z" />
    <glyph glyph-name="uni001A" 
d="M299 333q-13 0 -22.5 9.5t-9.5 22.5v137q0 13 9.5 22.5t22.5 9.5t22.5 -9.5t9.5 -22.5v-137q0 -13 -9.5 -22.5t-22.5 -9.5zM512 259q-13 0 -22.5 9.5t-9.5 22.5v285q0 13 9.5 22.5t22.5 9.5t22.5 -9.5t9.5 -22.5v-285q0 -13 -9.5 -22.5t-22.5 -9.5zM725 333
q-13 0 -22.5 9.5t-9.5 22.5v137q0 13 9.5 22.5t22.5 9.5t22.5 -9.5t9.5 -22.5v-137q0 -13 -9.5 -22.5t-22.5 -9.5zM640 -11h-256q-87 0 -149 19q-63 20 -103 60t-60 103q-19 62 -19 149v256q0 87 19 149q20 63 60 103t103 60q62 19 149 19h256q87 0 149 -19q63 -20 103 -60
t60 -103q19 -62 19 -149v-256q0 -87 -19 -149q-20 -63 -60 -103t-103 -60q-62 -19 -149 -19v0zM384 843q-74 0 -125 -14t-82.5 -45.5t-45.5 -82.5t-14 -125v-256q0 -74 14 -125t45.5 -82.5t82.5 -45.5t125 -14h256q74 0 125 14t82.5 45.5t45.5 82.5t14 125v256q0 74 -14 125
t-45.5 82.5t-82.5 45.5t-125 14h-256v0z" />
    <glyph glyph-name="uni001B" 
d="M939 -11h-854q-13 0 -22.5 9.5t-9.5 22.5t9.5 22.5t22.5 9.5h854q13 0 22.5 -9.5t9.5 -22.5t-9.5 -22.5t-22.5 -9.5zM608 -11h-192q-13 0 -22.5 9.5t-9.5 22.5v768q0 55 29 86.5t80 31.5h38q51 0 80 -31.5t29 -86.5v-768q0 -13 -9.5 -22.5t-22.5 -9.5zM448 53h128v736
q0 37 -14 45.5t-31 8.5h-38q-17 0 -31 -8.5t-14 -45.5v-736v0zM299 -11h-171q-13 0 -22.5 9.5t-9.5 22.5v512q0 55 26.5 86.5t73.5 31.5h34q47 0 74 -31.5t27 -86.5v-512q0 -13 -9.5 -22.5t-22.5 -9.5zM160 53h107v480q0 40 -13.5 47t-23.5 7h-34q-9 0 -22.5 -7t-13.5 -47
v-480v0zM896 -11h-171q-13 0 -22.5 9.5t-9.5 22.5v299q0 55 27 86t74 31h34q47 0 73.5 -31t26.5 -86v-299q0 -13 -9.5 -22.5t-22.5 -9.5v0zM757 53h107v267q0 40 -13.5 46.5t-22.5 6.5h-34q-10 0 -23.5 -6.5t-13.5 -46.5v-267v0z" />
    <glyph glyph-name="uni001C" 
d="M640 -11h-256q-87 0 -149 19q-63 20 -103 60t-60 103q-19 62 -19 149v256q0 87 19 149q20 63 60 103t103 60q62 19 149 19h256q87 0 149 -19q63 -20 103 -60t60 -103q19 -62 19 -149v-256q0 -87 -19 -149q-20 -63 -60 -103t-103 -60q-62 -19 -149 -19v0zM384 843
q-74 0 -125 -14t-82.5 -45.5t-45.5 -82.5t-14 -125v-256q0 -74 14 -125t45.5 -82.5t82.5 -45.5t125 -14h256q74 0 125 14t82.5 45.5t45.5 82.5t14 125v256q0 74 -14 125t-45.5 82.5t-82.5 45.5t-125 14h-256v0zM661 139q-48 0 -82.5 34t-34.5 83v384q0 49 34.5 83t82.5 34
q49 0 83.5 -34t34.5 -83v-384q0 -49 -34.5 -83t-83.5 -34zM661 693q-22 0 -37.5 -15.5t-15.5 -37.5v-384q0 -22 15.5 -37.5t37.5 -15.5t38 15.5t16 37.5v384q0 22 -16 37.5t-38 15.5v0zM363 139q-49 0 -83.5 34t-34.5 83v149q0 49 34.5 83.5t83.5 34.5q48 0 82.5 -34.5
t34.5 -83.5v-149q0 -49 -34.5 -83t-82.5 -34v0zM363 459q-22 0 -38 -16t-16 -38v-149q0 -22 16 -37.5t38 -15.5t37.5 15.5t15.5 37.5v149q0 22 -15.5 38t-37.5 16v0z" />
    <glyph glyph-name="uni001D" 
d="M512 -11q-95 0 -178 36q-84 37 -146 99t-99 146q-36 83 -36 178q0 76 23.5 146t69.5 130q8 11 21 12.5t24 -6.5q10 -8 12 -21t-6 -23q-39 -52 -59.5 -112.5t-20.5 -125.5q0 -82 31 -153q31 -72 85 -126t126 -85q71 -31 153 -31t153 31q72 31 126 85t85 126q31 71 31 153
t-31 153q-31 72 -85 126t-126 85q-71 31 -153 31q-13 0 -22.5 9.5t-9.5 22.5t9.5 22.5t22.5 9.5q95 0 178 -36q84 -37 146 -99t99 -146q36 -83 36 -178t-36 -178q-37 -84 -99 -146t-146 -99q-83 -36 -178 -36v0zM512 117q-68 0 -129 26q-60 26 -105 71t-71 105
q-26 61 -26 129q0 13 9.5 22.5t22.5 9.5t22.5 -9.5t9.5 -22.5q0 -55 21 -104q21 -48 57.5 -84.5t84.5 -57.5q49 -21 104 -21t104 21q48 21 84.5 57.5t57.5 84.5q21 49 21 104t-21 104q-21 48 -57.5 84.5t-84.5 57.5q-49 21 -104 21q-13 0 -22.5 9.5t-9.5 22.5t9.5 22.5
t22.5 9.5q68 0 129 -26q60 -26 105 -71t71 -105q26 -61 26 -129t-26 -129q-26 -60 -71 -105t-105 -71q-61 -26 -129 -26v0zM512 245q-13 0 -22.5 9.5t-9.5 22.5t9.5 22.5t22.5 9.5q57 0 98 41t41 98t-41 98t-98 41q-13 0 -22.5 9.5t-9.5 22.5t9.5 22.5t22.5 9.5q42 0 79 -16
t64.5 -43.5t43.5 -64.5t16 -79t-16 -79t-43.5 -64.5t-64.5 -43.5t-79 -16z" />
    <glyph glyph-name="uni001E" 
d="M896 -11h-768q-13 0 -22.5 9.5t-9.5 22.5t9.5 22.5t22.5 9.5h768q13 0 22.5 -9.5t9.5 -22.5t-9.5 -22.5t-22.5 -9.5zM239 117h-68q-31 0 -53 22t-22 53v368q0 31 22 52.5t53 21.5h68q31 0 53 -21.5t22 -52.5v-368q0 -31 -22 -53t-53 -22v0zM171 571q-5 0 -8 -3t-3 -8
v-368q0 -4 3 -7.5t8 -3.5h68q4 0 7.5 3.5t3.5 7.5v368q0 4 -3.5 7t-7.5 3h-68v1v0zM546 117h-68q-31 0 -53 22t-22 53v504q0 31 22 53t53 22h68q31 0 53 -22t22 -53v-504q0 -31 -22 -53t-53 -22zM478 707q-5 0 -8 -3.5t-3 -7.5v-504q0 -4 3 -7.5t8 -3.5h68q5 0 8 3.5t3 7.5
v504q0 4 -3 7.5t-8 3.5h-68v0zM853 117h-68q-31 0 -53 22t-22 53v640q0 31 22 53t53 22h68q31 0 53 -22t22 -53v-640q0 -31 -22 -53t-53 -22v0zM785 843q-4 0 -7.5 -3.5t-3.5 -7.5v-640q0 -4 3.5 -7.5t7.5 -3.5h68q5 0 8 3.5t3 7.5v640q0 4 -3 7.5t-8 3.5h-68v0z" />
    <glyph glyph-name="uni001F" 
d="M735 42q-6 0 -12 2t-10 7q-10 9 -10 22.5t10 22.5l151 151q9 10 22.5 10t22.5 -10q9 -9 9 -22t-9 -23l-151 -151q-5 -4 -11 -6.5t-12 -2.5v0zM886 42q-6 0 -12 2t-10 7l-151 151q-10 10 -10 23t10 22q9 10 22 10t23 -10l151 -151q9 -9 9 -22.5t-9 -22.5q-5 -4 -11 -6.5
t-12 -2.5v0zM299 352q-13 0 -22.5 9.5t-9.5 22.5v128q0 13 9.5 22.5t22.5 9.5t22.5 -9.5t9.5 -22.5v-128q0 -13 -9.5 -22.5t-22.5 -9.5zM512 352q-13 0 -22.5 9.5t-9.5 22.5v128q0 13 9.5 22.5t22.5 9.5t22.5 -9.5t9.5 -22.5v-128q0 -13 -9.5 -22.5t-22.5 -9.5zM725 352
q-13 0 -22.5 9.5t-9.5 22.5v128q0 13 9.5 22.5t22.5 9.5t22.5 -9.5t9.5 -22.5v-128q0 -13 -9.5 -22.5t-22.5 -9.5zM555 -11h-171q-87 0 -149 19q-63 20 -103 60t-60 103q-19 62 -19 149v256q0 87 19 149q20 63 60 103t103 60q62 19 149 19h256q87 0 149 -19q63 -20 103 -60
t60 -103q19 -62 19 -149v-171q0 -13 -9.5 -22.5t-22.5 -9.5t-22.5 9.5t-9.5 22.5v171q0 74 -14 125t-45.5 82.5t-82.5 45.5t-125 14h-256q-74 0 -125 -14t-82.5 -45.5t-45.5 -82.5t-14 -125v-256q0 -74 14 -125t45.5 -82.5t82.5 -45.5t125 -14h171q13 0 22.5 -9.5t9.5 -22.5
t-9.5 -22.5t-22.5 -9.5v0z" />
    <glyph glyph-name="space" unicode=" " 
d="M431 186h-161q-13 0 -22.5 9t-9.5 23v218q0 33 23.5 57t56.5 24h113q13 0 22.5 -9.5t9.5 -22.5v-267q0 -13 -9.5 -22.5t-22.5 -9.5v0zM302 250h97v202h-81q-6 0 -11 -4.5t-5 -11.5v-186v0zM593 186h-162q-13 0 -22.5 9t-9.5 23v412q0 33 23.5 56.5t57.5 23.5h64
q34 0 57.5 -23.5t23.5 -56.5v-412q0 -14 -9.5 -23t-22.5 -9v0zM463 250h98v380q0 6 -5 11t-12 5h-64q-7 0 -12 -4.5t-5 -11.5v-380v0v0zM754 186h-161q-13 0 -22.5 9t-9.5 23v194q0 13 9.5 22.5t22.5 9.5h113q33 0 56.5 -24t23.5 -57v-145q0 -14 -9 -23t-23 -9zM625 250h97
v113q0 7 -4.5 12t-11.5 5h-81v-130v0zM640 -11h-256q-87 0 -149 19q-63 20 -103 60t-60 103q-19 62 -19 149v256q0 87 19 149q20 63 60 103t103 60q62 19 149 19h256q87 0 149 -19q63 -20 103 -60t60 -103q19 -62 19 -149v-256q0 -87 -19 -149q-20 -63 -60 -103t-103 -60
q-62 -19 -149 -19v0zM384 843q-74 0 -125 -14t-82.5 -45.5t-45.5 -82.5t-14 -125v-256q0 -74 14 -125t45.5 -82.5t82.5 -45.5t125 -14h256q74 0 125 14t82.5 45.5t45.5 82.5t14 125v256q0 74 -14 125t-45.5 82.5t-82.5 45.5t-125 14h-256v0z" />
    <glyph glyph-name="exclam" unicode="!" 
d="M299 333q-13 0 -22.5 9.5t-9.5 22.5v137q0 13 9.5 22.5t22.5 9.5t22.5 -9.5t9.5 -22.5v-137q0 -13 -9.5 -22.5t-22.5 -9.5zM725 333q-13 0 -22.5 9.5t-9.5 22.5v137q0 13 9.5 22.5t22.5 9.5t22.5 -9.5t9.5 -22.5v-137q0 -13 -9.5 -22.5t-22.5 -9.5zM555 -11h-171
q-87 0 -149 19q-63 20 -103 60t-60 103q-19 62 -19 149v256q0 87 19 149q20 63 60 103t103 60q62 19 149 19h256q87 0 149 -19q63 -20 103 -60t60 -103q19 -62 19 -149v-171q0 -13 -9.5 -22.5t-22.5 -9.5t-22.5 9.5t-9.5 22.5v171q0 74 -14 125t-45.5 82.5t-82.5 45.5
t-125 14h-256q-74 0 -125 -14t-82.5 -45.5t-45.5 -82.5t-14 -125v-256q0 -74 14 -125t45.5 -82.5t82.5 -45.5t125 -14h171q13 0 22.5 -9.5t9.5 -22.5t-9.5 -22.5t-22.5 -9.5v0zM750 32q-6 0 -12 2.5t-11 6.5l-67 67q-9 10 -9.5 23t9.5 23q9 9 22.5 9t22.5 -9l43 -43l124 145
q9 10 22 11t23 -8t11 -22t-7 -23l-146 -171q-5 -5 -10.5 -8t-12.5 -3h-1.5h-0.5v0zM512 352q-13 0 -22.5 9.5t-9.5 22.5v128q0 13 9.5 22.5t22.5 9.5t22.5 -9.5t9.5 -22.5v-128q0 -13 -9.5 -22.5t-22.5 -9.5z" />
    <glyph glyph-name="quotedbl" unicode="&#x22;" 
d="M470 96h-150q-24 0 -42 1t-34 3q-106 12 -137.5 74t-31.5 167v214q0 105 32 167t139 74q14 2 32 3t42 1h148q13 0 22.5 -9.5t9.5 -22.5t-9.5 -22.5t-22.5 -9.5h-148q-22 0 -38 -1t-28 -2q-65 -7 -90 -39.5t-25 -138.5v-214q0 -106 25 -138t89 -40q13 -2 29 -2.5t38 -0.5
h150q13 0 22.5 -9.5t9.5 -22.5t-9.5 -22.5t-22.5 -9.5v0zM704 96h-63q-13 0 -22.5 9.5t-9.5 22.5t9.5 22.5t22.5 9.5h63q22 0 38 1t28 2q65 7 90 39.5t25 138.5v214q0 106 -25 138t-89 40q-13 2 -29 2.5t-38 0.5h-63q-13 0 -22.5 9.5t-9.5 22.5t9.5 22.5t22.5 9.5h63
q24 0 42 -1t33 -3q107 -12 138.5 -74t31.5 -167v-214q0 -105 -32 -167t-139 -74q-14 -2 -32 -3t-42 -1v0zM640 -11q-13 0 -22.5 9.5t-9.5 22.5v854q0 13 9.5 22.5t22.5 9.5t22.5 -9.5t9.5 -22.5v-854q0 -13 -9.5 -22.5t-22.5 -9.5zM341 267q-13 0 -22.5 9.5t-9.5 22.5v298
q0 13 9.5 22.5t22.5 9.5t22.5 -9.5t9.5 -22.5v-298q0 -13 -9.5 -22.5t-22.5 -9.5z" />
    <glyph glyph-name="numbersign" unicode="#" 
d="M512 -11q-95 0 -178 36q-84 37 -146 99t-99 146q-36 83 -36 178t36 178q37 84 99 146t146 99q83 36 178 36t178 -36q84 -37 146 -99t99 -146q36 -83 36 -178t-36 -178q-37 -84 -99 -146t-146 -99q-83 -36 -178 -36v0zM512 843q-82 0 -153 -31q-72 -31 -126 -85t-85 -126
q-31 -71 -31 -153t31 -153q31 -72 85 -126t126 -85q71 -31 153 -31t153 31q72 31 126 85t85 126q31 71 31 153t-31 153q-31 72 -85 126t-126 85q-71 31 -153 31v0zM512 245q-42 0 -79 16t-64.5 43.5t-43.5 64.5t-16 79t16 79t43.5 64.5t64.5 43.5t79 16t79 -16t64.5 -43.5
t43.5 -64.5t16 -79t-16 -79t-43.5 -64.5t-64.5 -43.5t-79 -16zM512 587q-57 0 -98 -41t-41 -98t41 -98t98 -41t98 41t41 98t-41 98t-98 41v0zM903 587h-3t-4 1q-47 10 -94 15t-94.5 5t-94.5 -5t-94 -15q-13 -3 -24 4t-14 20t4 24t20 14q51 11 101 16q51 6 101.5 6t101.5 -6
q51 -5 101 -16q13 -3 20 -14t4 -24q-2 -11 -11 -18t-20 -7v0zM364 331q-6 0 -12.5 2.5t-11.5 8.5q-33 38 -62 79q-30 41 -55 84.5t-46 88.5q-21 46 -38 94l30 13l30 11l1 -3q15 -45 35 -88t43.5 -83.5t51.5 -79.5q27 -38 59 -74q8 -10 7.5 -23.5t-10.5 -22.5q-5 -3 -10.5 -5
t-11.5 -2v0zM464 -8q-6 0 -11.5 2t-9.5 6q-10 9 -10.5 22t8.5 23q32 35 60 73q27 38 50.5 78.5t43.5 83.5q19 43 33 89q5 12 17 19t24 3q13 -4 19.5 -15t2.5 -24q-16 -49 -37 -96t-46.5 -91t-54.5 -85q-30 -41 -64 -78q-6 -5 -12 -7.5t-13 -2.5v0z" />
    <glyph glyph-name="dollar" unicode="$" 
d="M557 131q-18 0 -36 2t-38 5l-200 31q-48 8 -84.5 21t-63.5 32q-70 49 -77.5 122.5t1.5 132.5l31 200q11 68 35 116q23 48 61 75t90 35q53 8 122 -3l200 -31q35 -6 74 -17q39 -12 72.5 -35.5t56.5 -61.5q23 -39 26 -98q1 -21 -0.5 -44.5t-5.5 -51.5l-31 -200
q-19 -117 -75.5 -173.5t-157.5 -56.5v0zM321 843q-76 0 -114 -41.5t-53 -135.5l-32 -200q-15 -94 5 -134t44 -58q22 -15 52 -25t70 -16l200 -32q111 -18 163.5 20.5t70.5 150.5l31 200q4 24 5 44t0 37v1q-4 67 -45 102.5t-131 49.5l-199 31q-19 3 -35.5 4.5t-31.5 1.5v0z
M626 -11q-27 0 -58 6t-66 18l-193 64q-82 27 -127.5 67t-59.5 97q-2 10 1.5 19t12.5 15q8 5 18 5t18 -6q21 -15 51 -25t70 -16l200 -32q111 -18 163.5 20.5t70.5 150.5l31 200q4 24 5 44t0 37q0 9 3.5 16.5t11.5 12.5q7 5 16 5t16 -4q86 -46 109 -121t-14 -187l-64 -192
q-22 -68 -52.5 -110.5t-72.5 -63.5q-20 -10 -42.5 -15t-47.5 -5v0zM244 177q16 -11 37 -20.5t48 -19.5l193 -64q55 -18 95 -19.5t70 12.5q29 15 52 48.5t41 88.5l64 192q27 79 19.5 125.5t-38.5 74.5q0 -8 -1.5 -16.5t-2.5 -17.5l-31 -200q-11 -68 -35 -116q-23 -48 -61 -75
t-90 -35q-53 -8 -121 2l-201 32q-9 2 -19 4t-19 4v0zM352 545q-44 0 -75.5 31.5t-31.5 75.5q0 43 31.5 74.5t75.5 31.5q43 0 74.5 -31.5t31.5 -74.5q0 -44 -31.5 -75.5t-74.5 -31.5zM352 693q-18 0 -30.5 -12t-12.5 -30t12.5 -30t30.5 -12q17 0 29.5 12t12.5 30t-12.5 30
t-29.5 12z" />
    <glyph glyph-name="percent" unicode="%" 
d="M597 239q-6 0 -11.5 2t-10.5 7l-169 169q-9 9 -9 22.5t9 22.5t22.5 9t22.5 -9l169 -169q9 -9 9 -22.5t-9 -22.5q-5 -5 -11 -7t-12 -2v0zM427 237q-6 0 -12 2t-11 7q-9 9 -9 22.5t9 22.5l169 169q9 10 22.5 10t22.5 -10q9 -9 9 -22.5t-9 -22.5l-169 -169q-5 -5 -10.5 -7
t-11.5 -2v0zM597 672h-170q-31 0 -74.5 14.5t-43.5 102.5t43.5 103t74.5 15h170q31 0 74.5 -15t43.5 -103q0 -30 -15 -73.5t-103 -43.5zM427 843q-32 0 -43 -7t-11 -47t11 -46.5t43 -6.5h170q40 0 47 11t7 42q0 40 -11 47t-43 7h-170v0zM640 -11h-256q-90 0 -146 20
t-87.5 57.5t-43.5 90.5q-11 54 -11 120v256q0 73 14 126q13 53 42.5 87.5t75.5 52.5q47 18 112 21q13 1 23 -8t10 -22q1 -14 -8 -23.5t-22 -10.5q-91 -5 -137 -46.5t-46 -176.5v-256q0 -118 39.5 -171t184.5 -53h256q145 0 184.5 53t39.5 171v256q0 135 -46 176.5t-137 46.5
q-13 1 -22 11t-8 23q0 13 10 22t23 8q65 -3 112 -21q46 -18 75.5 -52.5t42.5 -87.5q14 -52 14 -125v-256q0 -67 -11 -121q-12 -53 -43.5 -90.5t-87.5 -57.5t-146 -20v0z" />
    <glyph glyph-name="ampersand" unicode="&#x26;" 
d="M597 672h-170q-31 0 -74.5 14.5t-43.5 102.5t43.5 103t74.5 15h170q31 0 74.5 -15t43.5 -103q0 -30 -15 -73.5t-103 -43.5zM427 843q-32 0 -43 -7t-11 -47t11 -46.5t43 -6.5h170q40 0 47 11t7 42q0 40 -11 47t-43 7h-170v0zM597 -11h-213q-90 0 -146 20t-87.5 57.5
t-43.5 90.5q-11 54 -11 120v256q0 73 14 126q13 53 42.5 87.5t75.5 52.5q47 18 112 21q12 1 22.5 -8t10.5 -22q1 -14 -8 -23.5t-22 -10.5q-91 -5 -137 -46.5t-46 -176.5v-256q0 -118 39.5 -171t184.5 -53h213q13 0 22.5 -9.5t9.5 -22.5t-9.5 -22.5t-22.5 -9.5v0zM896 288
q-13 0 -22.5 9.5t-9.5 22.5v213q0 135 -46 176.5t-137 46.5q-13 1 -22 11t-8 23q0 13 10 22t23 8q65 -3 112 -21q46 -18 75.5 -52.5t42.5 -87.5q14 -52 14 -125v-214q0 -13 -9.5 -22.5t-22.5 -9.5v0zM640 117q-13 0 -22.5 9.5t-9.5 22.5v128q0 13 9.5 22.5t22.5 9.5h128
q13 0 22.5 -9.5t9.5 -22.5t-9.5 -22.5t-22.5 -9.5h-96v-96q0 -13 -9.5 -22.5t-22.5 -9.5zM896 -11q-6 0 -12 2.5t-11 7.5l-254 254q-9 9 -9 22.5t9 22.5q9 10 22.5 10t22.5 -10l255 -254q9 -9 9 -22.5t-9 -22.5q-5 -5 -11 -7.5t-12 -2.5v0z" />
    <glyph glyph-name="quotesingle" unicode="'" 
d="M597 672h-170q-31 0 -74.5 14.5t-43.5 102.5t43.5 103t74.5 15h170q31 0 74.5 -15t43.5 -103q0 -30 -15 -73.5t-103 -43.5zM427 843q-32 0 -43 -7t-11 -47t11 -46.5t43 -6.5h170q40 0 47 11t7 42q0 40 -11 47t-43 7h-170v0zM597 -11h-213q-90 0 -146 20t-87.5 57.5
t-43.5 90.5q-11 54 -11 120v256q0 73 14 126q13 53 42.5 87.5t75.5 52.5q47 18 112 21q12 1 22.5 -8t10.5 -22q1 -14 -8 -23.5t-22 -10.5q-91 -5 -137 -46.5t-46 -176.5v-256q0 -118 39.5 -171t184.5 -53h213q13 0 22.5 -9.5t9.5 -22.5t-9.5 -22.5t-22.5 -9.5v0zM896 288
q-13 0 -22.5 9.5t-9.5 22.5v213q0 135 -46 176.5t-137 46.5q-13 1 -22 11t-8 23q0 13 10.5 22t22.5 8q65 -3 112 -21q46 -18 75.5 -52.5t42.5 -87.5q14 -52 14 -125v-214q0 -13 -9.5 -22.5t-22.5 -9.5v0zM896 -11h-128q-13 0 -22.5 9.5t-9.5 22.5t9.5 22.5t22.5 9.5h96v96
q0 13 9.5 22.5t22.5 9.5t22.5 -9.5t9.5 -22.5v-128q0 -13 -9.5 -22.5t-22.5 -9.5zM894 -9q-6 0 -12 2.5t-10 6.5l-255 255q-9 9 -9 22.5t9 22.5q10 9 23 9t23 -9l254 -254q9 -10 9 -23t-9 -23q-5 -4 -11 -6.5t-12 -2.5v0z" />
    <glyph glyph-name="parenleft" unicode="(" 
d="M640 407h-299q-13 0 -22.5 9.5t-9.5 22.5q0 14 9.5 23t22.5 9h299q13 0 22.5 -9t9.5 -23q0 -13 -9.5 -22.5t-22.5 -9.5zM528 237h-187q-13 0 -22.5 9.5t-9.5 22.5t9.5 22.5t22.5 9.5h187q13 0 22.5 -9.5t9.5 -22.5t-9.5 -22.5t-22.5 -9.5zM597 672h-170q-31 0 -74.5 14.5
t-43.5 102.5t43.5 103t74.5 15h170q31 0 74.5 -15t43.5 -103q0 -30 -15 -73.5t-103 -43.5zM427 843q-32 0 -43 -7t-11 -47t11 -46.5t43 -6.5h170q40 0 47 11t7 42q0 40 -11 47t-43 7h-170v0zM640 -11h-256q-90 0 -146 20t-87.5 57.5t-43.5 90.5q-11 54 -11 120v256
q0 73 14 126q13 53 42.5 87.5t75.5 52.5q47 18 112 21q12 1 22.5 -8t10.5 -22q1 -14 -8 -23.5t-22 -10.5q-91 -5 -137 -46.5t-46 -176.5v-256q0 -118 39.5 -171t184.5 -53h256q145 0 184.5 53t39.5 171v256q0 135 -46 176.5t-137 46.5q-13 1 -22 11t-8 23q0 13 10 22t23 8
q65 -3 112 -21q46 -18 75.5 -52.5t42.5 -87.5q14 -52 14 -125v-256q0 -67 -11 -121q-12 -53 -43.5 -90.5t-87.5 -57.5t-146 -20v0z" />
    <glyph glyph-name="parenright" unicode=")" 
d="M461 237q-6 0 -12 2t-10 7l-64 64q-10 9 -10 22.5t10 22.5q9 10 22.5 10t22.5 -10l41 -41l148 148q10 9 23 9t23 -9q9 -9 9 -22.5t-9 -22.5l-171 -171q-5 -5 -11 -7t-12 -2v0zM597 672h-170q-31 0 -74.5 14.5t-43.5 102.5t43.5 103t74.5 15h170q31 0 74.5 -15t43.5 -103
q0 -30 -15 -73.5t-103 -43.5zM427 843q-32 0 -43 -7t-11 -47t11 -46.5t43 -6.5h170q40 0 47 11t7 42q0 40 -11 47t-43 7h-170v0zM640 -11h-256q-90 0 -146 20t-87.5 57.5t-43.5 90.5q-11 54 -11 120v256q0 73 14 126q13 53 42.5 87.5t75.5 52.5q47 18 112 21q13 1 23 -8
t10 -22q1 -14 -8 -23.5t-22 -10.5q-91 -5 -137 -46.5t-46 -176.5v-256q0 -118 39.5 -171t184.5 -53h256q145 0 184.5 53t39.5 171v256q0 135 -46 176.5t-137 46.5q-13 1 -22 11t-8 23q0 13 10 22t23 8q65 -3 112 -21q46 -18 75.5 -52.5t42.5 -87.5q14 -52 14 -125v-256
q0 -67 -11 -121q-12 -53 -43.5 -90.5t-87.5 -57.5t-146 -20v0z" />
    <glyph glyph-name="asterisk" unicode="*" 
d="M512 -11q-95 0 -178 36q-84 37 -146 99t-99 146q-36 83 -36 178t36 178q37 84 99 146t146 99q83 36 178 36t178 -36q84 -37 146 -99t99 -146q36 -83 36 -178t-36 -178q-37 -84 -99 -146t-146 -99q-83 -36 -178 -36v0zM512 843q-82 0 -153 -31q-72 -31 -126 -85t-85 -126
q-31 -71 -31 -153t31 -153q31 -72 85 -126t126 -85q71 -31 153 -31t153 31q72 31 126 85t85 126q31 71 31 153t-31 153q-31 72 -85 126t-126 85q-71 31 -153 31v0zM670 280q-4 0 -8 1t-8 4l-132 79q-25 15 -41 43.5t-16 57.5v175q0 13 9.5 22.5t22.5 9.5t22.5 -9.5
t9.5 -22.5v-175q0 -12 8 -26t18 -20l132 -79q11 -7 14.5 -19.5t-3.5 -24.5q-5 -8 -12.5 -12t-15.5 -4v0z" />
    <glyph glyph-name="plus" unicode="+" 
d="M572 337q-6 0 -12 2.5t-11 6.5l-60 60q-4 5 -6.5 10.5t-2.5 12.5v119q0 13 9.5 22.5t22.5 9.5t22.5 -9.5t9.5 -22.5v-106l50 -50q10 -10 10 -23t-10 -23q-4 -4 -10 -6.5t-12 -2.5v0zM512 139q-51 0 -98 15.5t-88 46.5q-1 0 -1.5 0.5l-1.5 1.5q-57 44 -88.5 108.5
t-31.5 136.5q0 64 24 120q24 57 66 99t99 66q56 24 120 24t120 -24q57 -24 99 -66t66 -99q24 -56 24 -120q0 -72 -31 -136t-88 -108l-1.5 -1.5l-1.5 -1.5q-41 -30 -88.5 -46t-98.5 -16v0zM360 256l1.5 -1.5l1.5 -1.5q32 -25 71 -37q39 -13 79 -12.5t79 12.5q38 13 71 38
q0 1 1 1.5t2 0.5q43 36 67 86t24 106q0 51 -19 95q-19 45 -52.5 78.5t-78.5 52.5q-44 19 -95 19t-95 -19q-45 -19 -78.5 -52.5t-52.5 -78.5q-19 -44 -19 -95q0 -57 24 -107t69 -85v0zM535 -11h-46q-63 0 -101.5 31.5t-55.5 95.5l-21 106q-1 7 0.5 14t6.5 12q5 6 11.5 9
t13.5 3v0q5 0 10 -1.5t10 -5.5q32 -25 71 -38q39 -12 79 -12t79 13q38 13 71 38q10 8 23 6.5t21 -11.5q5 -6 7 -13t0 -14l-22 -105q-16 -65 -55 -96.5t-102 -31.5v0zM388 165l7 -34q12 -48 36 -63t58 -15h46q34 0 58 15t37 63l7 34q-58 -26 -124.5 -26t-124.5 26v0zM683 635
q-6 0 -11 2t-9 5q-33 25 -71 38q-39 12 -79 12.5t-79 -12.5q-39 -12 -71 -37q-10 -8 -23.5 -6.5t-21.5 10.5q-4 6 -6 13t-1 14l21 104q17 65 55.5 97t101.5 32h46q63 0 101.5 -31.5t55.5 -95.5l22 -107q1 -7 -0.5 -14t-6.5 -12q-4 -6 -10.5 -9t-13.5 -3v0zM512 757
q33 0 64 -6.5t61 -19.5l-8 35q-12 47 -36 62t-58 15h-46q-34 0 -58 -15t-36 -64l-7 -33q29 13 60 19.5t64 6.5z" />
    <glyph glyph-name="comma" unicode="," 
d="M512 -11q-95 0 -178 36q-84 37 -146 99t-99 146q-36 83 -36 178t36 178q37 84 99 146t146 99q83 36 178 36t178 -36q84 -37 146 -99t99 -146q36 -83 36 -178t-36 -178q-37 -84 -99 -146t-146 -99q-83 -36 -178 -36v0zM512 843q-82 0 -153 -31q-72 -31 -126 -85t-85 -126
q-31 -71 -31 -153t31 -153q31 -72 85 -126t126 -85q71 -31 153 -31t153 31q72 31 126 85t85 126q31 71 31 153t-31 153q-31 72 -85 126t-126 85q-71 31 -153 31v0zM391 295q-6 0 -12 2.5t-10 7.5q-10 9 -10 22.5t10 22.5l241 241q9 10 22.5 10t22.5 -10q10 -9 10 -22.5
t-10 -22.5l-241 -241q-5 -5 -11 -7.5t-12 -2.5v0zM633 295q-6 0 -12 2.5t-11 7.5l-241 241q-10 9 -10 22.5t10 22.5q9 10 22.5 10t22.5 -10l241 -241q10 -9 10 -22.5t-10 -22.5q-4 -5 -10 -7.5t-12 -2.5v0z" />
    <glyph glyph-name="hyphen" unicode="-" 
d="M391 295q-6 0 -12 2.5t-10 7.5q-10 9 -10 22.5t10 22.5l241 241q9 10 22.5 10t22.5 -10q10 -9 10 -22.5t-10 -22.5l-241 -241q-5 -5 -11 -7.5t-12 -2.5v0zM633 295q-6 0 -12 2.5t-11 7.5l-241 241q-10 9 -10 22.5t10 22.5q9 10 22.5 10t22.5 -10l241 -241q10 -9 10 -22.5
t-10 -22.5q-4 -5 -10 -7.5t-12 -2.5v0zM640 -11h-256q-87 0 -149 19q-63 20 -103 60t-60 103q-19 62 -19 149v256q0 87 19 149q20 63 60 103t103 60q62 19 149 19h256q87 0 149 -19q63 -20 103 -60t60 -103q19 -62 19 -149v-256q0 -87 -19 -149q-20 -63 -60 -103t-103 -60
q-62 -19 -149 -19v0zM384 843q-74 0 -125 -14t-82.5 -45.5t-45.5 -82.5t-14 -125v-256q0 -74 14 -125t45.5 -82.5t82.5 -45.5t125 -14h256q74 0 125 14t82.5 45.5t45.5 82.5t14 125v256q0 74 -14 125t-45.5 82.5t-82.5 45.5t-125 14h-256v0z" />
    <glyph glyph-name="period" unicode="." 
d="M712 71h-1.5h-0.5h-473q-94 7 -138 67t-44 125q0 57 34.5 112.5t108.5 72.5q-21 80 -4 152.5t69 127.5q29 31 67 52q37 22 78.5 32.5t84.5 10.5q43 -1 84 -13q75 -23 126 -82.5t70 -145.5q66 -14 115 -61t70 -116q23 -74 4 -145.5t-75 -120.5q-36 -33 -81.5 -50.5
t-93.5 -17.5zM238 390h-1v0q-61 -4 -89.5 -43.5t-28.5 -83.5q0 -45 28.5 -84t90.5 -44h472q37 1 71.5 13.5t61.5 37.5q50 44 58.5 100.5t-5.5 100.5q-13 44 -51 86t-103 50q-11 1 -18.5 8.5t-9.5 18.5q-13 76 -53.5 127.5t-102.5 70.5q-65 20 -133.5 2t-115.5 -66
q-43 -45 -54.5 -104.5t7.5 -127.5q17 -2 32.5 -7t29.5 -12q12 -6 16 -18.5t-2 -24.5t-18.5 -16t-24.5 2q-13 7 -27 10.5t-29 3.5h-0.5h-0.5v0zM676 505q-9 0 -16.5 4.5t-11.5 13.5q-6 12 -2 24.5t16 18.5q20 10 41.5 15t43.5 6q13 0 23 -9t10 -23q0 -13 -9.5 -22.5
t-22.5 -9.5q-15 -1 -29.5 -4.5t-28.5 -9.5q-3 -2 -6.5 -3t-7.5 -1v0z" />
    <glyph glyph-name="slash" unicode="/" 
d="M318 135h-82q-94 7 -137.5 67t-43.5 124t43.5 124.5t135.5 66.5q13 1 23 -7.5t11 -22.5q1 -13 -7.5 -23t-21.5 -11q-63 -4 -91.5 -43.5t-28.5 -83.5q0 -45 28.5 -84.5t91.5 -43.5h79q13 0 22.5 -9.5t9.5 -22.5t-9.5 -22t-22.5 -9v0zM711 135h-0.5h-1.5q-13 0 -23.5 9.5
t-10.5 22.5q0 14 9.5 23t22.5 9q39 0 74 13t62 38q50 44 58 100t-5 101q-13 43 -51.5 85.5t-103.5 50.5q-10 1 -18 8.5t-10 17.5q-12 77 -52.5 128.5t-102.5 70.5q-65 20 -134 2t-116 -67q-46 -48 -56 -113t16 -138q5 -13 -0.5 -25t-18.5 -16q-12 -5 -24 1t-17 18
q-16 45 -20 89q-5 44 2 84.5t25 76.5t47 67q30 31 67 52q38 22 79 32.5t84 10.5q44 -1 84 -13q75 -23 126 -82.5t70 -144.5q66 -15 115 -62t70 -116q23 -74 3.5 -146t-75.5 -120q-35 -32 -80 -49.5t-94 -17.5v0zM512 9q-64 0 -120.5 32t-89.5 88q-3 5 -6.5 11.5t-6.5 13.5
q-11 23 -16.5 48.5t-5.5 52.5q0 50 19 95t52.5 78t78.5 53q44 19 95 19t95 -19q45 -20 78.5 -53t52.5 -78t19 -95q0 -27 -5.5 -53t-17.5 -49q-2 -6 -5.5 -12.5t-7.5 -12.5q-32 -55 -88.5 -87t-120.5 -32v0zM512 436q-75 0 -128 -53t-53 -128q0 -20 4 -38.5t12 -35.5
q2 -6 4.5 -10.5t5.5 -8.5q24 -41 65.5 -65t89.5 -24q47 0 88.5 24t65.5 64q3 5 5.5 9.5t4.5 9.5q8 17 12.5 35.5t4.5 38.5q0 75 -53 128.5t-128 53.5v0zM488 180q-6 0 -12 2.5t-11 7.5l-42 42q-9 9 -9 22.5t9 22.5q9 10 22.5 10t22.5 -10l21 -20l68 63q10 9 23 8.5t22 -10.5
q9 -9 8.5 -22.5t-10.5 -22.5l-91 -84q-4 -4 -10 -6.5t-11 -2.5v0z" />
    <glyph glyph-name="zero" unicode="0" 
d="M632 230h-0.5h-0.5h-285q-63 5 -92.5 45t-29.5 83q0 37 20.5 71.5t62.5 49.5q-9 48 2.5 91.5t42.5 76.5q39 40 94.5 54.5t108.5 -1.5q46 -14 78.5 -50t45.5 -89q40 -11 70 -40.5t43 -72.5q15 -49 2.5 -95.5t-49.5 -78.5q-23 -21 -52 -32.5t-61 -11.5v0zM347 422
q-32 -2 -45.5 -22.5t-13.5 -41.5q0 -20 13.5 -40.5t46.5 -23.5h283q20 0 38.5 7t32.5 21q27 23 31.5 53.5t-2.5 54.5q-7 23 -27.5 45.5t-55.5 27.5q-10 1 -18 8.5t-10 17.5q-7 43 -29 71t-56 39t-72.5 0.5t-63.5 -36.5t-30.5 -61.5t8.5 -76.5q5 -12 -1 -24t-18 -17
q-3 -1 -6 -1.5t-5 -0.5v0zM384 -11q-68 0 -129 26q-60 26 -105 71t-71 105q-26 61 -26 129q0 13 9.5 22.5t22.5 9.5t22.5 -9.5t9.5 -22.5q0 -47 16 -90q15 -43 43 -77t65 -58q38 -24 82 -35l-11 19q-7 12 -4 25t15 19q11 7 24 4t20 -15l45 -74q4 -8 4 -16.5t-4 -15.5
q-4 -8 -11.5 -12.5t-16.5 -4.5v0zM939 544q-13 0 -22.5 9.5t-9.5 22.5q0 47 -16 90q-15 43 -43 77t-65 58q-38 24 -82 35l11 -19q7 -12 4 -25t-15 -19q-11 -7 -24 -4t-20 15l-45 74q-4 8 -4 16.5t4 15.5q4 8 11.5 12.5t16.5 4.5q68 0 128 -26t105 -71t71 -105
q26 -61 26 -129q1 -13 -8.5 -22.5t-22.5 -9.5v0z" />
    <glyph glyph-name="one" unicode="1" 
d="M685 245h-0.5h-0.5h-413q-84 6 -123 59.5t-39 111.5q0 51 30 99.5t93 64.5q-17 70 -2 132.5t61 110.5q52 55 129 75t149 -3q66 -20 111 -71.5t62 -126.5q57 -14 100 -55t62 -101q20 -66 2.5 -129.5t-66.5 -106.5q-31 -29 -71 -44.5t-84 -15.5v0zM273 522
q-51 -4 -75 -36.5t-24 -69.5t24 -70t76 -37h410h1h1q31 0 60 11.5t52 32.5q42 37 49 84.5t-4 84.5q-11 38 -43.5 73.5t-88.5 42.5q-10 1 -18 8.5t-9 17.5q-11 66 -45.5 109.5t-87.5 60.5q-55 16 -114.5 0.5t-99.5 -56.5q-38 -41 -47 -96t14 -118q4 -12 -1.5 -24t-17.5 -16
q-3 -1 -6 -1.5t-6 -0.5v0zM512 117q-13 0 -22.5 9.5t-9.5 22.5v128q0 13 9.5 22.5t22.5 9.5t22.5 -9.5t9.5 -22.5v-128q0 -13 -9.5 -22.5t-22.5 -9.5zM512 -53q-49 0 -83 34t-34 83t34 83t83 34t83 -34t34 -83t-34 -83t-83 -34zM512 117q-22 0 -37.5 -15.5t-15.5 -37.5
t15.5 -37.5t37.5 -15.5t37.5 15.5t15.5 37.5t-15.5 37.5t-37.5 15.5zM768 32h-171q-13 0 -22.5 9.5t-9.5 22.5t9.5 22.5t22.5 9.5h171q13 0 22.5 -9.5t9.5 -22.5t-9.5 -22.5t-22.5 -9.5zM427 32h-171q-13 0 -22.5 9.5t-9.5 22.5t9.5 22.5t22.5 9.5h171q13 0 22.5 -9.5
t9.5 -22.5t-9.5 -22.5t-22.5 -9.5z" />
    <glyph glyph-name="two" unicode="2" 
d="M710 75h-0.5h-0.5q-13 0 -22.5 9.5t-9.5 22.5t9.5 22.5t22.5 9.5h0.5h1.5q36 0 70 13t61 38q49 43 57.5 99t-4.5 100q-14 44 -51.5 85.5t-102.5 50.5q-11 1 -18.5 8.5t-9.5 17.5q-13 77 -53 128t-102 70q-65 20 -133 2t-115 -67q-45 -47 -55.5 -111.5t15.5 -137.5
q5 -13 -0.5 -25t-18.5 -16q-12 -5 -24 1t-17 18q-16 45 -20 89q-5 43 2 83.5t25 76.5t47 66q30 31 67 53q37 21 78 31.5t84 10.5q43 -1 84 -13q75 -23 125.5 -82t69.5 -144q66 -15 115 -61.5t70 -115.5q22 -74 3 -145t-75 -120q-36 -33 -81 -50t-94 -17v0zM238 75h-1.5h-0.5
q-93 6 -136 66t-43 124q0 65 43 124.5t136 66.5q24 0 46.5 -5t43.5 -15q11 -6 15 -19t-1 -24q-6 -12 -19 -16t-24 1q-14 7 -29 10.5t-29 3.5q-61 -4 -89.5 -43t-28.5 -84q0 -44 29 -83t91 -43q13 -1 21.5 -11t7.5 -23t-10.5 -21.5t-21.5 -8.5v0zM675 506q-9 0 -16.5 4.5
t-12.5 13.5q-6 12 -1.5 24.5t16.5 18.5q19 10 41 15.5t43 5.5q13 -1 23 -9.5t10 -22.5q0 -13 -9 -22.5t-23 -9.5t-28.5 -3.5t-28.5 -10.5q-3 -2 -6.5 -3t-7.5 -1v0zM408 15q-6 0 -12 2t-11 7q-9 9 -9 22.5t9 22.5l121 121q9 9 22.5 9t22.5 -9q10 -9 10 -22.5t-10 -22.5
l-120 -121q-5 -5 -11 -7t-12 -2v0zM529 15q-6 0 -12 2t-11 7l-121 121q-9 9 -9 22.5t9 22.5q10 9 23 9t23 -9l120 -121q10 -9 10 -22.5t-10 -22.5q-5 -5 -10.5 -7t-11.5 -2v0z" />
    <glyph glyph-name="three" unicode="3" 
d="M710 75h-0.5h-0.5q-13 0 -22.5 9.5t-9.5 22.5t9.5 22.5t22.5 9.5h0.5h1.5q36 0 70 13t61 38q49 43 57.5 99t-4.5 100q-14 44 -51.5 85.5t-102.5 50.5q-11 1 -18.5 8.5t-9.5 17.5q-13 77 -53 128t-102 70q-65 20 -133 2t-115 -67q-45 -47 -55.5 -111.5t15.5 -137.5
q5 -13 -0.5 -25t-18.5 -16q-12 -5 -24 1t-17 18q-16 45 -20 89q-5 43 2 83.5t25 76.5t47 66q30 31 67 53q37 21 78.5 31.5t84.5 10.5q42 -1 83 -13q75 -23 125.5 -82t69.5 -144q66 -15 115 -61.5t70 -115.5q22 -74 3 -145t-75 -120q-36 -33 -81 -50t-94 -17v0zM238 75h-1.5
h-0.5q-93 6 -136 66t-43 124q0 65 43 124.5t136 66.5q23 0 46 -5t44 -15q11 -6 15 -19t-1 -24q-6 -12 -19 -16t-24 1q-14 7 -29 10.5t-29 3.5q-61 -4 -89.5 -43t-28.5 -84q0 -44 29 -83t91 -43q13 -1 21.5 -11t7.5 -23t-10.5 -21.5t-21.5 -8.5v0zM675 506q-9 0 -16.5 4.5
t-12.5 13.5q-6 12 -1.5 24.5t16.5 18.5q19 10 41 15.5t43 5.5q13 -1 23 -9.5t10 -22.5q0 -13 -9 -22.5t-23 -9.5t-28.5 -3.5t-28.5 -10.5q-3 -2 -6.5 -3t-7.5 -1v0zM340 -11q-6 0 -12 2.5t-11 7.5q-9 9 -9 22.5t9 22.5l86 85q9 10 22.5 10t22.5 -10q9 -9 9 -22.5t-9 -22.5
l-85 -85q-5 -5 -11 -7.5t-12 -2.5zM511 -11q-6 0 -12 2.5t-11 7.5q-9 9 -9 22.5t9 22.5l85 85q10 10 23 10t23 -10q9 -9 9 -22.5t-9 -22.5l-86 -85q-4 -5 -10 -7.5t-12 -2.5v0zM511 160q-6 0 -12 2.5t-11 6.5q-9 10 -9 23t9 23l85 85q10 9 23 9t23 -9q9 -9 9 -22.5t-9 -22.5
l-86 -86q-4 -4 -10 -6.5t-12 -2.5v0zM340 160q-6 0 -12 2.5t-11 6.5q-9 10 -9 23t9 23l86 85q9 9 22.5 9t22.5 -9t9 -22.5t-9 -22.5l-85 -86q-5 -4 -11 -6.5t-12 -2.5v0z" />
    <glyph glyph-name="four" unicode="4" 
d="M183 432q-10 0 -18.5 6t-11.5 16q-16 45 -21 88q-4 44 2.5 84.5t24.5 77.5q19 36 48 66q29 31 67 53q37 21 78.5 32t84.5 10q43 0 84 -13q75 -23 126 -82.5t70 -144.5q57 -13 103 -52t71 -96q5 -13 0 -25t-17 -18q-12 -5 -24.5 0t-17.5 17q-21 48 -59 78t-88 36
q-10 1 -18 8.5t-10 17.5q-12 77 -52.5 128.5t-102.5 70.5q-65 20 -133.5 2t-115.5 -67q-46 -47 -56.5 -112t15.5 -139q5 -12 -0.5 -24t-18.5 -16q-2 -1 -4.5 -1.5t-5.5 -0.5v0zM620 547q-9 0 -16.5 4.5t-11.5 13.5q-6 12 -2 24.5t16 18.5q20 10 41.5 15.5t43.5 5.5
q14 -1 23.5 -9.5t9.5 -22.5q0 -13 -9.5 -22.5t-22.5 -9.5q-15 0 -29.5 -3.5t-28.5 -10.5q-3 -2 -6.5 -3t-7.5 -1v0zM853 287h-682q-13 0 -22.5 9.5t-9.5 22.5t9.5 22.5t22.5 9.5h682q13 0 22.5 -9.5t9.5 -22.5t-9.5 -22.5t-22.5 -9.5zM768 159h-512q-13 0 -22.5 9.5
t-9.5 22.5t9.5 22.5t22.5 9.5h512q13 0 22.5 -9.5t9.5 -22.5t-9.5 -22.5t-22.5 -9.5zM640 31h-256q-13 0 -22.5 9.5t-9.5 22.5t9.5 22.5t22.5 9.5h256q13 0 22.5 -9.5t9.5 -22.5t-9.5 -22.5t-22.5 -9.5z" />
    <glyph glyph-name="five" unicode="5" 
d="M710 75h-0.5h-0.5q-13 0 -22.5 9.5t-9.5 22.5t9.5 23t23.5 9q37 0 71 13t61 38q50 43 58.5 99t-5.5 100q-13 44 -51 85.5t-103 50.5q-10 1 -18 8.5t-10 17.5q-12 77 -52 128t-103 70q-64 20 -132.5 2t-114.5 -67q-46 -47 -56 -111.5t16 -137.5q4 -13 -1.5 -25t-17.5 -16
q-13 -5 -25 1t-16 18q-16 45 -21 89q-4 43 2.5 83.5t24.5 76.5q19 36 48 66q29 31 66 53q38 21 79 31.5t84 10.5q43 -1 84 -13q74 -23 125 -82t70 -144q65 -15 114 -61.5t70 -115.5q23 -74 3.5 -145t-74.5 -120q-37 -33 -82 -50t-94 -17v0zM238 75h-1.5h-0.5q-93 6 -136 66
t-43 124q0 65 43 124.5t136 66.5q24 0 46.5 -5t43.5 -15q11 -6 15 -19t-1 -24q-6 -12 -19 -16t-24 1q-14 7 -29 10.5t-29 3.5q-61 -4 -89.5 -43t-28.5 -84q0 -44 28.5 -83t90.5 -43q13 -1 22 -11t8 -23t-10.5 -21.5t-21.5 -8.5v0zM675 506q-9 0 -16.5 4.5t-12.5 13.5
q-6 12 -1.5 24.5t16.5 18.5q19 10 41 15.5t43 5.5h1q13 0 22.5 -9.5t9.5 -22.5t-9 -22.5t-23 -9.5t-28.5 -3.5t-28.5 -10.5q-3 -2 -6.5 -3t-7.5 -1v0zM453 -5q-4 0 -8.5 0.5t-8.5 2.5q-14 5 -22.5 17.5t-8.5 27.5v67h-11q-24 0 -34.5 10.5t-13.5 16.5q-2 6 -3 20.5t15 32.5
l105 119q9 11 23.5 15t28.5 -2q15 -5 23.5 -17.5t8.5 -27.5v-67h10q24 0 34.5 -10.5t13.5 -16.5q2 -5 3 -20t-14 -32l-105 -119q-7 -8 -16.5 -12.5t-19.5 -4.5v0zM429 175h8q13 0 22.5 -9.5t9.5 -22.5v-57l52 60h-7q-13 0 -22.5 9.5t-9.5 22.5v57z" />
    <glyph glyph-name="six" unicode="6" 
d="M553 75h-170q-13 0 -22.5 9.5t-9.5 22.5t9.5 22.5t22.5 9.5h170q14 0 23 -9.5t9 -22.5t-9 -22.5t-23 -9.5zM710 75h-0.5h-0.5q-13 0 -22.5 9.5t-9.5 22.5t9.5 22.5t22.5 9.5h0.5h1.5q36 0 70 13t61 38q49 43 57.5 99t-4.5 100q-14 44 -51.5 85.5t-102.5 50.5
q-11 1 -18.5 8.5t-9.5 17.5q-13 77 -53 128t-102 70q-65 20 -133 2t-115 -67q-45 -47 -55.5 -111.5t15.5 -137.5q5 -13 -0.5 -25t-18.5 -16q-12 -5 -24 1t-17 18q-16 45 -20 89q-5 43 2 83.5t25 76.5t47 66q30 31 67 53q37 21 78.5 31.5t84.5 10.5q43 -1 83 -13
q75 -23 125.5 -82t69.5 -144q66 -15 115 -61.5t70 -115.5q22 -74 3 -145t-75 -120q-36 -33 -81 -50t-94 -17v0zM238 75h-1.5h-0.5q-93 6 -136 66t-43 124q0 65 43 124.5t136 66.5q23 0 46 -5t44 -15q11 -6 15 -19t-1 -24q-6 -12 -19 -16t-24 1q-14 7 -29 10.5t-29 3.5
q-61 -4 -89.5 -43t-28.5 -84q0 -44 29 -83t91 -43q13 -1 21.5 -11t7.5 -23t-10.5 -21.5t-21.5 -8.5v0zM675 506q-9 0 -16.5 4.5t-12.5 13.5q-6 12 -1.5 24.5t16.5 18.5q19 10 41 15.5t43 5.5q13 -1 23 -9.5t10 -22.5q0 -13 -9 -22.5t-23 -9.5t-28.5 -3.5t-28.5 -10.5
q-3 -2 -6.5 -3t-7.5 -1v0z" />
    <glyph glyph-name="seven" unicode="7" 
d="M711 71h-0.5h-0.5h-474q-94 7 -137.5 67.5t-43.5 124.5q0 57 34.5 112.5t107.5 72.5q-20 81 -3 154t70 128q30 31 68 52t79.5 31.5t85.5 9.5q43 -1 84 -14q12 -4 18 -16t2 -24q-4 -13 -15.5 -19t-24.5 -2q-65 21 -134.5 3.5t-116.5 -66.5q-47 -48 -57.5 -113t16.5 -139
q2 -7 1 -15t-5 -14q-5 -6 -11.5 -10t-14.5 -4q-62 -4 -91 -43.5t-29 -83.5q0 -45 29 -84t91 -44h471q36 0 71 13t62 38q37 32 52.5 77t7.5 95q-2 14 6 24.5t21 12.5t23.5 -5.5t12.5 -20.5q11 -66 -10 -127.5t-69 -103.5q-36 -32 -81.5 -49.5t-94.5 -17.5v0zM310 373
q-4 0 -7.5 1t-6.5 2q-14 7 -28.5 10.5t-29.5 3.5q-13 1 -22 10.5t-9 22.5t10 22.5t22 8.5q22 0 43.5 -5.5t41.5 -15.5q12 -5 16 -18t-2 -25q-4 -8 -11.5 -12.5t-16.5 -4.5v0zM788 416q-75 0 -128 53t-53 128q0 36 13 68t37 57l1.5 1.5l1.5 1.5q25 26 58 39.5t70 13.5
q75 0 128 -53t53 -128q0 -42 -18 -79t-50 -63q-24 -19 -53 -29t-60 -10v0zM708 683q0 -1 -1 -2l-2 -2q-16 -16 -25 -37.5t-9 -44.5q0 -49 34 -83t83 -34q20 0 39 6.5t34 18.5q21 17 32.5 41t11.5 51q0 49 -34 83t-83 34q-23 1 -43.5 -7.5t-36.5 -23.5v0z" />
    <glyph glyph-name="eight" unicode="8" 
d="M710 75h-0.5h-0.5q-13 0 -22.5 9.5t-9.5 22.5t9.5 22.5t22.5 9.5h0.5h1.5q36 0 70 13t61 38q49 43 57.5 99t-4.5 100q-14 44 -51.5 85.5t-102.5 50.5q-11 1 -18.5 8.5t-9.5 17.5q-13 77 -53 128t-102 70q-65 20 -133 2t-115 -67q-45 -47 -55.5 -111.5t15.5 -137.5
q5 -13 -0.5 -25t-18.5 -16q-12 -5 -24 1t-17 18q-16 45 -20 89q-5 43 2 83.5t25 76.5t47 66q30 31 67 53q37 21 78.5 31.5t84.5 10.5q42 -1 83 -13q75 -23 125.5 -82t69.5 -144q66 -15 115 -61.5t70 -115.5q22 -74 3 -145t-75 -120q-36 -33 -81 -50t-94 -17v0zM238 75h-1.5
h-0.5q-93 6 -136 66t-43 124q0 65 43 124.5t136 66.5q23 0 46 -5t44 -15q11 -6 15 -19t-1 -24q-6 -12 -19 -16t-24 1q-14 7 -29 10.5t-29 3.5q-61 -4 -89.5 -43t-28.5 -84q0 -44 29 -83t91 -43q13 -1 21.5 -11t7.5 -23t-10.5 -21.5t-21.5 -8.5v0zM675 506q-9 0 -16.5 4.5
t-12.5 13.5q-6 12 -1.5 24.5t16.5 18.5q19 10 41 15.5t43 5.5q13 -1 23 -9.5t10 -22.5q0 -13 -9 -22.5t-23 -9.5t-28.5 -3.5t-28.5 -10.5q-3 -2 -6.5 -3t-7.5 -1v0zM553 75h-170q-13 0 -22.5 9.5t-9.5 22.5t9.5 22.5t22.5 9.5h170q14 0 23 -9.5t9 -22.5t-9 -22.5t-23 -9.5z
M468 -11q-13 0 -22.5 9.5t-9.5 22.5v171q0 13 9.5 22.5t22.5 9.5t22.5 -9.5t9.5 -22.5v-171q0 -13 -9 -22.5t-23 -9.5z" />
    <glyph glyph-name="nine" unicode="9" 
d="M553 177q-6 0 -11.5 2t-10.5 7l-90 90q-10 9 -10 22.5t10 22.5q9 10 22.5 10t22.5 -10l90 -90q9 -9 9 -22.5t-9 -22.5q-4 -5 -10.5 -7t-12.5 -2v0zM462 175q-6 0 -12 2.5t-11 7.5q-9 9 -9 22.5t9 22.5l90 90q10 9 23 9t23 -9q9 -9 9 -22.5t-9 -22.5l-90 -90
q-5 -5 -11 -7.5t-12 -2.5v0zM318 135h-82q-94 7 -137.5 67t-43.5 124q0 65 43.5 125t135.5 67q13 1 23 -8t11 -22q1 -14 -7.5 -23.5t-22.5 -10.5q-62 -5 -90.5 -44.5t-28.5 -83.5q0 -45 28.5 -84t90.5 -44h80q13 0 22.5 -9t9.5 -23q0 -13 -9.5 -22t-22.5 -9v0zM711 135h-0.5
h-1.5q-13 0 -23.5 9.5t-10.5 22.5q0 14 9.5 23t22.5 9q40 0 74.5 13t61.5 38q50 44 58 100t-5 101q-13 43 -51.5 85.5t-103.5 50.5q-10 1 -18 8.5t-10 17.5q-12 77 -52.5 128.5t-102.5 70.5q-65 20 -134 2t-116 -67q-46 -48 -56 -113t16 -138q5 -13 -0.5 -25t-18.5 -16
q-12 -5 -24 1t-17 18q-16 45 -20 89q-5 44 2 84.5t25 76.5t47 67q30 31 67 52q38 22 79 32.5t84 10.5q44 -1 84 -13q75 -23 126 -82.5t70 -144.5q66 -15 115 -62t70 -116q23 -74 3.5 -146t-74.5 -120q-36 -32 -81 -49.5t-94 -17.5v0zM512 9q-64 0 -120.5 32t-89.5 88
q-3 5 -6.5 11.5t-6.5 13.5q-11 23 -16.5 48.5t-5.5 52.5q0 50 19 95t52.5 78t78.5 53q44 19 95 19t95 -19q45 -20 78.5 -53t52.5 -78t19 -95q0 -27 -5.5 -53t-16.5 -49q-3 -6 -6.5 -12.5t-7.5 -12.5q-32 -55 -88.5 -87t-120.5 -32v0zM512 436q-75 0 -128 -53t-53 -128
q0 -20 4 -38.5t12 -35.5q2 -6 4.5 -10.5t5.5 -8.5q24 -41 65.5 -65t89.5 -24q47 0 88.5 24t65.5 64q3 5 5.5 9.5t4.5 9.5q8 17 12.5 36t4.5 39q0 75 -53 128t-128 53v0z" />
    <glyph glyph-name="colon" unicode=":" 
d="M710 75h-0.5h-0.5q-13 0 -22.5 9.5t-9.5 22.5t10 23t23 9q35 0 70 13t62 38q50 43 58.5 99t-5.5 100q-13 44 -51 85.5t-103 50.5q-10 1 -18 8.5t-10 17.5q-12 77 -52 128t-103 70q-64 20 -132.5 2t-114.5 -67q-46 -47 -56 -111.5t16 -137.5q4 -13 -1.5 -25t-17.5 -16
q-13 -5 -25 1t-16 18q-16 45 -21 89q-4 43 2.5 83.5t24.5 76.5q19 36 48 66q29 31 66 53q38 21 79 31.5t84 10.5q43 -1 84 -13q74 -23 125 -82t70 -144q65 -15 114 -61.5t70 -115.5q23 -74 3.5 -145t-74.5 -120q-37 -33 -82 -50t-94 -17v0zM238 75h-1.5h-0.5q-93 6 -136 66
t-43 124q0 65 43 124.5t136 66.5q24 0 46.5 -5t43.5 -15q11 -6 15 -19t-1 -24q-6 -12 -19 -16t-24 1q-14 7 -28.5 10.5t-29.5 3.5q-61 -4 -89.5 -43t-28.5 -84q0 -44 28.5 -83t90.5 -43q13 -1 22 -11t8 -23t-10.5 -21.5t-21.5 -8.5v0zM675 506q-9 0 -16.5 4.5t-12.5 13.5
q-6 12 -1.5 24.5t16.5 18.5q19 10 41 15.5t43 5.5h1q13 0 22.5 -9.5t9.5 -22.5t-9 -22.5t-23 -9.5t-28.5 -3.5t-28.5 -10.5q-3 -2 -6.5 -3t-7.5 -1v0zM554 149q-18 0 -30.5 12.5t-12.5 30.5t12.5 30.5t30.5 12.5q17 0 30 -12.5t13 -30.5t-13 -30.5t-30 -12.5zM383 149
q-18 0 -30 12.5t-12 30.5t12.5 30.5t29.5 12.5q18 0 30.5 -12.5t12.5 -30.5t-12.5 -30.5t-30.5 -12.5v0zM469 21q-18 0 -30.5 12.5t-12.5 30.5t12.5 30.5t30.5 12.5q17 0 29.5 -12.5t12.5 -30.5t-12.5 -30.5t-29.5 -12.5z" />
    <glyph glyph-name="semicolon" unicode=";" 
d="M711 71h-0.5h-0.5h-474q-94 7 -137.5 67.5t-43.5 124.5q0 57 34.5 112.5t107.5 72.5q-16 62 -11 114q6 52 26 94t51 73q32 32 68 52q41 24 91 35t101 5.5t98 -29.5q48 -23 86 -69q1 -1 1.5 -2t1.5 -2q22 -28 37.5 -62t24.5 -74q40 -9 73.5 -29.5t59.5 -52.5
q31 -35 48 -82t16.5 -96.5t-20.5 -97.5t-63 -86q-36 -33 -81 -50.5t-94 -17.5v0zM490 759q-34 0 -66.5 -8.5t-60.5 -24.5q-39 -22 -65 -53t-38 -69t-10 -81t19 -90q2 -7 1 -15t-5 -14q-5 -6 -11.5 -10t-14.5 -4q-62 -4 -91 -43.5t-29 -83.5q0 -45 29 -84t91 -44h471
q37 0 71.5 13t61.5 38h1q32 29 47 65t15 73.5t-13 72.5t-36 63q-23 26 -52 42t-63 21q-11 1 -18.5 8.5t-9.5 17.5q-7 40 -21 73t-35 59q0 1 -0.5 2t-1.5 1q-34 40 -77.5 57.5t-88.5 17.5v0zM310 373q-4 0 -7.5 1t-6.5 2q-14 7 -28.5 10.5t-29.5 3.5q-13 1 -22 10.5t-9 22.5
t10 22.5t22 8.5q22 0 43.5 -5.5t41.5 -15.5q12 -5 16 -18t-2 -25q-4 -8 -11.5 -12.5t-16.5 -4.5v0zM676 505q-9 0 -16.5 4.5t-11.5 13.5q-6 12 -2 24.5t16 18.5q20 10 41.5 15t43.5 6q13 0 23 -9t10 -23q0 -13 -9.5 -22.5t-22.5 -9.5q-15 -1 -29.5 -4.5t-28.5 -9.5
q-3 -2 -6.5 -3t-7.5 -1v0zM881 449q-7 0 -13.5 3t-11.5 8q-22 27 -51.5 43t-63.5 21q-10 1 -18 8t-9 18q-7 40 -21 73t-35 59q-4 4 -5.5 9.5t-1.5 10.5q0 7 2.5 13t6.5 10q26 26 59 40t69 14q75 0 128 -53.5t53 -128.5q0 -41 -17.5 -78t-50.5 -63q-4 -4 -9 -5.5t-11 -1.5v0z
M773 583q30 -7 57.5 -21t50.5 -35q12 15 18 33t6 37q0 49 -34 83.5t-83 34.5q-17 0 -32.5 -4.5t-29.5 -13.5q17 -25 28.5 -53.5t18.5 -60.5z" />
    <glyph glyph-name="less" unicode="&#x3c;" 
d="M294 288q-9 0 -16.5 4.5t-12.5 12.5q-6 12 -1.5 25t16.5 19q28 13 51 34t40 46q6 9 6 19t-6 19q-17 25 -40.5 46t-50.5 34q-12 6 -16.5 18.5t1.5 25.5q6 11 18.5 15.5t24.5 -1.5q35 -18 64.5 -44t51.5 -59q16 -24 16 -54t-16 -54q-22 -33 -51.5 -59t-64.5 -44
q-3 -1 -6.5 -2t-7.5 -1zM725 288h-170q-13 0 -22.5 9.5t-9.5 22.5t9.5 22.5t22.5 9.5h170q13 0 22.5 -9.5t9.5 -22.5t-9.5 -22.5t-22.5 -9.5zM640 -11h-256q-87 0 -149 19q-63 20 -103 60t-60 103q-19 62 -19 149v256q0 87 19 149q20 63 60 103t103 60q62 19 149 19h256
q87 0 149 -19q63 -20 103 -60t60 -103q19 -62 19 -149v-256q0 -87 -19 -149q-20 -63 -60 -103t-103 -60q-62 -19 -149 -19v0zM384 843q-74 0 -125 -14t-82.5 -45.5t-45.5 -82.5t-14 -125v-256q0 -74 14 -125t45.5 -82.5t82.5 -45.5t125 -14h256q74 0 125 14t82.5 45.5
t45.5 82.5t14 125v256q0 74 -14 125t-45.5 82.5t-82.5 45.5t-125 14h-256v0z" />
    <glyph glyph-name="equal" unicode="=" 
d="M384 203q-3 0 -7 0.5t-7 2.5q-25 13 -45.5 31t-36.5 41q-12 19 -12 42t12 42q16 23 36.5 41.5t45.5 30.5q12 6 24.5 1.5t18.5 -16.5q6 -11 2 -24t-16 -19q-18 -8 -32.5 -21t-24.5 -29q-2 -3 -2 -6.5t2 -6.5q10 -16 24.5 -29t32.5 -22q11 -6 15.5 -18.5t-1.5 -24.5
q-4 -7 -12 -11.5t-17 -4.5v0zM649 203q-9 0 -17 4.5t-12 12.5q-6 12 -1.5 24.5t16.5 18.5q17 9 31.5 22t25.5 29q2 2 2 6t-2 7q-11 16 -25.5 29t-31.5 21q-12 6 -16 18.5t1 24.5q6 12 19 16.5t24 -1.5q25 -13 46 -31t36 -41q13 -20 13 -42.5t-13 -41.5q-15 -23 -36 -41.5
t-46 -30.5q-3 -2 -7 -3t-7 -1v0zM640 -11h-256q-87 0 -149 19q-63 20 -103 60t-60 103q-19 62 -19 149v256q0 87 19 149q20 63 60 103t103 60q62 19 149 19h256q87 0 149 -19q63 -20 103 -60t60 -103q19 -62 19 -149v-256q0 -87 -19 -149q-20 -63 -60 -103t-103 -60
q-62 -19 -149 -19v0zM384 843q-74 0 -125 -14t-82.5 -45.5t-45.5 -82.5t-14 -125v-256q0 -74 14 -125t45.5 -82.5t82.5 -45.5t125 -14h256q74 0 125 14t82.5 45.5t45.5 82.5t14 125v256q0 74 -14 125t-45.5 82.5t-82.5 45.5t-125 14h-256v0zM95 586q-13 0 -22.5 9.5
t-9.5 22.5t9.5 22.5t22.5 9.5l820 1q13 0 22.5 -9.5t9.5 -22.5t-9 -22.5t-23 -9.5l-820 -1v0z" />
    <glyph glyph-name="greater" unicode="&#x3e;" 
d="M341 331q-6 0 -12 2t-10 7l-86 85q-9 10 -9 23t9 23l86 85q9 9 22.5 9t22.5 -9t9 -22.5t-9 -22.5l-63 -63l63 -63q9 -9 9 -22.5t-9 -22.5q-5 -5 -11 -7t-12 -2v0zM683 331q-6 0 -12 2t-11 7q-9 9 -9 22.5t9 22.5l63 63l-63 63q-9 9 -9 22.5t9 22.5t22.5 9t22.5 -9l86 -85
q9 -10 9 -23t-9 -23l-86 -85q-5 -5 -10.5 -7t-11.5 -2v0zM512 -11q-95 0 -178 36q-84 37 -146 99t-99 146q-36 83 -36 178t36 178q37 84 99 146t146 99q83 36 178 36t178 -36q84 -37 146 -99t99 -146q36 -83 36 -178t-36 -178q-37 -84 -99 -146t-146 -99q-83 -36 -178 -36v0
zM512 843q-82 0 -153 -31q-72 -31 -126 -85t-85 -126q-31 -71 -31 -153t31 -153q31 -72 85 -126t126 -85q71 -31 153 -31t153 31q72 31 126 85t85 126q31 71 31 153t-31 153q-31 72 -85 126t-126 85q-71 31 -153 31v0zM469 317q-3 0 -6 0.5t-6 1.5q-12 5 -17 17.5t0 24.5
l86 200q5 12 17 17t24 -1q13 -5 18 -17t-1 -25l-85 -199q-4 -9 -12 -14t-18 -5v0z" />
    <glyph glyph-name="question" unicode="?" 
d="M579 -11h-314q-44 0 -82 17q-39 17 -67.5 45.5t-45.5 67.5q-17 38 -17 82v312q0 44 17 83q17 38 45.5 67t67.5 45q38 17 82 17h314q44 0 83 -17q38 -16 67 -45t45 -68q17 -38 17 -82v-312q0 -44 -17 -82q-16 -39 -45 -67.5t-67 -45.5q-39 -17 -83 -17v0zM265 661
q-61 0 -104.5 -43.5t-43.5 -104.5v-312q0 -61 43.5 -104.5t104.5 -43.5h314q62 0 105 43.5t43 104.5v312q0 61 -43 104.5t-105 43.5h-314v0zM235 757q-13 0 -22.5 9.5t-9.5 22.5v75q0 13 9.5 22.5t22.5 9.5t22.5 -9.5t9.5 -22.5v-75q0 -13 -9.5 -22.5t-22.5 -9.5v0zM405 757
q-13 0 -22.5 9.5t-9.5 22.5v75q0 13 9.5 22.5t22.5 9.5t22.5 -9.5t9.5 -22.5v-75q0 -13 -9.5 -22.5t-22.5 -9.5zM576 757q-13 0 -22.5 9.5t-9.5 22.5v75q0 13 9.5 22.5t22.5 9.5t22.5 -9.5t9.5 -22.5v-75q0 -13 -9.5 -22.5t-22.5 -9.5zM759 187q-13 0 -22.5 9.5t-9.5 22.5
v359q0 13 9.5 22.5t22.5 9.5q44 0 82 -17q39 -16 67.5 -45t45.5 -67q17 -39 17 -82q0 -44 -17 -83q-17 -38 -45.5 -67t-67.5 -45q-38 -17 -82 -17v0zM791 543v-289q50 11 83 51.5t33 93.5q0 52 -33 92.5t-83 51.5v0zM747 416h-662q-13 0 -22.5 9.5t-9.5 22.5t9.5 22.5
t22.5 9.5h662q13 0 22.5 -9.5t9.5 -22.5t-9.5 -22.5t-22.5 -9.5z" />
    <glyph glyph-name="at" unicode="@" 
d="M463 382h-64q-37 0 -63 27t-26 65q0 13 9.5 22.5t22.5 9.5t22.5 -9.5t9.5 -22.5q0 -12 7 -20t18 -8h64q7 0 12 6t5 14q0 12 -2.5 14.5t-9.5 5.5l-103 35q-28 10 -42 29.5t-14 50.5q0 34 24 59t58 25h64q37 0 63 -27t26 -65q0 -13 -9.5 -22.5t-22.5 -9.5q-14 0 -23 9.5
t-9 22.5q0 12 -7.5 20t-17.5 8h-64q-8 0 -13 -6t-5 -14q0 -11 2.5 -14t10.5 -5l103 -36q27 -10 41 -30t14 -50q0 -35 -24 -59.5t-57 -24.5v0zM427 348q-13 0 -22.5 9.5t-9.5 22.5v32q0 13 9.5 22.5t22.5 9.5t22.5 -9.5t9.5 -22.5v-32q0 -13 -9.5 -22.5t-22.5 -9.5zM427 621
q-13 0 -22.5 9.5t-9.5 22.5v33q0 14 9.5 23t22.5 9t22.5 -9t9.5 -22v-34q0 -13 -9.5 -22.5t-22.5 -9.5zM426 161q-77 0 -145 30q-68 29 -118.5 79.5t-79.5 118.5q-30 68 -30 145t30 145q29 68 79.5 118.5t118.5 80.5q68 29 145 29t145 -29q68 -30 118.5 -80.5t80.5 -118.5
q29 -68 29 -145t-29 -145q-30 -68 -80.5 -118.5t-118.5 -79.5q-68 -30 -145 -30v0zM426 843q-64 0 -120 -25q-56 -24 -98 -66t-66 -98q-25 -56 -25 -120t25 -120q24 -56 66 -98t98 -66q56 -25 120 -25t120 25q57 24 98.5 66t66.5 98q24 56 24 120t-24 120q-25 56 -66.5 98
t-98.5 66q-56 25 -120 25v0zM726 -9q-59 0 -111.5 27t-87.5 76q-7 11 -5 24t13 21q11 7 24 5t21 -13q25 -36 64 -56t82 -20q74 0 126.5 52.5t52.5 126.5q0 43 -20 82t-55 64q-11 8 -13 21t6 24t21 13t24 -6q47 -34 74 -86.5t27 -111.5q0 -50 -19 -95q-19 -44 -52 -77
t-77 -52t-95 -19v0z" />
    <glyph glyph-name="A" unicode="A" 
d="M512 -11q-64 0 -120 22q-57 21 -99 58t-66 87t-24 106v158q0 13 9.5 22.5t22.5 9.5t22.5 -9.5t9.5 -22.5q0 -42 18 -78q19 -35 52 -61.5t78 -41.5t97 -15t97 15t78 41.5t52 61.5q18 36 18 78q0 13 9.5 22.5t22.5 9.5t22.5 -9.5t9.5 -22.5v-158q0 -56 -24 -106t-66 -87
t-99 -58q-56 -22 -120 -22v0zM267 258q1 -43 20 -80q20 -37 53.5 -65t77.5 -44t94 -16t94 16t77.5 44t53.5 65q19 37 20 80q-41 -45 -105 -71.5t-140 -26.5t-139.5 26.5t-105.5 71.5v0zM512 373q-44 0 -85 10q-42 10 -77.5 27.5t-64.5 43.5t-48 58q-17 27 -25.5 58t-8.5 64
q0 55 23.5 105t68.5 89q43 38 99.5 58.5t117.5 20.5t117 -20.5t100 -57.5q45 -40 68.5 -90t23.5 -105q0 -33 -8.5 -64t-25.5 -58q-19 -32 -48 -58t-64.5 -43.5t-77.5 -27.5q-41 -10 -85 -10v0zM512 843q-50 0 -95 -16.5t-80 -46.5q-34 -30 -52 -67.5t-18 -78.5
q0 -24 6 -46.5t18 -42.5q31 -50 90 -79t131 -29t131 29t90 79q12 20 18 42.5t6 46.5q0 41 -18 78.5t-52 67.5q-35 30 -80 46.5t-95 16.5v0zM512 160q-66 0 -123 20q-56 20 -97.5 54.5t-65.5 82.5q-23 48 -23 103v214q0 56 24 106t66 87t99 58q56 22 120 22q61 0 117 -20.5
t100 -57.5q45 -40 68.5 -90t23.5 -105v-214q0 -55 -23 -103q-24 -48 -65.5 -82.5t-97.5 -54.5q-57 -20 -123 -20v0zM512 843q-51 0 -95 -17q-45 -16 -78.5 -44.5t-52.5 -66.5t-19 -81v-214q0 -42 18 -78q19 -35 52 -61.5t78 -41.5t97 -15t97 15t78 41.5t52 61.5q18 36 18 78
v214q0 41 -18 78.5t-52 67.5q-35 30 -80 46.5t-95 16.5v0z" />
    <glyph glyph-name="B" unicode="B" 
d="M341 -11q-59 0 -112 23q-52 23 -91 62t-62 91q-23 53 -23 112q0 49 16 94q15 44 43.5 81t67.5 64q39 26 85 39q12 3 23 -2.5t15 -16.5q20 -49 59.5 -84.5t90.5 -49.5q28 -7 59 -7t58 7q12 4 23 -1.5t16 -17.5q10 -25 15 -52t5 -54q0 -62 -25 -118t-71 -96
q-39 -35 -88.5 -54.5t-103.5 -19.5v0zM257 485q-63 -25 -101.5 -82t-38.5 -126q0 -46 18 -87q18 -40 48.5 -70.5t70.5 -48.5q41 -18 87 -18q42 0 80.5 15t69.5 43q36 32 55 75.5t19 90.5q0 15 -1.5 29t-5.5 28q-30 -5 -61.5 -3.5t-60.5 9.5q-58 16 -104.5 54t-74.5 91v0z
M512 331q-20 0 -39 2.5t-37 7.5q-65 18 -116 63.5t-76 108.5q-10 25 -15 51.5t-5 54.5q0 59 23 112q22 52 61.5 91t91.5 62t112 23t112 -23t91.5 -62t61.5 -91q23 -53 23 -112q0 -28 -5 -54.5t-15 -52.5q-25 -62 -76 -108t-116 -64q-18 -4 -37 -6.5t-39 -2.5zM512 843
q-46 0 -87 -18t-71.5 -48.5t-47.5 -70.5q-18 -41 -18 -87q0 -22 4 -42.5t12 -40.5q19 -49 58.5 -84t90.5 -49q28 -8 59 -8t59 8q51 14 90.5 49.5t58.5 83.5q8 20 12 40.5t4 42.5q0 46 -18 87q-17 40 -47.5 70.5t-71.5 48.5t-87 18zM683 -11q-54 0 -103.5 19.5t-88.5 54.5
q-5 5 -8 11t-3 13t3 13t8 11q35 31 54.5 74.5t19.5 91.5q0 22 -3.5 42.5t-11.5 40.5q-3 6 -2.5 13t3.5 13t8 10t12 6q51 14 90.5 49.5t58.5 84.5q5 11 16 16.5t22 2.5q47 -13 86 -39q39 -27 67 -64t44 -81q15 -45 15 -94q0 -59 -22 -112q-23 -52 -62 -91t-91 -62
q-53 -23 -112 -23v0zM560 90q27 -18 58 -27.5t65 -9.5q46 0 87 18q40 18 70.5 48.5t48.5 70.5q18 41 18 87q0 69 -38.5 126t-101.5 82q-24 -45 -62 -79.5t-85 -53.5q4 -18 6.5 -37t2.5 -38q0 -52 -18 -100t-51 -87v0z" />
    <glyph glyph-name="C" unicode="C" 
d="M410 160q-77 0 -131.5 54.5t-54.5 131.5q0 62 38 112t99 67q12 3 22.5 -2.5t15.5 -16.5q10 -27 31.5 -46.5t49.5 -26.5q15 -4 32 -4t32 4q12 3 23 -2.5t15 -16.5q7 -16 10 -33t3 -35q0 -40 -16 -76t-46 -62q-25 -23 -57 -35.5t-66 -12.5v0zM354 454q-30 -16 -48 -45
t-18 -63q0 -51 35.5 -86.5t86.5 -35.5q22 0 43 8t38 23q19 17 29.5 41t10.5 50q0 5 -0.5 10t-1.5 10q-16 -2 -33 -0.5t-33 6.5q-34 9 -62.5 30.5t-46.5 51.5v0zM512 365q-13 0 -25.5 1.5t-23.5 4.5q-42 12 -74.5 41t-48.5 70q-7 16 -10 33t-3 35q0 77 54.5 131.5t130.5 54.5
q77 0 131.5 -54.5t54.5 -131.5q0 -18 -3 -35t-10 -33q-16 -41 -49 -70.5t-74 -40.5q-12 -3 -24.5 -4.5t-25.5 -1.5v0zM512 672q-50 0 -86 -35.5t-36 -86.5q0 -11 2.5 -22.5t6.5 -21.5q10 -27 31.5 -46.5t49.5 -26.5q15 -4 32 -4t32 4q28 8 49.5 27t31.5 46q4 10 6.5 21.5
t2.5 22.5q0 51 -36 86.5t-86 35.5v0zM614 160q-34 0 -66 12.5t-57 35.5q-5 4 -8 10.5t-3 13.5q0 6 3 12.5t8 11.5q19 17 29.5 40.5t10.5 49.5q0 11 -2 22.5t-6 21.5q-3 7 -2.5 13.5t3.5 12.5q3 7 8.5 11t11.5 6q28 8 49.5 27t31.5 46q5 11 15.5 16.5t22.5 2.5q61 -17 99 -67
t38 -112q0 -77 -54.5 -131.5t-131.5 -54.5v0zM560 237q12 -7 26 -10t28 -3q51 0 86.5 35.5t35.5 86.5q0 34 -18 63t-48 45q-14 -23 -34 -41.5t-45 -29.5q2 -9 3 -18.5t1 -18.5q0 -30 -9 -58t-26 -51v0zM640 -11h-256q-87 0 -149 19q-63 20 -103 60t-60 103q-19 62 -19 149
v256q0 87 19 149q20 63 60 103t103 60q62 19 149 19h256q87 0 149 -19q63 -20 103 -60t60 -103q19 -62 19 -149v-256q0 -87 -19 -149q-20 -63 -60 -103t-103 -60q-62 -19 -149 -19v0zM384 843q-74 0 -125 -14t-82.5 -45.5t-45.5 -82.5t-14 -125v-256q0 -74 14 -125
t45.5 -82.5t82.5 -45.5t125 -14h256q74 0 125 14t82.5 45.5t45.5 82.5t14 125v256q0 74 -14 125t-45.5 82.5t-82.5 45.5t-125 14h-256v0z" />
    <glyph glyph-name="D" unicode="D" 
d="M256 -11q-10 0 -20 1t-20 3q-6 1 -10.5 2.5t-9.5 2.5q-6 2 -11 4l-10 4q-1 0 -2 0.5t-2 0.5q-11 6 -21 12t-18 12q-1 0 -1.5 1l-0.5 1q-5 4 -9.5 8t-8.5 8q-5 5 -8.5 9t-6.5 8q-8 9 -14 19t-11 21q-1 1 -1.5 2.5t-0.5 2.5q-2 4 -3.5 8.5t-2.5 9.5q-2 7 -3.5 12t-2.5 10
q-2 11 -3 21t-1 20v576q0 61 38.5 99.5t99.5 38.5h128q62 0 100.5 -38.5t38.5 -99.5v-576q0 -40 -15 -76.5t-43 -64.5l-9 -9l-7 -7q-10 -9 -23 -16.5t-27 -13.5q-3 -1 -7 -2.5t-8 -3.5q-16 -5 -32 -7.5t-32 -2.5v0zM202 64q3 -1 6.5 -2t6.5 -2q4 -1 7.5 -2t6.5 -2
q18 -3 36 -2t33 6q2 1 5 2l6 2q10 4 18.5 9t15.5 11q4 3 6 5.5t5 3.5q20 21 30.5 46t10.5 53v576q0 34 -20 54t-55 20h-128q-35 0 -55 -20t-20 -54v-576q0 -7 1 -14l2 -14q1 -3 2 -6.5t2 -7.5l2 -6t2 -7l1.5 -1.5t0.5 -1.5t0.5 -1.5t0.5 -1.5q4 -7 8 -13l8 -12l5 -5t6 -7
t6 -6.5t7 -4.5q0 -1 0.5 -1h0.5q5 -4 11 -7.5t13 -7.5l1 -0.5l1 -0.5q1 0 2 -0.5t2 -1.5v0zM832 -11h-576q-13 0 -22.5 9.5t-9.5 22.5t9.5 22.5t22.5 9.5q11 0 22 2t20 5q2 1 5 2l6 2q10 4 18.5 9t15.5 11q4 3 6 5.5t5 3.5l292 292q4 4 10 6.5t12 2.5h164q61 0 100 -38.5
t39 -99.5v-128q0 -61 -39 -100t-100 -39v0zM404 53h428q35 0 55 20t20 55v128q0 35 -20 55t-55 20h-151l-277 -278v0zM205 -3q-2 0 -4 0.5t-5 0.5q-23 7 -44.5 20t-38.5 31q-18 17 -30.5 38t-19.5 45q-4 13 2 24.5t19 15.5q13 3 24.5 -3t15.5 -18q10 -33 34.5 -57t56.5 -35
q13 -4 19 -15.5t2 -24.5q-3 -10 -12 -16t-19 -6v0zM378 41q-6 0 -12 2.5t-11 6.5q-9 10 -9 23t9 23q19 19 29.5 44t10.5 52v413q0 6 2.5 12t6.5 10l116 116q42 42 98 42t98 -42l90 -91q44 -43 44 -98t-44 -98l-405 -405q-5 -5 -11 -7.5t-12 -2.5v0zM459 591v-392l302 302
q24 24 24 52.5t-24 53.5l-90 90q-24 24 -53 24t-53 -24l-106 -106v0zM256 117q-31 0 -53 22t-22 53t22 53t53 22t53 -22t22 -53t-22 -53t-53 -22zM256 203q-4 0 -7.5 -3.5t-3.5 -7.5q0 -9 11 -9t11 9q0 4 -3.5 7.5t-7.5 3.5v0z" />
    <glyph glyph-name="E" unicode="E" 
d="M683 245h-342q-13 0 -22.5 9.5t-9.5 22.5v342q0 13 9.5 22.5t22.5 9.5h342q13 0 22.5 -9.5t9.5 -22.5v-342q0 -13 -9.5 -22.5t-22.5 -9.5zM373 309h278v278h-278v-278zM213 -11q-66 0 -113 47t-47 113q0 67 47 113.5t113 46.5h128q13 0 22.5 -9.5t9.5 -22.5v-128
q0 -66 -46.5 -113t-113.5 -47v0zM213 245q-39 0 -67.5 -28t-28.5 -68q0 -39 28.5 -67.5t67.5 -28.5q40 0 68 28.5t28 67.5v96h-96v0zM341 587h-128q-66 0 -113 46.5t-47 113.5q0 66 47 113t113 47q67 0 113.5 -47t46.5 -113v-128q0 -13 -9.5 -22.5t-22.5 -9.5zM213 843
q-39 0 -67.5 -28.5t-28.5 -67.5q0 -40 28.5 -68t67.5 -28h96v96q0 39 -28 67.5t-68 28.5v0zM811 587h-128q-13 0 -22.5 9.5t-9.5 22.5v128q0 66 46.5 113t113.5 47q66 0 113 -47t47 -113q0 -67 -47 -113.5t-113 -46.5zM715 651h96q39 0 67.5 28t28.5 68q0 39 -28.5 67.5
t-67.5 28.5q-40 0 -68 -28.5t-28 -67.5v-96zM811 -11q-67 0 -113.5 47t-46.5 113v128q0 13 9.5 22.5t22.5 9.5h128q66 0 113 -46.5t47 -113.5q0 -66 -47 -113t-113 -47zM715 245v-96q0 -39 28 -67.5t68 -28.5q39 0 67.5 28.5t28.5 67.5q0 40 -28.5 68t-67.5 28h-96z" />
    <glyph glyph-name="F" unicode="F" 
d="M614 314h-204q-14 0 -23 9t-9 23v204q0 14 9 23t23 9h204q14 0 23 -9t9 -23v-204q0 -14 -9 -23t-23 -9zM442 378h140v140h-140v-140v0zM333 160q-45 0 -77 32t-32 77t32 77t77 32h77q13 0 22.5 -9.5t9.5 -22.5v-77q0 -45 -32 -77t-77 -32v0zM333 314q-19 0 -32 -13.5
t-13 -31.5q0 -19 13 -32t32 -13q18 0 31.5 13t13.5 32v45h-45zM410 518h-77q-45 0 -77 32t-32 77t32 77t77 32t77 -32t32 -77v-77q0 -13 -9.5 -22.5t-22.5 -9.5v0zM333 672q-19 0 -32 -13t-13 -32q0 -18 13 -31.5t32 -13.5h45v45q0 19 -13.5 32t-31.5 13zM691 518h-77
q-13 0 -22.5 9.5t-9.5 22.5v77q0 45 32 77t77 32t77 -32t32 -77t-32 -77t-77 -32v0zM646 582h45q19 0 32 13.5t13 31.5q0 19 -13 32t-32 13q-18 0 -31.5 -13t-13.5 -32v-45zM691 160q-45 0 -77 32t-32 77v77q0 13 9.5 22.5t22.5 9.5h77q45 0 77 -32t32 -77t-32 -77t-77 -32z
M646 314v-45q0 -19 13.5 -32t31.5 -13q19 0 32 13t13 32q0 18 -13 31.5t-32 13.5h-45zM640 -11h-256q-87 0 -149 19q-63 20 -103 60t-60 103q-19 62 -19 149v256q0 87 19 149q20 63 60 103t103 60q62 19 149 19h256q87 0 149 -19q63 -20 103 -60t60 -103q19 -62 19 -149
v-256q0 -87 -19 -149q-20 -63 -60 -103t-103 -60q-62 -19 -149 -19v0zM384 843q-74 0 -125 -14t-82.5 -45.5t-45.5 -82.5t-14 -125v-256q0 -74 14 -125t45.5 -82.5t82.5 -45.5t125 -14h256q74 0 125 14t82.5 45.5t45.5 82.5t14 125v256q0 74 -14 125t-45.5 82.5t-82.5 45.5
t-125 14h-256v0z" />
    <glyph glyph-name="G" unicode="G" 
d="M512 -11q-37 0 -71 14t-60 41l-273 272q-26 26 -40 60t-14 72q0 37 14 71t40 60l273 273q26 26 60 40t71 14t71 -14t60 -40l273 -273q26 -26 40 -60t14 -71q0 -38 -14 -72t-40 -60l-273 -272q-26 -27 -60 -41t-71 -14zM512 843q-25 0 -47 -9.5t-39 -26.5l-273 -272
q-17 -18 -26 -40t-9 -47q0 -24 9 -46.5t26 -39.5l273 -272q34 -35 86 -35t86 35l273 272q17 18 26 40t9 46q0 25 -9 47.5t-26 39.5l-273 272q-17 17 -39 26.5t-47 9.5z" />
    <glyph glyph-name="H" unicode="H" 
d="M639 -11h-256q-87 0 -150 19q-62 20 -102.5 60t-59.5 103q-19 62 -19 149v256q0 87 19 149q19 63 59.5 103t102.5 60q63 19 150 19h256q87 0 149 -19q63 -20 103 -60t59 -103q19 -62 19 -149v-256q0 -87 -19 -149q-19 -63 -59 -103t-103 -60q-62 -19 -149 -19v0zM383 843
q-74 0 -125 -14t-82.5 -45.5t-45.5 -82.5t-14 -125v-256q0 -74 14 -125t45.5 -82.5t82.5 -45.5t125 -14h256q74 0 124 14q51 14 82.5 45.5t45.5 82.5t14 125v256q0 74 -14 125t-45.5 82.5t-82.5 45.5q-50 14 -124 14h-256v0zM140 87q-7 0 -12.5 2.5t-10.5 7.5q-9 9 -9 22.5
t9 22.5l702 702q9 9 22.5 9t22.5 -9t9 -22.5t-9 -22.5l-702 -702q-4 -5 -10 -7.5t-12 -2.5v0zM685 160q-13 0 -22.5 9.5t-9.5 22.5v213q0 13 9.5 22.5t22.5 9.5t22.5 -9.5t9.5 -22.5v-213q0 -13 -9.5 -22.5t-22.5 -9.5zM789 267h-213q-13 0 -22.5 9.5t-9.5 22.5t9.5 22.5
t22.5 9.5h213q13 0 22.5 -9.5t9.5 -22.5t-9.5 -22.5t-22.5 -9.5zM448 608h-213q-13 0 -22.5 9.5t-9.5 22.5t9.5 22.5t22.5 9.5h213q13 0 22.5 -9.5t9.5 -22.5t-9.5 -22.5t-22.5 -9.5z" />
    <glyph glyph-name="I" unicode="I" 
d="M512 -10q-94 0 -178 36q-83 36 -145 98t-98 146q-37 83 -37 178q0 94 37 178q36 83 98 145t145 98q84 36 178 36q95 0 178 -36q84 -36 146 -98t98 -145q36 -84 36 -178q0 -95 -36 -178q-36 -84 -98.5 -146t-145.5 -98t-178 -36zM512 842q-81 0 -153 -31t-125.5 -84.5
t-84.5 -125.5t-31 -153q0 -82 31 -153q31 -72 84.5 -125.5t125.5 -84.5t153 -31q82 0 153 31q72 31 125.5 84.5t84.5 125.5q31 71 31 153q0 81 -31 153t-84.5 125.5t-125.5 84.5q-71 31 -153 31zM610 407q-6 0 -12 2.5t-10 7.5l-349 349q-9 9 -9 22.5t9 22.5q10 9 23 9
t22 -9l295 -295v117q0 13 9.5 22.5t22.5 9.5q13 1 22.5 -9t9.5 -23l-1 -194q0 -9 -5 -17.5t-14 -11.5q-3 -1 -6.5 -2t-6.5 -1v0zM762 76q-6 0 -12 2t-10 7l-295 295v-117q0 -13 -9.5 -22.5t-22.5 -9.5t-22.5 9.5t-9.5 22.5l1 194q0 9 5 17.5t14 11.5q9 4 18.5 2t16.5 -9
l348 -349q10 -9 10 -22.5t-10 -22.5q-4 -5 -10 -7t-12 -2v0z" />
    <glyph glyph-name="J" unicode="J" 
d="M640 -11q-9 0 -16.5 4.5t-11.5 12.5q-4 7 -4 15.5t5 16.5l45 74q6 12 19 15t24 -4q12 -6 15 -19t-3 -25l-12 -19q44 11 82 35t65.5 58t42.5 77q16 43 16 90q0 13 9.5 22.5t22.5 9.5t22.5 -9.5t9.5 -22.5q0 -68 -26 -129q-26 -60 -71 -105t-105 -71q-61 -26 -129 -26v0z
M85 544q-13 0 -22.5 9.5t-9.5 22.5q0 68 26 129q26 60 71 105t105 71q61 26 129 26q9 0 16.5 -4.5t11.5 -12.5q4 -7 4 -15.5t-5 -16.5l-44 -74q-7 -12 -20 -15t-24 4q-12 6 -15 19t3 25l12 19q-44 -11 -82 -35t-65.5 -58t-42.5 -77q-16 -43 -16 -90q0 -13 -9.5 -22.5
t-22.5 -9.5v0zM754 640q-4 0 -8 1t-8 3l-169 98q-12 7 -15 20t3 24q7 12 20 15.5t24 -3.5l153 -89l153 88q11 7 24 3.5t19 -14.5q7 -12 3.5 -24.5t-14.5 -19.5l-169 -97q-3 -3 -7 -4t-9 -1v0zM754 466q-13 0 -22.5 9.5t-9.5 22.5v174q0 14 9.5 23t22.5 9t22.5 -9t9.5 -23
v-174q0 -13 -9.5 -22.5t-22.5 -9.5zM754 459q-14 0 -28.5 3t-26.5 10l-103 57q-25 13 -41.5 42t-16.5 57v108q0 29 17 57.5t42 42.5l102 57q24 13 55.5 13t55.5 -13l103 -57q25 -13 41.5 -42t16.5 -57v-109q0 -28 -16.5 -56.5t-41.5 -42.5l-103 -57q-12 -7 -26.5 -10
t-29.5 -3v0zM730 838l-102 -57q-10 -6 -18 -19.5t-8 -24.5v-108q0 -11 8 -24.5t18 -19.5l102 -57q9 -5 24 -5t25 5l102 57q10 5 18 19t8 24v109q0 11 -8 24.5t-18 18.5l-102 57q-10 6 -25 6t-24 -5zM270 171q-4 0 -8.5 1t-8.5 3l-169 98q-11 7 -14.5 19.5t3.5 24.5
q6 12 19 15t24 -3l154 -89l152 88q12 7 24.5 3.5t19.5 -14.5q6 -12 2.5 -25t-14.5 -19l-169 -98q-3 -2 -7 -3t-8 -1v0zM270 -3q-13 0 -22.5 9.5t-9.5 22.5v174q0 13 9.5 22.5t22.5 9.5t22.5 -9.5t9.5 -22.5v-174q0 -13 -9.5 -22.5t-22.5 -9.5v0zM270 -11q-15 0 -29.5 3.5
t-26.5 10.5l-102 56q-25 14 -42 42.5t-17 57.5v108q0 29 17 57.5t42 42.5l102 56q24 13 55.5 13t55.5 -13l103 -56q24 -14 41 -42.5t17 -57.5v-108q0 -29 -17 -57.5t-42 -42.5l-102 -57q-12 -6 -26 -9.5t-29 -3.5v0zM245 368l-102 -57q-10 -5 -18 -18.5t-8 -24.5v-108
q0 -12 8 -25.5t18 -18.5l102 -57q10 -5 25 -5t24 5l102 57q10 5 18 19t8 25v108q0 11 -8 24.5t-18 18.5l-102 58q-9 4 -24 4t-25 -5v0z" />
    <glyph glyph-name="K" unicode="K" 
d="M939 691h-427q-13 0 -22.5 9.5t-9.5 22.5t9.5 22.5t22.5 9.5h427q13 0 22.5 -9.5t9.5 -22.5q0 -14 -9.5 -23t-22.5 -9v0zM844 480h-237q-70 0 -98.5 28t-28.5 98v175q0 70 28.5 98t98.5 28h237q70 0 98.5 -28t28.5 -98v-176q0 -69 -28.5 -97t-98.5 -28v0zM607 843
q-44 0 -53.5 -9.5t-9.5 -52.5v-176q0 -42 9.5 -51.5t53.5 -9.5h237q43 0 52.5 9.5t9.5 51.5v176q0 43 -9.5 52.5t-52.5 9.5h-237zM512 200h-427q-13 0 -22.5 9.5t-9.5 22.5t9.5 22.5t22.5 9.5h427q13 0 22.5 -9.5t9.5 -22.5t-9.5 -22.5t-22.5 -9.5zM417 -11h-237
q-70 0 -98 28t-28 98v175q0 70 28 98t98 28h237q70 0 98.5 -28t28.5 -98v-175q0 -70 -28.5 -98t-98.5 -28v0zM180 352q-43 0 -53 -9.5t-10 -52.5v-175q0 -43 10 -52.5t53 -9.5h237q43 0 53 9.5t10 52.5v175q0 43 -10 52.5t-53 9.5h-237v0zM640 -11q-9 0 -16.5 4.5
t-11.5 12.5q-4 7 -4 15.5t5 16.5l45 75q6 11 19 14t24 -3q12 -7 15 -20t-3 -24l-12 -19q44 10 82 34t65.5 58.5t42.5 76.5q16 43 16 90q0 14 9.5 23t22.5 9t22.5 -9t9.5 -23q0 -68 -26 -128q-26 -61 -71 -106t-105 -71q-61 -26 -129 -26v0zM85 544q-13 0 -22.5 9.5
t-9.5 22.5q0 68 26 129q26 60 71 105t105 71q61 26 129 26q9 0 16.5 -4.5t11.5 -12.5q4 -7 4 -15.5t-5 -16.5l-44 -75q-7 -11 -20 -14t-24 3q-12 7 -15 20t3 24l12 19q-44 -10 -82 -34t-65.5 -58.5t-42.5 -76.5q-16 -43 -16 -90q0 -13 -9.5 -22.5t-22.5 -9.5v0z" />
    <glyph glyph-name="L" unicode="L" 
d="M804 416h-115q-85 0 -125.5 40.5t-40.5 125.5v158q0 85 40.5 126t125.5 41h115q85 0 126 -41t41 -126v-158q0 -85 -41 -125.5t-126 -40.5zM689 843q-59 0 -80.5 -22t-21.5 -81v-158q0 -58 21.5 -80t80.5 -22h115q59 0 81 22t22 80v158q0 59 -22 81t-81 22h-115v0z
M335 -11h-115q-85 0 -126 41t-41 126v158q0 85 41 125.5t126 40.5h115q85 0 125.5 -40.5t40.5 -125.5v-158q0 -85 -40.5 -126t-125.5 -41zM220 416q-59 0 -81 -22t-22 -80v-158q0 -59 22 -81t81 -22h115q59 0 80.5 22t21.5 81v158q0 58 -21.5 80t-80.5 22h-115zM640 -11
q-9 0 -16.5 4.5t-11.5 12.5q-4 7 -4 15.5t5 16.5l45 74q6 12 19 15t24 -4q12 -6 15 -19t-3 -25l-12 -19q44 11 82 35t65.5 58t42.5 77q16 43 16 90q0 13 9.5 22.5t22.5 9.5t22.5 -9.5t9.5 -22.5q0 -68 -26 -129q-26 -60 -71 -105t-105 -71q-61 -26 -129 -26v0zM85 544
q-13 0 -22.5 9.5t-9.5 22.5q0 68 26 129q26 60 71 105t105 71q61 26 129 26q9 0 16.5 -4.5t11.5 -12.5q4 -7 4 -15.5t-5 -16.5l-44 -75q-7 -11 -20 -14t-24 4q-12 6 -15 19t4 25l11 19q-44 -11 -82 -35q-37 -24 -65 -58t-43 -77q-16 -43 -16 -90q0 -13 -9.5 -22.5
t-22.5 -9.5v0z" />
    <glyph glyph-name="M" unicode="M" 
d="M335 -11h-115q-85 0 -126 41t-41 126v115q0 85 41 125.5t126 40.5h115q85 0 125.5 -40.5t40.5 -125.5v-115q0 -85 -40.5 -126t-125.5 -41zM220 373q-59 0 -81 -21.5t-22 -80.5v-115q0 -59 22 -81t81 -22h115q59 0 80.5 22t21.5 81v115q0 59 -21.5 80.5t-80.5 21.5h-115z
M640 -11q-9 0 -16.5 4.5t-11.5 12.5q-4 7 -4 15.5t5 16.5l45 74q6 12 19 15t24 -4q12 -6 15 -19t-3 -25l-12 -19q44 11 82 35t65.5 58t42.5 77q16 43 16 90q0 13 9.5 22.5t22.5 9.5t22.5 -9.5t9.5 -22.5q0 -68 -26 -129q-26 -60 -71 -105t-105 -71q-61 -26 -129 -26v0z
M85 544q-13 0 -22.5 9.5t-9.5 22.5q0 68 26 129q26 60 71 105t105 71q61 26 129 26q9 0 16.5 -4.5t11.5 -12.5q4 -7 4 -15.5t-5 -16.5l-44 -75q-7 -11 -20 -14t-24 4q-12 6 -15 19t4 25l11 19q-44 -11 -82 -35q-37 -24 -65 -58t-43 -77q-16 -43 -16 -90q0 -13 -9.5 -22.5
t-22.5 -9.5v0zM747 459q-47 0 -87 17q-41 18 -71.5 48.5t-48.5 71.5q-17 40 -17 87q0 46 17 87q18 40 48.5 70.5t71.5 48.5q40 18 87 18q46 0 87 -18q40 -18 70.5 -48.5t48.5 -70.5q18 -41 18 -87q0 -47 -18 -87q-18 -41 -48.5 -71.5t-70.5 -48.5q-41 -17 -87 -17zM747 843
q-67 0 -113.5 -47t-46.5 -113q0 -67 46.5 -113.5t113.5 -46.5q66 0 113 46.5t47 113.5q0 66 -47 113t-113 47z" />
    <glyph glyph-name="N" unicode="N" 
d="M474 -11h-180q-62 0 -108 15q-45 14 -74.5 43.5t-43.5 74.5q-15 46 -15 108v180q0 62 15 108q14 45 43.5 74.5t74.5 43.5q46 15 108 15h180q62 0 108 -15q45 -14 74.5 -43.5t43.5 -74.5q15 -46 15 -108v-180q0 -62 -15 -108q-14 -45 -43.5 -74.5t-74.5 -43.5
q-46 -15 -108 -15v0zM294 587q-99 0 -138 -39t-39 -138v-180q0 -99 39 -138t138 -39h180q99 0 138 39t39 138v180q0 99 -39 138t-138 39h-180v0zM730 245h-47q-13 0 -22.5 9.5t-9.5 22.5v133q0 99 -39 138t-138 39h-133q-13 0 -22.5 9.5t-9.5 22.5v47q0 62 15 108
q14 45 43.5 74.5t74.5 43.5q46 15 108 15h180q62 0 108 -15q45 -14 74.5 -43.5t43.5 -74.5q15 -46 15 -108v-180q0 -62 -15 -108q-14 -45 -43.5 -74.5t-74.5 -43.5q-46 -15 -108 -15v0zM715 309h15q99 0 138 39t39 138v180q0 99 -39 138t-138 39h-180q-99 0 -138 -39
t-39 -138v-15h101q62 0 108 -15q45 -14 74.5 -43.5t43.5 -74.5q15 -46 15 -108v-101v0z" />
    <glyph glyph-name="O" unicode="O" 
d="M512 -11q-95 0 -178 36q-84 37 -146 99t-99 146q-36 83 -36 178t36 178q37 84 99 146t146 99q83 36 178 36t178 -36q84 -37 146 -99t99 -146q36 -83 36 -178t-36 -178q-37 -84 -99 -146t-146 -99q-83 -36 -178 -36v0zM512 843q-82 0 -153 -31q-72 -31 -126 -85t-85 -126
q-31 -71 -31 -153t31 -153q31 -72 85 -126t126 -85q71 -31 153 -31t153 31q72 31 126 85t85 126q31 71 31 153t-31 153q-31 72 -85 126t-126 85q-71 31 -153 31v0zM522 245q-42 0 -79 16q-36 16 -64 43.5t-43 64.5q-16 37 -16 79t16 79q15 37 43 64.5t64 43.5q37 16 79 16
q37 0 71.5 -13t62.5 -38q10 -9 10.5 -22t-7.5 -23q-9 -10 -22.5 -11t-22.5 8q-19 16 -42.5 25t-49.5 9q-57 0 -97.5 -40.5t-40.5 -97.5q0 -58 40.5 -98.5t97.5 -40.5q25 0 49 9t43 25q9 9 22.5 8t22.5 -11q8 -9 7.5 -22.5t-10.5 -22.5q-28 -24 -62.5 -37t-71.5 -13v0z" />
    <glyph glyph-name="P" unicode="P" 
d="M730 907h-180q-62 0 -108 -15q-45 -14 -74.5 -43.5t-43.5 -74.5q-15 -46 -15 -108v-47q0 -13 9.5 -22.5t22.5 -9.5h133q99 0 138 -39t39 -138v-133q0 -13 9.5 -22.5t22.5 -9.5h47q62 0 108 15q45 14 74.5 43.5t43.5 74.5q15 46 15 108v180q0 62 -15 108
q-14 45 -43.5 74.5t-74.5 43.5q-46 15 -108 15v0zM373 651v15q0 99 39 138t138 39h180q99 0 138 -39t39 -138v-180q0 -99 -39 -138t-138 -39h-15v101q0 62 -15 108q-14 45 -43.5 74.5t-74.5 43.5q-46 15 -108 15h-101v0zM474 651h-180q-62 0 -108 -15q-45 -14 -74.5 -43.5
t-43.5 -74.5q-15 -46 -15 -108v-180q0 -62 15 -108q14 -45 43.5 -74.5t74.5 -43.5q46 -15 108 -15h180q62 0 108 15q45 14 74.5 43.5t43.5 74.5q15 46 15 108v180q0 62 -15 108q-14 45 -43.5 74.5t-74.5 43.5q-46 15 -108 15zM294 53q-99 0 -138 39t-39 138v180q0 99 39 138
t138 39h180q99 0 138 -39t39 -138v-180q0 -99 -39 -138t-138 -39h-180v0zM343 205q-6 0 -12 2t-11 7l-83 83q-9 10 -9 23t9 23q9 9 22.5 9t22.5 -9l61 -61l143 143q9 10 22.5 10t22.5 -10q9 -9 9 -22.5t-9 -22.5l-166 -166q-5 -4 -10.5 -6.5t-11.5 -2.5v0z" />
    <glyph glyph-name="Q" unicode="Q" 
d="M939 -11h-854q-13 0 -22.5 9.5t-9.5 22.5t9.5 22.5t22.5 9.5h854q13 0 22.5 -9.5t9.5 -22.5t-9.5 -22.5t-22.5 -9.5zM619 694q-30 0 -60 6t-59 17q-9 4 -14.5 12t-5.5 18v128q0 8 3.5 15t10.5 12q7 4 15 5t15 -2q46 -18 95 -18t94 18q8 3 16 2t14 -5q7 -5 10.5 -12
t3.5 -15v-128q0 -10 -5.5 -18t-14.5 -12q-29 -11 -58.5 -17t-59.5 -6v0zM544 769q36 -11 74.5 -11t74.5 11v62q-36 -9 -74 -9t-75 9v-62zM512 587q-13 0 -22.5 9.5t-9.5 22.5v128q0 13 9.5 22.5t22.5 9.5t22.5 -9.5t9.5 -22.5v-128q0 -13 -9.5 -22.5t-22.5 -9.5zM853 -11
h-682q-13 0 -22.5 9.5t-9.5 22.5v470q0 77 41 118.5t119 41.5h426q78 0 119 -41.5t41 -118.5v-470q0 -13 -9.5 -22.5t-22.5 -9.5v0zM203 53h618v438q0 50 -22.5 73t-73.5 23h-426q-51 0 -73.5 -23t-22.5 -73v-438v0zM829 416h-634q-13 0 -22.5 9.5t-9.5 22.5t9.5 22.5
t22.5 9.5h634q13 0 22.5 -9.5t9.5 -22.5t-9.5 -22.5t-22.5 -9.5zM373 448h-64v-427h64v427v0zM544 448h-64v-427h64v427v0zM714 448h-64v-427h64v427v0z" />
    <glyph glyph-name="R" unicode="R" 
d="M614 75h-204q-71 0 -122 16t-84 49t-49 84t-16 122v204q0 71 16 122t49 84t84 49t122 16h204q71 0 122 -16t84 -49t49 -84t16 -122v-204q0 -71 -16 -122t-49 -84t-84 -49t-122 -16zM410 757q-115 0 -161 -46t-46 -161v-204q0 -115 46 -161t161 -46h204q115 0 161 46
t46 161v204q0 115 -46 161t-161 46h-204v0zM576 203h-128q-93 0 -137 44t-44 137v128q0 93 44 137t137 44h128q93 0 137 -44t44 -137v-128q0 -93 -44 -137t-137 -44zM448 629q-67 0 -92 -25t-25 -92v-128q0 -67 25 -92t92 -25h128q67 0 92 25t25 92v128q0 67 -25 92t-92 25
h-128v0zM342 757q-14 0 -23 9.5t-9 22.5v86q0 13 9.5 22.5t22.5 9.5t22.5 -9.5t9.5 -22.5v-86q0 -13 -9.5 -22.5t-22.5 -9.5zM512 757q-13 0 -22.5 9.5t-9.5 22.5v86q0 13 9.5 22.5t22.5 9.5t22.5 -9.5t9.5 -22.5v-86q0 -13 -9.5 -22.5t-22.5 -9.5zM683 757q-13 0 -22.5 9.5
t-9.5 22.5v86q0 13 9.5 22.5t22.5 9.5t22.5 -9.5t9.5 -22.5v-86q0 -13 -9.5 -22.5t-22.5 -9.5zM939 587h-86q-13 0 -22.5 9.5t-9.5 22.5t9.5 22.5t22.5 9.5h86q13 0 22.5 -9.5t9.5 -22.5t-9.5 -22.5t-22.5 -9.5zM939 416h-86q-13 0 -22.5 9.5t-9.5 22.5t9.5 22.5t22.5 9.5
h86q13 0 22.5 -9.5t9.5 -22.5t-9.5 -22.5t-22.5 -9.5zM939 245h-86q-13 0 -22.5 9.5t-9.5 22.5t9.5 22.5t22.5 9.5h86q13 0 22.5 -9.5t9.5 -22.5t-9.5 -22.5t-22.5 -9.5zM683 -11q-13 0 -22.5 9.5t-9.5 22.5v86q0 13 9.5 22.5t22.5 9.5t22.5 -9.5t9.5 -22.5v-86
q0 -13 -9.5 -22.5t-22.5 -9.5zM512 -11q-13 0 -22.5 9.5t-9.5 22.5v86q0 13 9.5 22.5t22.5 9.5q14 0 23 -9.5t9 -22.5v-86q0 -13 -9 -22.5t-23 -9.5zM342 -11q-13 0 -22.5 9.5t-9.5 22.5v86q0 13 9.5 22.5t22.5 9.5t22.5 -9.5t9.5 -22.5v-86q0 -13 -9.5 -22.5t-22.5 -9.5z
M171 587h-86q-13 0 -22.5 9t-9.5 23q0 13 9.5 22.5t22.5 9.5h86q13 0 22.5 -9.5t9.5 -22.5t-9.5 -22.5t-22.5 -9.5zM171 416h-86q-13 0 -22.5 9.5t-9.5 22.5t9.5 22.5t22.5 9.5h86q13 0 22.5 -9.5t9.5 -22.5t-9.5 -22.5t-22.5 -9.5zM171 245h-86q-13 0 -22.5 9.5t-9.5 22.5
t9.5 22.5t22.5 9.5h86q13 0 22.5 -9.5t9.5 -22.5t-9.5 -22.5t-22.5 -9.5z" />
    <glyph glyph-name="S" unicode="S" 
d="M614 75h-204q-71 0 -122 16t-84 49t-49 84t-16 122v204q0 71 16 122t49 84t84 49t122 16h204q71 0 122 -16t84 -49t49 -84t16 -122v-204q0 -71 -16 -122t-49 -84t-84 -49t-122 -16zM410 757q-115 0 -161 -46t-46 -161v-204q0 -115 46 -161t161 -46h204q115 0 161 46
t46 161v204q0 115 -46 161t-161 46h-204v0zM576 203h-128q-93 0 -137 44t-44 137v128q0 93 44 137t137 44h128q93 0 137 -44t44 -137v-128q0 -93 -44 -137t-137 -44zM448 629q-67 0 -92 -25t-25 -92v-128q0 -67 25 -92t92 -25h128q67 0 92 25t25 92v128q0 67 -25 92t-92 25
h-128v0zM342 757q-14 0 -23 9.5t-9 22.5v86q0 13 9.5 22.5t22.5 9.5t22.5 -9.5t9.5 -22.5v-86q0 -13 -9.5 -22.5t-22.5 -9.5zM512 757q-13 0 -22.5 9.5t-9.5 22.5v86q0 13 9.5 22.5t22.5 9.5t22.5 -9.5t9.5 -22.5v-86q0 -13 -9.5 -22.5t-22.5 -9.5zM683 757q-13 0 -22.5 9.5
t-9.5 22.5v86q0 13 9.5 22.5t22.5 9.5t22.5 -9.5t9.5 -22.5v-86q0 -13 -9.5 -22.5t-22.5 -9.5zM939 587h-86q-13 0 -22.5 9.5t-9.5 22.5t9.5 22.5t22.5 9.5h86q13 0 22.5 -9.5t9.5 -22.5t-9.5 -22.5t-22.5 -9.5zM939 416h-86q-13 0 -22.5 9.5t-9.5 22.5t9.5 22.5t22.5 9.5
h86q13 0 22.5 -9.5t9.5 -22.5t-9.5 -22.5t-22.5 -9.5zM939 245h-86q-13 0 -22.5 9.5t-9.5 22.5t9.5 22.5t22.5 9.5h86q13 0 22.5 -9.5t9.5 -22.5t-9.5 -22.5t-22.5 -9.5zM683 -11q-13 0 -22.5 9.5t-9.5 22.5v86q0 13 9.5 22.5t22.5 9.5t22.5 -9.5t9.5 -22.5v-86
q0 -13 -9.5 -22.5t-22.5 -9.5zM512 -11q-13 0 -22.5 9.5t-9.5 22.5v86q0 13 9.5 22.5t22.5 9.5q14 0 23 -9.5t9 -22.5v-86q0 -13 -9 -22.5t-23 -9.5zM342 -11q-13 0 -22.5 9.5t-9.5 22.5v86q0 13 9.5 22.5t22.5 9.5t22.5 -9.5t9.5 -22.5v-86q0 -13 -9.5 -22.5t-22.5 -9.5z
M171 587h-86q-13 0 -22.5 9t-9.5 23q0 13 9.5 22.5t22.5 9.5h86q13 0 22.5 -9.5t9.5 -22.5t-9.5 -22.5t-22.5 -9.5zM171 416h-86q-13 0 -22.5 9.5t-9.5 22.5t9.5 22.5t22.5 9.5h86q13 0 22.5 -9.5t9.5 -22.5t-9.5 -22.5t-22.5 -9.5zM171 245h-86q-13 0 -22.5 9.5t-9.5 22.5
t9.5 22.5t22.5 9.5h86q13 0 22.5 -9.5t9.5 -22.5t-9.5 -22.5t-22.5 -9.5zM512 318q-4 0 -8 1t-8 3q-11 7 -14.5 19.5t2.5 24.5l29 50h-25q-15 0 -27 6.5t-19 17.5q-7 12 -6.5 25.5t8.5 26.5l40 70q7 12 19.5 15.5t23.5 -3.5q12 -6 15.5 -19t-3.5 -24l-29 -51h25q16 0 28 -6
t19 -18q6 -11 5.5 -25t-7.5 -27l-40 -70q-5 -8 -12.5 -12t-15.5 -4v0z" />
    <glyph glyph-name="T" unicode="T" 
d="M410 75q-71 0 -122 16t-84 49t-49 84t-16 122v204q0 71 16 122t49 84t84 49t122 16h204q71 0 122 -16t84 -49t49 -84t16 -122q0 -13 -9.5 -22.5t-22.5 -9.5t-22.5 9.5t-9.5 22.5q0 115 -46 161t-161 46h-204q-115 0 -161 -46t-46 -161v-204q0 -115 46 -161t161 -46
q13 0 22.5 -9.5t9.5 -22.5t-9.5 -22.5t-22.5 -9.5v0zM341 230q-5 0 -10.5 2t-9.5 5q-28 22 -41.5 58t-13.5 89v128q0 93 44.5 137t137.5 44h128q52 0 88 -13t58 -41q9 -11 7 -24t-12 -21t-23.5 -7t-21.5 12q-7 10 -27 20t-69 10h-128q-67 0 -92 -25t-25 -92v-128
q0 -49 10 -69t20 -27q10 -9 11.5 -22t-6.5 -23q-5 -6 -11.5 -9.5t-13.5 -3.5v0zM342 757q-14 0 -23 9.5t-9 22.5v86q0 13 9.5 22.5t22.5 9.5t22.5 -9.5t9.5 -22.5v-86q0 -13 -9.5 -22.5t-22.5 -9.5zM512 757q-13 0 -22.5 9.5t-9.5 22.5v86q0 13 9.5 22.5t22.5 9.5t22.5 -9.5
t9.5 -22.5v-86q0 -13 -9.5 -22.5t-22.5 -9.5zM683 757q-13 0 -22.5 9.5t-9.5 22.5v86q0 13 9.5 22.5t22.5 9.5t22.5 -9.5t9.5 -22.5v-86q0 -13 -9.5 -22.5t-22.5 -9.5zM939 587h-86q-13 0 -22.5 9.5t-9.5 22.5t9.5 22.5t22.5 9.5h86q13 0 22.5 -9.5t9.5 -22.5t-9.5 -22.5
t-22.5 -9.5zM342 -11q-13 0 -22.5 9.5t-9.5 22.5v86q0 13 9.5 22.5t22.5 9.5t22.5 -9.5t9.5 -22.5v-86q0 -13 -9.5 -22.5t-22.5 -9.5zM171 587h-86q-13 0 -22.5 9t-9.5 23q0 13 9.5 22.5t22.5 9.5h86q13 0 22.5 -9.5t9.5 -22.5t-9.5 -22.5t-22.5 -9.5zM171 416h-86
q-13 0 -22.5 9.5t-9.5 22.5t9.5 22.5t22.5 9.5h86q13 0 22.5 -9.5t9.5 -22.5t-9.5 -22.5t-22.5 -9.5zM171 245h-86q-13 0 -22.5 9.5t-9.5 22.5t9.5 22.5t22.5 9.5h86q13 0 22.5 -9.5t9.5 -22.5t-9.5 -22.5t-22.5 -9.5zM713 135q-41 0 -70.5 29t-29.5 71q0 41 29.5 70.5
t70.5 29.5t70.5 -29.5t29.5 -70.5q-1 -42 -30 -71t-70 -29zM713 271q-15 0 -25.5 -11t-10.5 -25q0 -15 10.5 -25.5t25.5 -10.5t25.5 10.5t10.5 25.5q-1 14 -11 25t-25 11zM785 -11q-18 0 -34 9t-26 26l-3 5q-4 6 -6.5 8l-2.5 2q-1 0 -3.5 -2t-6.5 -8l-2 -5
q-15 -25 -43 -32.5t-53 7.5l-38 22q-13 8 -22.5 19.5t-12.5 26.5q-4 14 -2 29t9 28q3 6 3.5 9.5l0.5 3.5q0 1 -3 2t-10 1q-32 0 -54 22t-22 53v39q0 31 22 53t53 22q7 0 10.5 1.5l3.5 1.5l-0.5 3.5t-4.5 9.5q-7 13 -9 28t2 29t13 26t22 20l39 22q24 15 52 7.5t43 -32.5l2 -5
q4 -6 6.5 -8t3.5 -2l3 2t6 8l3 5q15 25 43 32t52 -7l40 -22q13 -7 22 -19t13 -27q4 -14 2 -29t-9 -27q-4 -6 -4.5 -9.5t-0.5 -4.5q1 0 4 -1.5t10 -1.5q31 0 53 -22t22 -52v-40q0 -31 -22 -53t-53 -22q-7 0 -10 -1t-4 -2l1 -3.5t4 -9.5q7 -13 9 -27.5t-2 -29.5
q-4 -14 -13 -26t-22 -19l-39 -23q-8 -5 -17 -7.5t-18 -2.5v0zM713 103q19 0 36 -11t29 -31l2 -5q1 -2 3.5 -2.5t4.5 0.5l39 23q2 1 3.5 3t1.5 4v3t-1 5q-12 20 -13 40t9 37q9 17 27.5 26t41.5 9q4 0 7.5 3t3.5 8v39q0 5 -3 8t-8 3q-23 0 -41 9t-28 26q-9 17 -8 37t13 40
q1 3 1 5t-1 3q0 2 -1 4t-4 3l-39 23q-2 1 -4 0.5t-4 -2.5l-2 -4q-12 -21 -28.5 -32t-36.5 -11q-19 0 -36 11t-28 32l-3 4q-1 2 -3.5 2.5t-3.5 -0.5l-40 -22q-2 -2 -3 -4t-2 -3v-4t1 -4q12 -21 13 -41t-9 -37q-9 -16 -27 -25.5t-42 -9.5q-4 0 -7.5 -3t-3.5 -7v-40
q0 -4 3.5 -7.5t7.5 -3.5q23 0 41.5 -9t27.5 -26q10 -16 8.5 -36.5t-12.5 -40.5q-1 -2 -1 -4.5v-3.5t1 -3t4 -4l39 -22q2 -2 4.5 -1t3.5 3l2 4q12 20 29 31t36 11v0z" />
    <glyph glyph-name="U" unicode="U" 
d="M512 -11q-95 0 -178 36q-84 37 -146 99t-99 146q-36 83 -36 178t36 178q37 84 99 146t146 99q83 36 178 36t178 -36q84 -37 146 -99t99 -146q36 -83 36 -178t-36 -178q-37 -84 -99 -146t-146 -99q-83 -36 -178 -36v0zM512 843q-82 0 -153 -31q-72 -31 -126 -85t-85 -126
q-31 -71 -31 -153t31 -153q31 -72 85 -126t126 -85q71 -31 153 -31t153 31q72 31 126 85t85 126q31 71 31 153t-31 153q-31 72 -85 126t-126 85q-71 31 -153 31v0zM384 294q-64 0 -109.5 45t-45.5 109t45.5 109t109.5 45q28 0 54 -9.5t48 -28.5q10 -9 10.5 -22t-7.5 -23
q-9 -10 -22.5 -11t-23.5 8q-12 11 -27.5 16.5t-31.5 5.5q-38 0 -64.5 -26.5t-26.5 -63.5t26.5 -63.5t64.5 -26.5q16 0 31.5 5.5t27.5 16.5q10 9 23.5 8t22.5 -11q8 -10 7.5 -23t-10.5 -22q-22 -19 -48.5 -28.5t-53.5 -9.5v0zM682 294q-64 0 -109 45t-45 109t45 109t109 45
q28 0 54.5 -9.5t47.5 -28.5q10 -9 11 -22t-8 -23q-8 -10 -21.5 -11t-23.5 8q-12 11 -27.5 16.5t-32.5 5.5q-37 0 -63.5 -26.5t-26.5 -63.5t26.5 -63.5t63.5 -26.5q17 0 32.5 5.5t27.5 16.5q10 9 23 8t22 -11t8 -23t-11 -22q-21 -19 -47.5 -28.5t-54.5 -9.5z" />
    <glyph glyph-name="V" unicode="V" 
d="M811 117h-389q-138 0 -189.5 51.5t-51.5 189.5v389q0 13 9.5 22.5t22.5 9.5h389q138 0 189.5 -51.5t51.5 -189.5v-389q0 -13 -9.5 -22.5t-22.5 -9.5zM245 715v-357q0 -111 33 -144t144 -33h357v357q0 111 -33 144t-144 33h-357v0zM213 715q-13 0 -22.5 9.5t-9.5 22.5v128
q0 13 9.5 22.5t22.5 9.5t22.5 -9.5t9.5 -22.5v-128q0 -13 -9.5 -22.5t-22.5 -9.5zM213 715h-128q-13 0 -22.5 9.5t-9.5 22.5t9.5 22.5t22.5 9.5h128q13 0 22.5 -9.5t9.5 -22.5t-9.5 -22.5t-22.5 -9.5zM811 -11q-13 0 -22.5 9.5t-9.5 22.5v128q0 13 9.5 22.5t22.5 9.5
t22.5 -9.5t9.5 -22.5v-128q0 -13 -9.5 -22.5t-22.5 -9.5zM939 117h-128q-13 0 -22.5 9.5t-9.5 22.5t9.5 22.5t22.5 9.5h128q13 0 22.5 -9.5t9.5 -22.5t-9.5 -22.5t-22.5 -9.5z" />
    <glyph glyph-name="W" unicode="W" 
d="M725 62h-426q-51 0 -96 20q-44 19 -77.5 52.5t-52.5 77.5q-20 45 -20 96v408q0 42 15 59.5t26 21.5q12 5 34.5 3.5t51.5 -31.5l111 -110q3 -3 7.5 -3t7.5 3l153 153q21 21 53 21t52 -21l154 -153q3 -3 7.5 -3t7.5 3l110 110q30 30 52.5 31.5t33.5 -3.5q12 -4 26.5 -21.5
t14.5 -59.5v-409q0 -55 -17 -100q-18 -45 -50 -77t-77 -50q-46 -18 -101 -18v0zM120 736q-1 -2 -2 -7t-1 -13v-409q0 -75 53.5 -128t128.5 -53h426q83 0 132.5 49.5t49.5 131.5v409q0 8 -1 12.5t-2 7.5q-2 -1 -6 -4t-10 -8l-110 -111q-21 -21 -53 -21t-53 21l-153 153
q-3 3 -7.5 3t-7.5 -3l-152 -152q-22 -22 -53.5 -22t-52.5 22l-110 110q-6 5 -10 8t-6 4v0z" />
    <glyph glyph-name="X" unicode="X" 
d="M713 118h-402q-23 0 -44.5 15t-29.5 37l-176 495q-17 46 -9.5 70t20.5 33q12 10 37 10.5t66 -27.5l166 -120q4 -2 7.5 -3t5.5 0q3 1 5.5 3.5t3.5 7.5l75 200q17 45 39 57t35 12t35 -12t39 -57l75 -200q2 -4 4 -7t5 -4t6.5 0t6.5 4l156 111q43 31 69 30.5t40 -10.5
t21.5 -35.5t-10.5 -74.5l-172 -483q-8 -22 -29.5 -37t-44.5 -15v0zM114 712q1 -4 2.5 -10.5t4.5 -14.5l177 -495q1 -3 5.5 -6.5t7.5 -3.5h402q3 0 7.5 3.5t5.5 6.5l173 482q4 12 5.5 20.5t2.5 13.5q-5 -2 -12.5 -6t-18.5 -11l-156 -112q-16 -11 -34 -14.5t-35 2.5
q-17 5 -30 17.5t-20 31.5l-75 200q-4 11 -8 17t-6 8q-2 -2 -5.5 -8t-8.5 -17l-75 -200q-6 -18 -19.5 -31t-30.5 -18t-35.5 -1.5t-33.5 14.5l-167 119q-7 5 -12.5 8.5t-10.5 4.5v0zM747 -11h-470q-13 0 -22.5 9.5t-9.5 22.5t9.5 22.5t22.5 9.5h470q13 0 22.5 -9.5t9.5 -22.5
t-9.5 -22.5t-22.5 -9.5zM619 331h-214q-13 0 -22.5 9.5t-9.5 22.5t9.5 22.5t22.5 9.5h214q13 0 22.5 -9.5t9.5 -22.5t-9.5 -22.5t-22.5 -9.5z" />
    <glyph glyph-name="Y" unicode="Y" 
d="M518 134q-13 0 -22.5 9.5t-9.5 22.5v90q0 13 9.5 22.5t22.5 9.5q14 0 23 -9.5t9 -22.5v-90q0 -13 -9 -22.5t-23 -9.5zM764 -11h-491v75q0 49 34.5 83t82.5 34h256q49 0 83.5 -34t34.5 -83v-75v0zM337 53h363v11q0 22 -16 37.5t-38 15.5h-256q-22 0 -37.5 -15.5
t-15.5 -37.5v-11v0zM774 -11h-512q-13 0 -22.5 9.5t-9.5 22.5t9.5 22.5t22.5 9.5h512q14 0 23 -9.5t9 -22.5t-9 -22.5t-23 -9.5zM786 429q-6 0 -12.5 3t-11.5 8q-6 7 -7.5 16.5t2.5 17.5q11 25 16.5 51.5t5.5 54.5v128q0 11 -2 22t-6 23q0 1 -0.5 2t-0.5 2q-1 5 -1.5 10
t-0.5 9q0 13 9.5 22.5t22.5 9.5h26q57 0 97.5 -42t40.5 -101q0 -49 -19 -95t-54 -81q-1 -1 -2.5 -2l-1.5 -1q-19 -16 -41 -31.5t-51 -23.5q-2 -1 -4 -1.5t-5 -0.5v0zM840 743l2 -18t1 -17v-128q0 -13 -1 -26t-3 -25q2 1 3.5 2.5l3.5 3.5q26 25 40 59.5t14 70.5q0 29 -17 51
t-43 27v0zM238 431q-2 0 -4.5 0.5t-5.5 1.5q-26 8 -50 23t-45 36q-37 40 -55 84.5t-18 91.5q0 58 40 98t98 40h28q8 0 15.5 -3.5t11.5 -10.5q5 -7 5.5 -15t-2.5 -15q-6 -12 -8.5 -25t-2.5 -27v-128q0 -27 5.5 -54t17.5 -52q3 -9 1.5 -18t-7.5 -16q-5 -6 -11 -8.5t-13 -2.5v0
zM183 741q-25 -5 -42 -25.5t-17 -47.5q0 -35 14 -68.5t42 -64.5l2.5 -2.5t3.5 -2.5q-3 13 -4 26t-1 26v128q0 8 1 15.5t1 15.5v0zM512 245q-68 0 -129 26q-60 26 -105 71t-71 105q-26 61 -26 129v128q0 42 16 79t43.5 64.5t64.5 43.5t79 16h256q42 0 79 -16t64.5 -43.5
t43.5 -64.5t16 -79v-128q0 -68 -26 -129q-26 -60 -71 -105t-105 -71q-61 -26 -129 -26zM384 843q-57 0 -98 -41t-41 -98v-128q0 -55 21 -104q21 -48 57.5 -84.5t84.5 -57.5q49 -21 104 -21t104 21q48 21 84.5 57.5t57.5 84.5q21 49 21 104v128q0 57 -41 98t-98 41h-256v0z
" />
    <glyph glyph-name="Z" unicode="Z" 
d="M512 331q-13 0 -22.5 9.5t-9.5 22.5v213q0 13 9.5 22.5t22.5 9.5t22.5 -9.5t9.5 -22.5v-213q0 -13 -9.5 -22.5t-22.5 -9.5zM512 192q-2 0 -4 0.5t-5 0.5q-1 0 -3 0.5t-4 1.5l-4 2l-4 2q-1 2 -3 3t-3 2q-6 6 -9.5 14t-3.5 17q0 8 3.5 16t9.5 14q1 1 3 2.5t3 2.5l4 2l4 2
t4 1.5t3 0.5q5 1 9 1t8 -1q2 0 4 -0.5t4 -1.5l4 -2l4 -2q1 -1 3 -2.5t3 -2.5q6 -6 9.5 -14t3.5 -16q0 -9 -3.5 -17t-9.5 -14q-1 -1 -3 -2t-3 -3l-4 -2l-4 -2t-4 -1.5t-4 -0.5t-4 -0.5t-4 -0.5zM771 15h-518q-62 0 -108 21.5t-71 62.5q-24 41 -20.5 92.5t33.5 105.5l259 465
q32 58 74.5 88.5t91.5 30.5t91.5 -30.5t74.5 -88.5l259 -465q30 -55 33.5 -106t-20.5 -92q-25 -41 -71 -62.5t-108 -21.5v0zM512 817q-30 0 -58.5 -22t-51.5 -64l-259 -465q-21 -39 -24.5 -74t11.5 -61t47 -39.5t77 -13.5h517q45 0 77 13.5t47 39.5q16 26 12 60.5t-25 74.5
l-259 465q-24 42 -52.5 64t-58.5 22v0z" />
    <glyph glyph-name="bracketleft" unicode="[" 
d="M853 331q-48 0 -82.5 34t-34.5 83t34.5 83t82.5 34q49 0 83.5 -34t34.5 -83t-34.5 -83t-83.5 -34zM853 501q-22 0 -37.5 -15.5t-15.5 -37.5t15.5 -37.5t37.5 -15.5t38 15.5t16 37.5t-16 37.5t-38 15.5v0zM853 672q-48 0 -82.5 34.5t-34.5 82.5q0 49 34.5 83.5t82.5 34.5
q49 0 83.5 -34.5t34.5 -83.5q0 -48 -34.5 -82.5t-83.5 -34.5zM853 843q-22 0 -37.5 -16t-15.5 -38t15.5 -37.5t37.5 -15.5t38 15.5t16 37.5t-16 38t-38 16zM853 -11q-48 0 -82.5 34.5t-34.5 83.5q0 48 34.5 82.5t82.5 34.5q49 0 83.5 -34.5t34.5 -82.5q0 -49 -34.5 -83.5
t-83.5 -34.5zM853 160q-22 0 -37.5 -15.5t-15.5 -37.5t15.5 -38t37.5 -16t38 16t16 38t-16 37.5t-38 15.5zM171 331q-49 0 -83.5 34t-34.5 83t34.5 83t83.5 34q48 0 82.5 -34t34.5 -83t-34.5 -83t-82.5 -34zM171 501q-22 0 -38 -15.5t-16 -37.5t16 -37.5t38 -15.5t37.5 15.5
t15.5 37.5t-15.5 37.5t-37.5 15.5v0zM768 416h-512q-13 0 -22.5 9.5t-9.5 22.5t9.5 22.5t22.5 9.5h512q13 0 22.5 -9.5t9.5 -22.5t-9.5 -22.5t-22.5 -9.5zM768 75h-171q-77 0 -118.5 41t-41.5 119v426q0 78 41.5 119t118.5 41h171q13 0 22.5 -9.5t9.5 -22.5t-9.5 -22.5
t-22.5 -9.5h-171q-50 0 -73 -22.5t-23 -73.5v-426q0 -51 23 -73.5t73 -22.5h171q13 0 22.5 -9.5t9.5 -22.5t-9.5 -22.5t-22.5 -9.5z" />
    <glyph glyph-name="backslash" unicode="\" 
d="M299 587h-128q-49 0 -83.5 34t-34.5 83v85q0 49 34.5 83.5t83.5 34.5h128q48 0 82.5 -34.5t34.5 -83.5v-85q0 -49 -34.5 -83t-82.5 -34v0zM171 843q-22 0 -38 -16t-16 -38v-85q0 -22 16 -37.5t38 -15.5h128q22 0 37.5 15.5t15.5 37.5v85q0 22 -15.5 38t-37.5 16h-128v0z
" />
    <glyph glyph-name="bracketright" unicode="]" 
d="M445 176q-5 0 -9.5 1.5t-8.5 4.5q-7 4 -10.5 11t-3.5 15q0 5 -0.5 10t-0.5 10q-3 23 -13.5 43t-27.5 37t-38 28t-44 13q-4 1 -9 1h-10q-9 -1 -16 2.5t-12 10.5q-5 6 -6 14t1 16q5 13 12 24.5t15 21.5l66 83q42 53 104 109q61 56 130.5 107.5t140.5 94.5q72 42 135 67
q27 11 53.5 5t45.5 -25q20 -20 26 -47t-5 -53q-25 -63 -68 -135q-42 -71 -93.5 -140.5t-107.5 -130.5q-56 -62 -109 -104l-84 -67q-12 -9 -22 -14.5t-19 -9.5q-3 -2 -6 -2.5t-6 -0.5v0zM322 408q27 -7 50.5 -21t43.5 -34q21 -20 34 -43t20 -48l72 58q51 40 104 98t102 124
t89 134t64 127q4 12 0 20t-7 11q-2 2 -10 6.5t-21 -0.5q-60 -24 -128 -64t-133.5 -89t-123.5 -102t-99 -104l-57 -73v0zM174 -11q-24 0 -46 9.5t-40 26.5q-20 20 -29 46.5t-6 54.5l12 105q8 78 65.5 130t136.5 53q6 1 13.5 0.5t15.5 -1.5q35 -4 65.5 -19.5t55.5 -40.5
q24 -24 39 -53.5t19 -62.5q1 -7 1.5 -14.5t0.5 -13.5q0 -43 -15.5 -81t-45.5 -68q-24 -24 -55.5 -39t-66.5 -19l-106 -12q-3 0 -6.5 -0.5t-7.5 -0.5v0zM275 350h-2.5h-2.5q-49 -1 -92 -33.5t-50 -92.5l-11 -105q-2 -14 2.5 -26.5t14.5 -22.5q9 -9 21.5 -13.5t25.5 -2.5
l105 11q24 3 46 13.5t38 26.5q21 21 32 47.5t11 56.5q0 4 -0.5 9.5t-0.5 10.5q-3 22 -13.5 42t-27.5 37q-17 18 -38 28.5t-44 13.5h-6.5h-7.5v0zM608 311q-14 0 -23 9t-9 23q0 70 -50 119.5t-120 49.5q-13 0 -22.5 9.5t-9.5 22.5q0 14 9 23t22 9q49 0 91 -18
q43 -18 74.5 -50t50.5 -75q18 -42 18 -90q0 -14 -9 -23t-22 -9zM669 -10q-30 0 -59.5 14t-57.5 43q-10 9 -10 22.5t10 22.5q9 9 22.5 9t22.5 -9q38 -38 72 -38t72 38l126 126q38 39 38 73t-38 72l-32 31q-9 9 -9 22.5t9 22.5q9 10 22.5 10t22.5 -10l32 -31q57 -57 57 -117.5
t-57 -117.5l-126 -126q-28 -28 -57.5 -42.5t-59.5 -14.5v0zM133 480q-6 0 -12 2t-11 7q-56 57 -56 117.5t56 117.5l126 126q57 56 118 56t117 -56l32 -32q9 -9 9 -22.5t-9 -22.5q-10 -9 -23 -9t-23 9l-32 32q-37 37 -71.5 37t-71.5 -37l-127 -127q-37 -38 -37 -72t37 -72
q10 -10 10 -23t-10 -22q-5 -5 -10.5 -7t-11.5 -2v0zM322 606q-6 0 -12 2t-10 7q-10 10 -10 23t10 22l157 158q10 10 23 10t23 -10q9 -9 9 -22.5t-9 -22.5l-158 -158q-5 -5 -11 -7t-12 -2v0zM732 259q-6 0 -12 2.5t-10 6.5q-10 10 -10 23t10 23l126 126q9 9 22.5 9t22.5 -9
t9 -22.5t-9 -22.5l-126 -127q-5 -4 -10.5 -6.5t-12.5 -2.5v0z" />
    <glyph glyph-name="asciicircum" unicode="^" 
d="M661 143h-384q-53 0 -95 15q-41 15 -70 43.5t-44 70.5q-15 41 -15 95v230q0 54 15 95q15 42 44 70.5t70 43.5q42 15 95 15h116q7 0 14 -3.5t12 -9.5q4 -6 5 -14t-1 -15q-4 -10 -5.5 -20.5t-1.5 -22.5v-166q0 -25 7.5 -44.5t21.5 -33.5q14 -15 33.5 -22t44.5 -7
q13 0 22.5 -9.5t9.5 -22.5v-51l116 78q4 2 8.5 3.5t9.5 1.5h111q12 0 22.5 2t20.5 5q7 3 15 1.5t14 -5.5q7 -5 10 -11.5t3 -14.5v-73q0 -53 -15 -95t-43.5 -70.5t-70.5 -43.5q-41 -15 -95 -15v0zM277 757q-80 0 -120 -39.5t-40 -120.5v-230q0 -81 40 -120.5t120 -39.5h384
q81 0 120.5 39.5t39.5 120.5v33q-5 0 -10.5 -0.5t-10.5 -0.5h-101l-115 -77q-14 -9 -30.5 -9.5t-31.5 7.5q-14 7 -22.5 21t-8.5 31v29q-27 5 -50 16.5t-41 28.5q-23 23 -35.5 55t-12.5 69v166q0 5 0.5 10.5t0.5 10.5h-76v0zM550 312q-7 0 -14 2t-14 6q-15 7 -23 21t-8 31v29
q-27 5 -50.5 16.5t-41.5 28.5q-22 23 -34.5 55t-12.5 69v166q0 17 2.5 33t7.5 31q18 50 60.5 78.5t100.5 28.5h277q75 0 123 -47.5t48 -123.5v-166q0 -58 -28.5 -100.5t-78.5 -60.5q-15 -5 -31 -7.5t-33 -2.5h-101l-115 -77q-8 -5 -16.5 -7.5t-17.5 -2.5v0zM523 843
q-37 0 -63 -17t-37 -47q-3 -10 -5 -20.5t-2 -22.5v-166q0 -25 7.5 -44.5t21.5 -33.5q14 -15 33.5 -22t44.5 -7q13 0 22.5 -9.5t9.5 -22.5v-51l116 78q4 2 8.5 3.5t9.5 1.5h111q12 0 22.5 2t20.5 5q30 11 47 37t17 63v166q0 50 -29 78.5t-78 28.5h-277v0v0zM623 -11h-307
q-13 0 -22.5 9.5t-9.5 22.5t9.5 22.5t22.5 9.5h307q13 0 22.5 -9.5t9.5 -22.5t-9.5 -22.5t-22.5 -9.5zM469 -11q-13 0 -22.5 9.5t-9.5 22.5v154q0 13 9.5 22.5t22.5 9.5t22.5 -9.5t9.5 -22.5v-154q0 -13 -9.5 -22.5t-22.5 -9.5zM659 619q-14 0 -23 9.5t-9 22.5t9.5 22.5
t22.5 9.5t22.5 -9.5t9.5 -22.5t-9.5 -22.5t-22.5 -9.5zM779 619q-14 0 -23 9.5t-9 22.5t9.5 22.5t22.5 9.5t22.5 -9.5t9.5 -22.5t-9.5 -22.5t-22.5 -9.5zM539 619q-14 0 -23 9.5t-9 22.5t9 22.5t22 9.5q14 0 23 -9.5t9 -22.5t-9 -22.5t-22 -9.5z" />
    <glyph glyph-name="underscore" unicode="_" 
d="M512 131q-49 0 -96.5 19t-84.5 57q-38 37 -57 84q-19 48 -19 97t19 97q19 47 57 85q36 36 83 55.5t98 19.5t98 -19.5t83 -55.5q38 -38 57 -85q19 -48 19 -97t-19 -97q-19 -47 -57 -84q-37 -38 -84.5 -57t-96.5 -19zM512 580q-38 0 -73.5 -14.5t-62.5 -41.5
q-56 -56 -56 -136t56 -136q56 -57 136 -56.5t136 56.5t56 136t-56 136q-27 27 -62.5 41.5t-73.5 14.5v0zM444 288q-6 0 -12 2.5t-10 6.5q-10 10 -10 23t10 23l67 68q10 9 23 9t23 -9q9 -9 9 -22.5t-9 -23.5l-68 -68q-5 -4 -11 -6.5t-12 -2.5v0zM802 640q-8 0 -15 2.5
t-12 8.5q-11 11 -11 27t11 26q5 6 12 9t15 3q7 0 14 -3t13 -9q5 -5 8 -12t3 -14q0 -8 -3 -15t-8 -12q-5 -6 -12.5 -8.5t-14.5 -2.5zM799 681v-6q0 -1 1 -1.5t2 -0.5q4 3 4.5 5t-1.5 3h-6zM802 629q-10 0 -19 3.5t-16 10.5q-14 15 -14 35t14 35q7 7 16 10.5t19 3.5t18.5 -4
t15.5 -11t10.5 -16t3.5 -18q0 -10 -3.5 -19t-10.5 -16t-15.5 -10.5t-18.5 -3.5v0zM791 667q2 -2 5 -3t6 -1t5.5 1t4.5 3q5 4 5 10.5t-5 10.5q-4 4 -10.5 4t-10.5 -4q-2 -2 -3 -4.5t-1 -5.5t1 -6t3 -5v0zM222 60q-7 0 -14 3t-13 8q-5 6 -8 13t-3 14q0 8 3 15t8 12q6 5 13 8
t14 3q8 0 15 -3t12 -8q11 -11 11 -27t-11 -27q-5 -5 -12 -8t-15 -3zM221 102h-0.5t-1.5 -1t-1 -3t1 -3l1.5 -1.5t1.5 -0.5l4 5q-1 3 -2 3.5t-3 0.5v0zM222 49q-9 0 -18 4t-16 11t-11 16t-4 18q0 10 4 19t11 16q6 6 15 10t19 4t19 -4t16 -11q14 -14 14 -34t-14 -35
q-7 -7 -16 -10.5t-19 -3.5v0zM222 113q-3 0 -5.5 -1t-4.5 -3q-5 -4 -5 -10.5t5 -10.5q2 -2 4.5 -3t5.5 -1t6 1t5 3t3 5t1 6t-1 6t-3 5q-2 1 -5 2t-6 1v0zM922 350q-8 0 -15 3t-12 8q-12 11 -12 27t12 27q5 6 12 8t15 3q7 0 14 -2.5t12 -8.5q12 -11 12 -27t-12 -27
q-5 -5 -12 -8t-14 -3zM919 385q0 -1 1 -1h2q4 2 4 4t-1 3q-1 2 -3 2t-3 -2q-2 -1 -2 -3t2 -3zM922 339q-10 0 -19 3.5t-16 10.5q-14 15 -14 35t14 34q7 7 16 11t19 4t18.5 -4t15.5 -11q15 -14 15 -34t-15 -35q-7 -7 -16 -10.5t-18 -3.5zM911 377q2 -2 5 -3t6 -1t5.5 1t4.5 3
q5 5 5 11t-5 11q-4 4 -10.5 4t-10.5 -4q-4 -5 -4.5 -11t4.5 -11v0zM102 350q-7 0 -14 3t-12 8q-12 11 -12 27t12 27q11 11 27 11t27 -11t11 -27t-11 -27q-6 -5 -13.5 -8t-14.5 -3v0zM99 385q1 -1 3 -1t3 1q2 1 2 3t-2 3q-1 2 -3 2t-3 -2q-1 -1 -1 -3t1 -3zM102 339
q-9 0 -18 3.5t-16 10.5q-15 15 -15 35t15 34q14 15 34.5 14.5t34.5 -14.5t14 -34t-14 -35q-7 -7 -16 -10.5t-19 -3.5v0zM91 377q5 -4 11 -4t11 4q4 5 4 11t-4 11q-5 4 -11 4t-11 -4q-4 -5 -4 -11t4 -11zM802 60q-8 0 -15 3t-12 8q-11 11 -11 27t11 27q11 12 27 12t27 -12
q5 -5 8 -12t3 -14q0 -8 -3 -15t-8 -12q-6 -6 -13 -9t-14 -3zM802 103q-1 0 -2 -0.5l-1 -0.5v-7q1 -1 3 -1t3 1t1 3t-1 4q-1 0 -1.5 0.5t-1.5 0.5zM802 49q-10 0 -19 4t-16 11q-14 14 -14 34t14 35q15 14 35 14t34 -14q7 -7 11 -16t4 -19t-4 -18.5t-11 -15.5t-16 -11t-18 -4z
M791 87q5 -4 11 -4t10 4q5 5 5 11t-5 11q-4 4 -10 4t-11 -4q-2 -2 -3 -5t-1 -6t1 -5.5t3 -5.5v0zM222 640q-7 0 -14 2.5t-13 8.5q-5 5 -8 12t-3 15q0 7 3 14t8 12q6 6 13 9t14 3q8 0 15 -3t12 -9q11 -11 11 -27t-11 -27q-5 -5 -12 -7.5t-15 -2.5v0zM219 675l1.5 -1.5
t1.5 -0.5l4 5l-4 4q-4 -2 -4 -4t1 -3zM222 629q-10 0 -18.5 3.5t-15.5 10.5t-10.5 16t-3.5 19t3.5 19t10.5 16q7 6 16 10t19 4t18.5 -4t15.5 -11q14 -14 14 -34.5t-14 -34.5q-7 -7 -16 -10.5t-19 -3.5v0zM212 667q2 -2 4.5 -3.5t5.5 -1.5t6 1.5l5 2.5q2 2 3 5t1 6t-1 6t-3 5
q-4 4 -11 4t-11 -4t-4 -10.5t5 -10.5v0zM512 759q-8 0 -14.5 3t-12.5 9q-5 5 -8 12t-3 14q0 8 3 15t8 12q11 12 27 12t27 -12q11 -11 11 -27t-11 -26q-5 -6 -12 -9t-15 -3v0zM515 801l-6 -7q1 -1 3 -1t3 1v7zM509 801q-1 -1 -1 -3t1 -4l6 7h-6v0zM512 749q-10 0 -19 3.5
t-16 10.5q-6 7 -10 16t-4 19t4 18.5t11 15.5q14 15 34.5 15t34.5 -15q14 -14 14 -34t-14 -35q-7 -7 -16 -10.5t-19 -3.5zM523 809l-22 -22q5 -4 11 -4t11 4q2 2 3 5t1 6t-1 5.5t-3 5.5v0zM512 813q-3 0 -6 -1.5t-5 -3.5q-4 -4 -4 -10.5t4 -10.5l22 21q-2 2 -5 3.5t-6 1.5v0z
" />
    <glyph glyph-name="grave" unicode="`" 
d="M513 258h-257q-115 0 -159 44t-44 159v243q0 115 44 159t159 44h427q115 0 158.5 -44t43.5 -159v-76q0 -7 -2.5 -13.5t-7.5 -10.5q-5 -5 -11.5 -7t-14.5 -1q-7 1 -15 1.5t-17 0.5h-183q-55 0 -72 -17t-17 -73v-218q0 -13 -9.5 -22.5t-22.5 -9.5v0zM256 843
q-89 0 -114 -25t-25 -114v-243q0 -89 25 -114t114 -25h225v186q0 82 36 118t117 36h183h2h2v42q0 89 -24.5 114t-113.5 25h-427v0zM384 75q-13 0 -22.5 9.5t-9.5 22.5v183q0 13 9.5 22.5t22.5 9.5t22.5 -9.5t9.5 -22.5v-183q0 -13 -9.5 -22.5t-22.5 -9.5zM512 420h-427
q-13 0 -22.5 9.5t-9.5 22.5t9.5 22.5t22.5 9.5h427q13 0 22.5 -9.5t9.5 -22.5t-9.5 -22.5t-22.5 -9.5zM512 75h-258q-13 0 -22.5 9.5t-9.5 22.5t9.5 22.5t22.5 9.5h258q13 0 22.5 -9.5t9.5 -22.5t-9.5 -22.5t-22.5 -9.5zM726 111q-51 0 -87.5 36t-36.5 87q0 21 7 40.5
t19 35.5q18 22 43.5 35t54.5 13q22 0 43 -8t37 -22q21 -19 32 -43t11 -51q0 -51 -36 -87t-87 -36v0zM726 294q-14 0 -26.5 -6.5t-20.5 -16.5q-6 -8 -9.5 -17.5t-3.5 -19.5q0 -24 17.5 -41.5t42.5 -17.5q24 0 41.5 17.5t17.5 41.5q0 13 -5.5 25t-15.5 20q-8 7 -18 11t-20 4v0
zM726 385q-32 0 -55 23t-23 55t23 54.5t55 22.5t54.5 -22.5t22.5 -54.5t-22.5 -55t-54.5 -23zM726 476q-6 0 -10 -4t-4 -9q0 -6 4 -10t10 -4q5 0 9 4t4 10q0 5 -4 9t-9 4z" />
    <glyph glyph-name="a" unicode="a" 
d="M939 -11h-726q-66 0 -113 47t-47 113v726q0 13 9.5 22.5t22.5 9.5t22.5 -9.5t9.5 -22.5v-726q0 -39 28.5 -67.5t67.5 -28.5h726q13 0 22.5 -9.5t9.5 -22.5t-9.5 -22.5t-22.5 -9.5zM213 203q-5 0 -10.5 2t-10.5 5q-10 9 -11 22t8 24l196 228q16 19 38 29.5t46 11.5
q25 1 48 -8t40 -26l40 -40q8 -8 18.5 -12t21.5 -4t21 5t17 14l196 228q9 10 22 11t23 -7q10 -9 11.5 -22t-7.5 -24l-196 -228q-16 -19 -38 -29.5t-46 -11.5q-25 -1 -48 8t-40 26l-40 40q-8 8 -18 12.5t-22 3.5q-11 0 -21 -5t-17 -14l-196 -228q-5 -6 -11.5 -8.5t-13.5 -2.5
v0z" />
    <glyph glyph-name="b" unicode="b" 
d="M512 -4q-35 0 -67 14.5t-57 41.5l-293 321q-31 34 -39.5 86.5t10.5 94.5l109 246q22 50 60 75t93 25h367q55 0 92.5 -24.5t60.5 -75.5l109 -245q19 -42 10.5 -94.5t-39.5 -86.5l-292 -322q-24 -27 -56 -41.5t-68 -14.5v0zM695 836h-366q-42 0 -62.5 -17t-32.5 -45
l-109 -245q-11 -25 -5.5 -58.5t23.5 -53.5l292 -322q16 -17 35.5 -26t41.5 -9t41.5 9t35.5 26l292 322q18 20 23.5 53.5t-5.5 58.5l-109 246q-12 27 -32.5 44t-62.5 17v0zM149 587q-13 0 -22.5 9.5t-9.5 22.5t9.5 22.5t22.5 9.5h726q13 0 22.5 -9.5t9.5 -22.5t-9.5 -22.5
t-22.5 -9.5h-726v0z" />
    <glyph glyph-name="c" unicode="c" 
d="M640 -11h-256q-87 0 -149 19q-63 20 -103 60t-60 103q-19 62 -19 149v256q0 87 19 149q20 63 60 103t103 60q62 19 149 19h256q87 0 149 -19q63 -20 103 -60t60 -103q19 -62 19 -149v-256q0 -87 -19 -149q-20 -63 -60 -103t-103 -60q-62 -19 -149 -19v0zM384 843
q-74 0 -125 -14t-82.5 -45.5t-45.5 -82.5t-14 -125v-256q0 -74 14 -125t45.5 -82.5t82.5 -45.5t125 -14h256q74 0 125 14t82.5 45.5t45.5 82.5t14 125v256q0 74 -14 125t-45.5 82.5t-82.5 45.5t-125 14h-256v0zM587 203h-151q-35 0 -62 16.5t-42 48.5l-38 76q-7 14 -20 21.5
t-28 7.5h-161q-13 0 -22.5 9.5t-9.5 22.5t9.5 22.5t22.5 9.5h161q33 0 61.5 -17t43.5 -48l38 -76q7 -15 19 -22t28 -7h151q15 0 28 7.5t20 21.5l38 76q15 31 43 48t62 17h159q14 0 23 -9.5t9 -22.5t-9 -22.5t-23 -9.5h-159q-16 0 -28.5 -7.5t-19.5 -21.5l-38 -76
q-15 -31 -43 -48t-62 -17v0zM583 629h-142q-13 0 -22.5 9.5t-9.5 22.5t9.5 22.5t22.5 9.5h142q13 0 22.5 -9.5t9.5 -22.5t-9.5 -22.5t-22.5 -9.5zM619 501h-214q-13 0 -22.5 9.5t-9.5 22.5t9.5 22.5t22.5 9.5h214q13 0 22.5 -9.5t9.5 -22.5t-9.5 -22.5t-22.5 -9.5z" />
    <glyph glyph-name="d" unicode="d" 
d="M683 -11h-342q-92 0 -141 22q-50 23 -73 58t-27 79q-4 43 -4 87v42q0 72 25.5 137.5t177.5 65.5q38 0 57 -8.5t39 -23.5l2 -2l2 -2l43 -46q28 -29 70.5 -29t69.5 29l44 46l2 2l2 2q20 15 39 23.5t57 8.5q152 0 177.5 -65.5t25.5 -137.5v-42q0 -61 -16 -107t-46.5 -77
t-76.5 -46q-46 -16 -107 -16v0zM299 416q-104 0 -121.5 -33.5t-17.5 -105.5v-42q0 -88 22.5 -135t158.5 -47h342q95 0 138 43t43 139v42q0 72 -17.5 105.5t-121.5 33.5q-23 0 -32 -3.5t-23 -13.5l-42 -44q-23 -25 -53 -38t-63 -13t-63 13t-53 38l-42 44q-14 10 -23 13.5
t-32 3.5v0zM811 416q-13 0 -22.5 9.5t-9.5 22.5v256q0 71 -17.5 105t-121.5 34h-256q-104 0 -121.5 -34t-17.5 -105v-256q0 -13 -9.5 -22.5t-22.5 -9.5t-22.5 9.5t-9.5 22.5v256q0 71 25.5 137t177.5 66h256q152 0 177.5 -66t25.5 -137v-256q0 -13 -9.5 -22.5t-22.5 -9.5z
" />
    <glyph glyph-name="e" unicode="e" 
d="M683 -11h-342q-92 0 -141 22q-50 23 -73 58t-27 79q-4 43 -4 87v42q0 72 25.5 137.5t177.5 65.5q38 0 57 -8.5t39 -23.5l2 -2l2 -2l43 -46q28 -29 70.5 -29t69.5 29l44 46l2 2l2 2q20 15 39 23.5t57 8.5q152 0 177.5 -65.5t25.5 -137.5v-42q0 -61 -16 -107t-46.5 -77
t-76.5 -46q-46 -16 -107 -16v0zM299 416q-104 0 -121.5 -33.5t-17.5 -105.5v-42q0 -88 22.5 -135t158.5 -47h342q95 0 138 43t43 139v42q0 72 -17.5 105.5t-121.5 33.5q-23 0 -32 -3.5t-23 -13.5l-42 -44q-23 -25 -53 -38t-63 -13t-63 13t-53 38l-42 44q-14 10 -23 13.5
t-32 3.5v0zM811 416q-13 0 -22.5 9.5t-9.5 22.5v256q0 71 -17.5 105t-121.5 34h-256q-104 0 -121.5 -34t-17.5 -105v-256q0 -13 -9.5 -22.5t-22.5 -9.5t-22.5 9.5t-9.5 22.5v256q0 71 25.5 137t177.5 66h256q152 0 177.5 -66t25.5 -137v-256q0 -13 -9.5 -22.5t-22.5 -9.5z
M592 534h-142q-13 0 -22.5 9.5t-9.5 22.5t9.5 22.5t22.5 9.5h142q13 0 22.5 -9.5t9.5 -22.5t-9 -22.5t-23 -9.5zM628 662h-213q-13 0 -22.5 9.5t-9.5 22.5t9.5 22.5t22.5 9.5h213q13 0 22.5 -9.5t9.5 -22.5t-9 -22.5t-23 -9.5z" />
    <glyph glyph-name="f" unicode="f" 
d="M512 587q-3 0 -6 0.5t-6 1.5q-9 4 -14.5 12t-5.5 18v256q0 13 9.5 22.5t22.5 9.5t22.5 -9.5t9.5 -22.5v-179l31 31q9 9 22.5 9t22.5 -9q9 -10 9 -23t-9 -23l-85 -85q-5 -4 -11 -6.5t-12 -2.5v0zM512 587q-6 0 -12 2t-11 7l-85 85q-9 10 -9 23t9 23q9 9 22.5 9t22.5 -9
l86 -86q9 -9 9 -22.5t-9 -22.5q-5 -5 -11 -7t-12 -2v0zM683 -11h-342q-92 0 -141 22q-50 23 -73 58t-27 79q-4 43 -4 87v42q0 72 25.5 137.5t177.5 65.5q38 0 57 -8.5t39 -23.5l2 -2l2 -2l43 -46q28 -29 70.5 -29t69.5 29l44 46l2 2l2 2q20 15 39 23.5t57 8.5
q152 0 177.5 -65.5t25.5 -137.5v-42q0 -61 -16 -107t-46.5 -77t-76.5 -46q-46 -16 -107 -16v0zM299 416q-104 0 -121.5 -33.5t-17.5 -105.5v-42q0 -88 22.5 -135t158.5 -47h342q95 0 138 43t43 139v42q0 72 -17.5 105.5t-121.5 33.5q-23 0 -32 -3.5t-23 -13.5l-42 -44
q-23 -25 -53 -38t-63 -13t-63 13t-53 38l-42 44q-14 10 -23 13.5t-32 3.5v0zM213 416q-13 0 -22.5 9.5t-9.5 22.5v171q0 62 20 125.5t137 74.5q13 1 23.5 -7t11.5 -22q2 -13 -6.5 -23.5t-22.5 -11.5q-74 -7 -86.5 -39t-12.5 -97v-171q0 -13 -9.5 -22.5t-22.5 -9.5v0z
M811 416q-13 0 -22.5 9.5t-9.5 22.5v171q0 65 -12.5 97.5t-86.5 39.5q-13 1 -21.5 11t-7.5 24q1 13 11.5 21.5t23.5 6.5q118 -11 137.5 -74.5t19.5 -125.5v-171q0 -13 -9.5 -22.5t-22.5 -9.5v0z" />
    <glyph glyph-name="g" unicode="g" 
d="M512 587q-13 0 -22.5 9.5t-9.5 22.5v178l-31 -30q-9 -10 -22.5 -10t-22.5 10q-9 9 -9 22.5t9 22.5l85 85q7 7 16.5 9t18.5 -2q9 -3 14.5 -11.5t5.5 -17.5v-256q0 -13 -9.5 -22.5t-22.5 -9.5v0zM597 757q-6 0 -12 2.5t-10 7.5l-86 85q-9 9 -9 22.5t9 22.5q10 10 23 10
t23 -10l85 -85q9 -9 9 -22.5t-9 -22.5q-5 -5 -11 -7.5t-12 -2.5v0zM683 -11h-342q-92 0 -141 22q-50 23 -73 58t-27 79q-4 43 -4 87v42q0 72 25.5 137.5t177.5 65.5q38 0 57 -8.5t39 -23.5l2 -2l2 -2l43 -46q28 -29 70.5 -29t69.5 29l44 46l2 2l2 2q20 15 39 23.5t57 8.5
q152 0 177.5 -65.5t25.5 -137.5v-42q0 -61 -16 -107t-46.5 -77t-76.5 -46q-46 -16 -107 -16v0zM299 416q-104 0 -121.5 -33.5t-17.5 -105.5v-42q0 -88 22.5 -135t158.5 -47h342q95 0 138 43t43 139v42q0 72 -17.5 105.5t-121.5 33.5q-23 0 -32 -3.5t-23 -13.5l-42 -44
q-23 -25 -53 -38t-63 -13t-63 13t-53 38l-42 44q-14 10 -23 13.5t-32 3.5v0zM213 416q-13 0 -22.5 9.5t-9.5 22.5v85q0 62 20 126t137 75q13 1 23.5 -7.5t11.5 -21.5q2 -13 -6.5 -23.5t-22.5 -11.5q-74 -7 -86.5 -39t-12.5 -98v-85q0 -13 -9.5 -22.5t-22.5 -9.5v0zM811 416
q-13 0 -22.5 9.5t-9.5 22.5v85q0 66 -12.5 98t-86.5 39q-13 2 -21.5 12t-7.5 23t11.5 21.5t23.5 7.5q118 -11 137.5 -75t19.5 -126v-85q0 -13 -9.5 -22.5t-22.5 -9.5v0z" />
    <glyph glyph-name="h" unicode="h" 
d="M512 32q-47 0 -87 24t-62 66l-260 495q-26 49 -18.5 102.5t46.5 93.5t92.5 49t103.5 -16l138 -69q22 -11 46.5 -11t46.5 11l139 69q50 25 103.5 16t92.5 -49t46.5 -93.5t-18.5 -102.5l-260 -495q-22 -42 -62 -66t-87 -24v0zM251 800q-23 0 -42 -9.5t-32 -22.5
q-19 -20 -28 -52t10 -70l260 -494q14 -26 38.5 -41t54.5 -15q29 0 53.5 15t38.5 41l260 494q20 38 11 70t-29 52q-19 20 -51 29.5t-70 -9.5l-138 -69q-36 -17 -75.5 -17t-75.5 17l-138 69q-12 7 -24 9.5t-23 2.5v0z" />
    <glyph glyph-name="i" unicode="i" 
d="M512 544q-3 0 -6 0.5t-6 2.5q-9 3 -14.5 11t-5.5 18v299q0 13 9.5 22.5t22.5 9.5t22.5 -9.5t9.5 -22.5v-222l31 31q9 9 22.5 9t22.5 -9t9 -22.5t-9 -22.5l-85 -86q-5 -4 -11 -6.5t-12 -2.5v0zM512 544q-6 0 -12 2.5t-11 6.5l-85 86q-9 9 -9 22.5t9 22.5t22.5 9t22.5 -9
l86 -85q9 -10 9 -23t-9 -23q-5 -4 -11 -6.5t-12 -2.5v0zM587 203h-150q-34 0 -62 17t-43 48l-50 99q-2 3 -4.5 4.5t-5.5 1.5h-187q-14 0 -23 9.5t-9 22.5t9 22.5t23 9.5h188q21 0 39 -11t28 -30l50 -100q6 -14 19 -21.5t28 -7.5h151q15 0 28 7.5t20 21.5l50 100q9 19 27 30
t40 11h186q13 0 22.5 -9.5t9.5 -22.5t-9.5 -22.5t-22.5 -9.5h-186q-4 0 -6 -1.5t-4 -4.5l-50 -99q-16 -31 -44 -48t-62 -17v0zM640 -11h-256q-87 0 -149 19q-63 20 -103 60t-60 103q-19 62 -19 149v171q0 75 15 131q14 57 43.5 97t74.5 64q46 23 108 32q13 2 23.5 -5.5
t12.5 -21.5q2 -13 -6 -23.5t-21 -12.5q-100 -15 -143 -75t-43 -186v-171q0 -74 14 -125t45.5 -82.5t82.5 -45.5t125 -14h256q74 0 125 14t82.5 45.5t45.5 82.5t14 125v171q0 126 -43 186t-143 75q-13 2 -21 12.5t-6 23.5q2 14 12.5 21.5t23.5 5.5q62 -9 108 -32
q45 -24 74.5 -64t43.5 -97q15 -56 15 -131v-171q0 -87 -19 -149q-20 -63 -60 -103t-103 -60q-62 -19 -149 -19z" />
    <glyph glyph-name="j" unicode="j" 
d="M760 19q-20 0 -40 5t-39 15l-495 260q-42 22 -66 62t-24 87t24 87t66 62l495 260q49 26 102.5 18.5t93.5 -46.5t49 -92.5t-16 -103.5l-69 -138q-11 -22 -11 -46.5t11 -47.5l69 -138q25 -50 16 -103t-49 -92q-25 -24 -55 -36.5t-62 -12.5v0zM759 813q-11 0 -23.5 -3
t-25.5 -10l-494 -260q-26 -14 -41 -38.5t-15 -53.5t15 -53.5t41 -38.5l494 -260q38 -20 70 -11t52 28q20 20 29.5 52t-9.5 70l-69 138q-17 35 -17 75t17 76l69 138q19 37 9.5 69.5t-29.5 51.5q-13 12 -31.5 21t-41.5 9v0z" />
    <glyph glyph-name="k" unicode="k" 
d="M640 -11h-256q-87 0 -149 19q-63 20 -103 60t-60 103q-19 62 -19 149v256q0 87 19 149q20 63 60 103t103 60q62 19 149 19h256q87 0 149 -19q63 -20 103 -60t60 -103q19 -62 19 -149v-256q0 -87 -19 -149q-20 -63 -60 -103t-103 -60q-62 -19 -149 -19v0zM384 843
q-74 0 -125 -14t-82.5 -45.5t-45.5 -82.5t-14 -125v-256q0 -74 14 -125t45.5 -82.5t82.5 -45.5t125 -14h256q74 0 125 14t82.5 45.5t45.5 82.5t14 125v256q0 74 -14 125t-45.5 82.5t-82.5 45.5t-125 14h-256v0zM587 203h-151q-35 0 -62 16.5t-42 48.5l-38 76q-7 14 -20 21.5
t-28 7.5h-161q-13 0 -22.5 9.5t-9.5 22.5t9.5 22.5t22.5 9.5h161q33 0 61.5 -17t43.5 -48l38 -76q7 -15 19 -22t28 -7h151q15 0 28 7.5t20 21.5l38 76q15 31 43 48t62 17h159q14 0 23 -9.5t9 -22.5t-9 -22.5t-23 -9.5h-159q-16 0 -28.5 -7.5t-19.5 -21.5l-38 -76
q-15 -31 -43 -48t-62 -17v0z" />
    <glyph glyph-name="l" unicode="l" 
d="M587 203h-150q-36 0 -63 16.5t-42 48.5l-38 76q-7 14 -20 21.5t-28 7.5h-161q-14 0 -23 9.5t-9 22.5t9 22.5t23 9.5h161q34 0 62 -17t43 -48l38 -76q8 -15 19.5 -22t28.5 -7h151q15 0 28 7.5t19 21.5l38 76q15 31 43.5 48t61.5 17h160q13 0 22.5 -9.5t9.5 -22.5
t-9.5 -22.5t-22.5 -9.5h-160q-15 0 -28 -7.5t-20 -21.5l-37 -76q-16 -31 -44 -48t-62 -17zM811 587q-67 0 -113.5 46.5t-46.5 113.5q0 66 46.5 113t113.5 47q66 0 113 -47t47 -113q0 -67 -47 -113.5t-113 -46.5zM811 843q-40 0 -68 -28.5t-28 -67.5q0 -40 28 -68t68 -28
q39 0 67.5 28t28.5 68q0 39 -28.5 67.5t-67.5 28.5zM640 -11h-256q-87 0 -149 19q-63 20 -103 60t-60 103q-19 62 -19 149v256q0 87 19 149q20 63 60 103t103 60q62 19 149 19h213q13 0 22.5 -9.5t9.5 -22.5t-9.5 -22.5t-22.5 -9.5h-213q-74 0 -125 -14t-82.5 -45.5
t-45.5 -82.5t-14 -125v-256q0 -74 14 -125t45.5 -82.5t82.5 -45.5t125 -14h256q74 0 125 14t82.5 45.5t45.5 82.5t14 125v213q0 13 9.5 22.5t22.5 9.5t22.5 -9.5t9.5 -22.5v-213q0 -87 -19 -149q-20 -63 -60 -103t-103 -60q-62 -19 -149 -19v0z" />
    <glyph glyph-name="m" unicode="m" 
d="M264 19q-32 0 -62 12t-55 36q-40 39 -49 92.5t16 103.5l69 138q11 22 11 46.5t-10 47.5l-70 138q-25 50 -16 103.5t49 92.5t93.5 46.5t102.5 -18.5l495 -260q42 -22 66 -62t24 -87t-24 -87t-66 -62l-494 -260q-20 -10 -40 -15t-40 -5v0zM265 813q-23 0 -41.5 -9
t-31.5 -21q-20 -20 -29.5 -52t9.5 -70l69 -138q17 -35 17 -75t-17 -76l-69 -138q-19 -37 -9.5 -69.5t29.5 -51.5t52.5 -28t69.5 10l494 260q26 14 41 38.5t15 54.5q0 29 -15 53.5t-41 38.5l-494 261q-13 7 -25.5 9.5t-23.5 2.5v0z" />
    <glyph glyph-name="n" unicode="n" 
d="M512 544q-13 0 -22.5 9.5t-9.5 22.5v221l-31 -30q-9 -10 -22.5 -10t-22.5 10q-9 9 -9 22.5t9 22.5l85 85q7 7 16.5 9t18.5 -2q9 -3 14.5 -11.5t5.5 -17.5v-299q0 -13 -9.5 -22.5t-22.5 -9.5v0zM597 757q-6 0 -12 2.5t-10 7.5l-86 85q-9 9 -9 22.5t9 22.5q10 10 23 10
t23 -10l85 -85q9 -9 9 -22.5t-9 -22.5q-5 -5 -11 -7.5t-12 -2.5v0zM587 203h-150q-34 0 -62 17t-43 48l-50 99q-2 3 -4.5 4.5t-5.5 1.5h-187q-14 0 -23 9.5t-9 22.5t9 22.5t23 9.5h188q21 0 39 -11t28 -30l50 -100q6 -14 19 -21.5t28 -7.5h151q15 0 28 7.5t20 21.5l50 100
q9 19 27 30t40 11h186q13 0 22.5 -9.5t9.5 -22.5t-9.5 -22.5t-22.5 -9.5h-186q-4 0 -6 -1.5t-4 -4.5l-50 -99q-16 -31 -44 -48t-62 -17v0zM640 -11h-256q-87 0 -149 19q-63 20 -103 60t-60 103q-19 62 -19 149v128q0 75 15 132q14 56 43.5 96t74.5 64q46 24 108 33
q13 2 23.5 -6t12.5 -21t-6 -24t-21 -12q-100 -15 -143 -75.5t-43 -186.5v-128q0 -74 14 -125t45.5 -82.5t82.5 -45.5t125 -14h256q74 0 125 14t82.5 45.5t45.5 82.5t14 125v128q0 126 -43 186.5t-143 75.5q-13 1 -21 12t-6 24t12.5 21t23.5 6q62 -9 108 -33q45 -24 74.5 -64
t43.5 -96q15 -57 15 -132v-128q0 -87 -19 -149q-20 -63 -60 -103t-103 -60q-62 -19 -149 -19z" />
    <glyph glyph-name="o" unicode="o" 
d="M773 32q-19 0 -38.5 4.5t-37.5 13.5l-139 69q-21 11 -46 11t-47 -11l-138 -69q-50 -25 -103.5 -16t-92.5 49t-46.5 93.5t18.5 102.5l260 495q22 42 62 66t87 24t87 -24t62 -66l260 -495q26 -49 18.5 -102.5t-46.5 -93.5q-25 -25 -56 -38t-64 -13v0zM512 195
q20 0 38.5 -4.5t36.5 -13.5l138 -69q38 -19 70 -9t51 29q20 20 29 52.5t-11 69.5l-260 495q-14 25 -38.5 40t-53.5 15t-53.5 -15t-38.5 -41l-260 -494q-20 -38 -11 -70t28 -52q20 -20 52 -29.5t70 9.5l138 69q17 9 36 13.5t39 4.5v0z" />
    <glyph glyph-name="p" unicode="p" 
d="M512 -11q-95 0 -178 36q-84 37 -146 99t-99 146q-36 83 -36 178t36 178q37 84 99 146t146 99q83 36 178 36t178 -36q84 -37 146 -99t99 -146q36 -83 36 -178t-36 -178q-37 -84 -99 -146t-146 -99q-83 -36 -178 -36v0zM512 843q-82 0 -153 -31q-72 -31 -126 -85t-85 -126
q-31 -71 -31 -153t31 -153q31 -72 85 -126t126 -85q71 -31 153 -31t153 31q72 31 126 85t85 126q31 71 31 153t-31 153q-31 72 -85 126t-126 85q-71 31 -153 31v0zM640 277q-18 0 -30.5 12.5t-12.5 30.5t12.5 30.5t30.5 12.5q17 0 29.5 -12.5t12.5 -30.5t-12 -30.5
t-30 -12.5v0zM384 533q-17 0 -30 12.5t-13 30.5t12.5 30.5t30.5 12.5t30.5 -12.5t12.5 -30.5t-12.5 -30.5t-30.5 -12.5v0zM384 288q-6 0 -12 2.5t-11 6.5q-9 10 -9 23t9 23l256 256q10 9 23 9t23 -9q9 -10 9 -23t-9 -23l-256 -256q-5 -4 -11 -6.5t-12 -2.5v0z" />
    <glyph glyph-name="q" unicode="q" 
d="M512 -11q-20 0 -38.5 7.5t-32.5 22.5l-65 65q-4 3 -12 6.5t-13 3.5h-92q-42 0 -71.5 29.5t-29.5 71.5v92q0 5 -3.5 13t-6.5 12l-65 65q-14 14 -22 32.5t-8 38.5t7.5 38.5t22.5 32.5l65 65q3 4 6.5 12t3.5 13v92q0 42 29.5 71.5t71.5 29.5h92q5 0 13 3.5t12 6.5l65 65
q28 28 71 28t71 -28l65 -65q4 -3 12 -6.5t13 -3.5h92q42 0 71.5 -29.5t29.5 -71.5v-92q0 -5 3.5 -13t6.5 -12l65 -65q14 -14 22 -32.5t8 -38.5t-7.5 -38.5t-22.5 -32.5l-65 -65q-3 -4 -6.5 -12t-3.5 -13v-92q0 -42 -29.5 -71.5t-71.5 -29.5h-92q-5 0 -13 -3.5t-12 -6.5
l-65 -65q-14 -15 -32.5 -22.5t-38.5 -7.5v0zM193 358q13 -13 21 -33t8 -38v-92q0 -15 11 -26t26 -11h92q18 0 38 -8t33 -21l64 -65q11 -10 26 -10t26 10l64 65q13 13 33 21t38 8h92q15 0 26 11t11 26v92q0 18 8 38t21 33l65 64q5 6 8 12.5t3 13.5t-3 13.5t-8 12.5l-65 64
q-13 13 -21 33t-8 38v92q0 15 -11 26t-26 11h-92q-18 0 -38 8t-33 21l-64 65q-11 10 -26 10t-26 -10l-64 -65q-13 -13 -33 -21t-38 -8h-92q-15 0 -26 -11t-11 -26v-92q0 -18 -8 -38t-21 -33l-65 -64q-5 -6 -8 -12.5t-3 -13.5t3 -13.5t8 -12.5l65 -64v0zM640 277
q-18 0 -30.5 12.5t-12.5 30.5t12.5 30.5t30.5 12.5q17 0 29.5 -12.5t12.5 -30.5t-12 -30.5t-30 -12.5v0zM384 533q-17 0 -30 12.5t-13 30.5t12.5 30.5t30.5 12.5t30.5 -12.5t12.5 -30.5t-12.5 -30.5t-30.5 -12.5v0zM384 288q-6 0 -12 2.5t-11 6.5q-9 10 -9 23t9 23l256 256
q10 9 23 9t23 -9q9 -10 9 -23t-9 -23l-256 -256q-5 -4 -11 -6.5t-12 -2.5v0z" />
    <glyph glyph-name="r" unicode="r" 
d="M512 -11q-95 0 -178 36q-84 37 -146 99t-99 146q-36 83 -36 178t36 178q37 84 99 146t146 99q83 36 178 36t178 -36q84 -37 146 -99t99 -146q36 -83 36 -178t-36 -178q-37 -84 -99 -146t-146 -99q-83 -36 -178 -36v0zM512 843q-82 0 -153 -31q-72 -31 -126 -85t-85 -126
q-31 -71 -31 -153t31 -153q31 -72 85 -126t126 -85q71 -31 153 -31t153 31q72 31 126 85t85 126q31 71 31 153t-31 153q-31 72 -85 126t-126 85q-71 31 -153 31v0zM448 245q-57 0 -98 41t-41 98q0 55 21 104q21 48 57.5 84.5t84.5 57.5q49 21 104 21q57 0 98 -41t41 -98
q0 -55 -21 -104q-21 -48 -57.5 -84.5t-84.5 -57.5q-49 -21 -104 -21v0zM576 587q-42 0 -79 -16t-64.5 -43.5t-43.5 -64.5t-16 -79q0 -31 22 -53t53 -22q42 0 79 16t64.5 43.5t43.5 64.5t16 79q0 31 -22 53t-53 22v0z" />
    <glyph glyph-name="s" unicode="s" 
d="M209 -14q-34 0 -63.5 11.5t-51.5 32.5q-31 31 -40 77t4 101l106 424q14 55 61.5 102t101.5 61l424 106q55 13 101 4t77 -40t40 -77t-4 -101l-106 -424q-14 -55 -61 -102t-102 -61l-424 -106q-16 -3 -31.5 -5.5t-31.5 -2.5v0zM767 839l-424 -106q-37 -9 -72 -44t-44 -72
l-106 -424q-10 -38 -5 -68.5t23 -48.5q19 -19 49.5 -24t68.5 5l424 106q37 9 72 44t44 72l106 424q9 38 4.5 68t-23.5 49t-49 24t-68 -5v0zM512 267q-75 0 -128 53t-53 128t53 128t128 53t128 -53t53 -128t-53 -128t-128 -53zM512 565q-49 0 -83 -34t-34 -83t34 -83t83 -34
t83 34t34 83t-34 83t-83 34v0z" />
    <glyph glyph-name="t" unicode="t" 
d="M461 17q-9 0 -18.5 1.5t-17.5 4.5q-40 14 -62.5 52t-13.5 79l21 135v5t-3 6q-1 1 -3.5 2t-4.5 1h-171q-31 0 -57 12.5t-42 35.5q-16 22 -19 49.5t7 56.5l102 310q12 47 55.5 79.5t94.5 32.5h163q17 0 49.5 -7t53.5 -28l129 -100l-39 -51l-132 103q-8 8 -26 13.5t-35 5.5
h-163q-28 0 -55 -19.5t-33 -45.5l-103 -314q-5 -14 -4.5 -26.5t7.5 -21.5q7 -10 19.5 -15.5t28.5 -5.5h170q17 0 31.5 -7t25.5 -19t15.5 -28t1.5 -34l-21 -136q-4 -18 6.5 -35.5t27.5 -23.5q16 -6 33 0.5t24 16.5l175 260l53 -35l-175 -261q-15 -22 -41 -35t-54 -13v0z
M837 188h-43q-59 0 -88 28t-29 85v418q0 57 29 85t88 28h43q59 0 88 -28t29 -85v-418q0 -57 -29 -85t-88 -28zM794 768q-34 0 -43.5 -10.5t-9.5 -38.5v-418q0 -29 9.5 -39t43.5 -10h43q35 0 44 10t9 39v418q0 28 -9 38.5t-44 10.5h-43z" />
    </font>
</defs>
</svg>
